G04 #@! TF.GenerationSoftware,KiCad,Pcbnew,5.1.4+dfsg1-1*
G04 #@! TF.CreationDate,2020-01-19T14:17:45-05:00*
G04 #@! TF.ProjectId,thermostat_master,74686572-6d6f-4737-9461-745f6d617374,rev?*
G04 #@! TF.SameCoordinates,Original*
G04 #@! TF.FileFunction,Copper,L1,Top*
G04 #@! TF.FilePolarity,Positive*
%FSLAX46Y46*%
G04 Gerber Fmt 4.6, Leading zero omitted, Abs format (unit mm)*
G04 Created by KiCad (PCBNEW 5.1.4+dfsg1-1) date 2020-01-19 14:17:45*
%MOMM*%
%LPD*%
G04 APERTURE LIST*
%ADD10R,1.700000X1.700000*%
%ADD11O,1.700000X1.700000*%
%ADD12R,3.000000X3.000000*%
%ADD13C,3.000000*%
%ADD14C,1.508000*%
%ADD15R,1.508000X1.508000*%
%ADD16R,1.560000X1.560000*%
%ADD17C,1.560000*%
%ADD18C,0.800000*%
%ADD19C,0.250000*%
G04 APERTURE END LIST*
D10*
X112268000Y-97028000D03*
D11*
X112268000Y-94488000D03*
X112268000Y-91948000D03*
X112268000Y-89408000D03*
X112268000Y-86868000D03*
X112268000Y-84328000D03*
X112268000Y-81788000D03*
X112268000Y-79248000D03*
X112268000Y-76708000D03*
X112268000Y-74168000D03*
X112268000Y-71628000D03*
X112268000Y-69088000D03*
X112268000Y-66548000D03*
X112268000Y-64008000D03*
D10*
X193548000Y-84328000D03*
D11*
X193548000Y-81788000D03*
X193548000Y-79248000D03*
X193548000Y-76708000D03*
X133858000Y-53848000D03*
X131318000Y-53848000D03*
X128778000Y-53848000D03*
D10*
X126238000Y-53848000D03*
X198882000Y-81280000D03*
D11*
X198882000Y-78740000D03*
D12*
X188214000Y-51054000D03*
D13*
X193294000Y-51054000D03*
D14*
X193294000Y-100200000D03*
X190754000Y-100200000D03*
X180594000Y-100200000D03*
D15*
X172974000Y-100200000D03*
D16*
X167386000Y-103072000D03*
D17*
X167386000Y-100532000D03*
X167386000Y-57352000D03*
X167386000Y-97992000D03*
X167386000Y-95452000D03*
X167386000Y-92912000D03*
X167386000Y-90372000D03*
X167386000Y-87832000D03*
X167386000Y-85292000D03*
X167386000Y-82752000D03*
X167386000Y-80212000D03*
X167386000Y-77672000D03*
X167386000Y-75132000D03*
X167386000Y-72592000D03*
X167386000Y-70052000D03*
X167386000Y-67512000D03*
X167386000Y-64972000D03*
X167386000Y-62432000D03*
X167386000Y-59892000D03*
X141986000Y-103072000D03*
X141986000Y-100532000D03*
X141986000Y-97992000D03*
X141986000Y-95452000D03*
X141986000Y-92912000D03*
X141986000Y-90372000D03*
X141986000Y-87832000D03*
X141986000Y-85292000D03*
X141986000Y-82752000D03*
X141986000Y-80212000D03*
X141986000Y-77672000D03*
X141986000Y-75132000D03*
X141986000Y-72592000D03*
X141986000Y-70052000D03*
X141986000Y-67512000D03*
X141986000Y-64972000D03*
X141986000Y-62432000D03*
X141986000Y-59892000D03*
X141986000Y-57352000D03*
D18*
X116840000Y-71120000D03*
X124968000Y-67564000D03*
X119888000Y-64770000D03*
X130048000Y-66294000D03*
D19*
X166606001Y-83531999D02*
X167386000Y-82752000D01*
X126538999Y-83857001D02*
X166280999Y-83857001D01*
X166280999Y-83857001D02*
X166606001Y-83531999D01*
X113368000Y-97028000D02*
X126538999Y-83857001D01*
X112268000Y-97028000D02*
X113368000Y-97028000D01*
X166280999Y-91477001D02*
X166606001Y-91151999D01*
X111157999Y-98203001D02*
X135059597Y-98203001D01*
X166606001Y-91151999D02*
X167386000Y-90372000D01*
X141785597Y-91477001D02*
X166280999Y-91477001D01*
X135059597Y-98203001D02*
X141785597Y-91477001D01*
X111092999Y-98138001D02*
X111157999Y-98203001D01*
X111092999Y-95663001D02*
X111092999Y-98138001D01*
X112268000Y-94488000D02*
X111092999Y-95663001D01*
X134164000Y-59892000D02*
X141986000Y-59892000D01*
X112268000Y-81788000D02*
X134164000Y-59892000D01*
X116840000Y-71120000D02*
X116840000Y-69596000D01*
X116840000Y-69596000D02*
X118872000Y-67564000D01*
X118872000Y-67564000D02*
X124968000Y-67564000D01*
X112390347Y-74045653D02*
X112268000Y-74168000D01*
X116389990Y-70046010D02*
X116389990Y-68268010D01*
X112268000Y-74168000D02*
X116389990Y-70046010D01*
X116389990Y-68268010D02*
X119888000Y-64770000D01*
X141986000Y-75132000D02*
X138886000Y-75132000D01*
X138886000Y-75132000D02*
X130048000Y-66294000D01*
X141206001Y-78451999D02*
X141986000Y-77672000D01*
X136694999Y-82963001D02*
X141206001Y-78451999D01*
X111665001Y-82963001D02*
X136694999Y-82963001D01*
X111092999Y-82390999D02*
X111665001Y-82963001D01*
X111092999Y-72803001D02*
X111092999Y-82390999D01*
X112268000Y-71628000D02*
X111092999Y-72803001D01*
X199731999Y-79589999D02*
X198882000Y-78740000D01*
X200057001Y-79915001D02*
X199731999Y-79589999D01*
X200057001Y-93436999D02*
X200057001Y-79915001D01*
X193294000Y-100200000D02*
X200057001Y-93436999D01*
X116078000Y-66548000D02*
X128778000Y-53848000D01*
X112268000Y-66548000D02*
X116078000Y-66548000D01*
X132282000Y-57352000D02*
X141986000Y-57352000D01*
X128778000Y-53848000D02*
X132282000Y-57352000D01*
X164846000Y-72592000D02*
X167386000Y-70052000D01*
X141986000Y-72592000D02*
X164846000Y-72592000D01*
X168491001Y-58457001D02*
X167386000Y-57352000D01*
X198882000Y-83508922D02*
X181111921Y-101279001D01*
X181111921Y-101279001D02*
X171959999Y-101279001D01*
X171959999Y-101279001D02*
X168491001Y-97810003D01*
X198882000Y-81280000D02*
X198882000Y-83508922D01*
X168491001Y-97810003D02*
X168491001Y-58457001D01*
X126238000Y-54948000D02*
X126238000Y-53848000D01*
X117178000Y-64008000D02*
X126238000Y-54948000D01*
X112268000Y-64008000D02*
X117178000Y-64008000D01*
X126313001Y-52672999D02*
X126238000Y-52748000D01*
X162706999Y-52672999D02*
X126313001Y-52672999D01*
X126238000Y-52748000D02*
X126238000Y-53848000D01*
X167386000Y-57352000D02*
X162706999Y-52672999D01*
X142765999Y-69272001D02*
X141986000Y-70052000D01*
X143541011Y-68496989D02*
X142765999Y-69272001D01*
X143541011Y-56635199D02*
X143541011Y-68496989D01*
X140753812Y-53848000D02*
X143541011Y-56635199D01*
X133858000Y-53848000D02*
X140753812Y-53848000D01*
X142765999Y-61652001D02*
X141986000Y-62432000D01*
X142516401Y-56246999D02*
X143091001Y-56821599D01*
X143091001Y-56821599D02*
X143091001Y-61326999D01*
X133716999Y-56246999D02*
X142516401Y-56246999D01*
X143091001Y-61326999D02*
X142765999Y-61652001D01*
X131318000Y-53848000D02*
X133716999Y-56246999D01*
X191789001Y-49228999D02*
X189964000Y-51054000D01*
X194170001Y-49228999D02*
X191789001Y-49228999D01*
X195119001Y-50177999D02*
X194170001Y-49228999D01*
X195119001Y-85674999D02*
X195119001Y-50177999D01*
X189964000Y-51054000D02*
X188214000Y-51054000D01*
X180594000Y-100200000D02*
X195119001Y-85674999D01*
X172974000Y-71374000D02*
X193294000Y-51054000D01*
X172974000Y-100200000D02*
X172974000Y-71374000D01*
X186776999Y-104177001D02*
X143091001Y-104177001D01*
X142765999Y-103851999D02*
X141986000Y-103072000D01*
X143091001Y-104177001D02*
X142765999Y-103851999D01*
X190754000Y-100200000D02*
X186776999Y-104177001D01*
M02*
