M48
; DRILL file {KiCad 5.1.4+dfsg1-1} date Sun 19 Jan 2020 02:17:56 PM EST
; FORMAT={-:-/ absolute / inch / decimal}
; #@! TF.CreationDate,2020-01-19T14:17:56-05:00
; #@! TF.GenerationSoftware,Kicad,Pcbnew,5.1.4+dfsg1-1
; #@! TF.FileFunction,Plated,1,2,PTH
FMAT,2
INCH
T1C0.0157
T2C0.0394
T3C0.0409
T4C0.0598
%
G90
G05
T1
X4.6Y-2.8
X4.72Y-2.55
X4.92Y-2.66
X5.12Y-2.61
T2
X4.97Y-2.12
X5.07Y-2.12
X5.17Y-2.12
X5.27Y-2.12
X7.62Y-3.02
X7.62Y-3.12
X7.62Y-3.22
X7.62Y-3.32
X6.81Y-3.9449
X7.11Y-3.9449
X7.51Y-3.9449
X7.61Y-3.9449
X7.83Y-3.1
X7.83Y-3.2
X4.42Y-2.52
X4.42Y-2.62
X4.42Y-2.72
X4.42Y-2.82
X4.42Y-2.92
X4.42Y-3.02
X4.42Y-3.12
X4.42Y-3.22
X4.42Y-3.32
X4.42Y-3.42
X4.42Y-3.52
X4.42Y-3.62
X4.42Y-3.72
X4.42Y-3.82
T3
X5.59Y-2.258
X5.59Y-2.358
X5.59Y-2.458
X5.59Y-2.558
X5.59Y-2.658
X5.59Y-2.758
X5.59Y-2.858
X5.59Y-2.958
X5.59Y-3.058
X5.59Y-3.158
X5.59Y-3.258
X5.59Y-3.358
X5.59Y-3.458
X5.59Y-3.558
X5.59Y-3.658
X5.59Y-3.758
X5.59Y-3.858
X5.59Y-3.958
X5.59Y-4.058
X6.59Y-2.258
X6.59Y-2.358
X6.59Y-2.458
X6.59Y-2.558
X6.59Y-2.658
X6.59Y-2.758
X6.59Y-2.858
X6.59Y-2.958
X6.59Y-3.058
X6.59Y-3.158
X6.59Y-3.258
X6.59Y-3.358
X6.59Y-3.458
X6.59Y-3.558
X6.59Y-3.658
X6.59Y-3.758
X6.59Y-3.858
X6.59Y-3.958
X6.59Y-4.058
T4
X7.41Y-2.01
X7.61Y-2.01
T0
M30
