G04 #@! TF.GenerationSoftware,KiCad,Pcbnew,5.1.4+dfsg1-1*
G04 #@! TF.CreationDate,2020-01-19T14:17:45-05:00*
G04 #@! TF.ProjectId,thermostat_master,74686572-6d6f-4737-9461-745f6d617374,rev?*
G04 #@! TF.SameCoordinates,Original*
G04 #@! TF.FileFunction,Soldermask,Bot*
G04 #@! TF.FilePolarity,Negative*
%FSLAX46Y46*%
G04 Gerber Fmt 4.6, Leading zero omitted, Abs format (unit mm)*
G04 Created by KiCad (PCBNEW 5.1.4+dfsg1-1) date 2020-01-19 14:17:45*
%MOMM*%
%LPD*%
G04 APERTURE LIST*
%ADD10C,0.100000*%
G04 APERTURE END LIST*
D10*
G36*
X168217000Y-103903000D02*
G01*
X166555000Y-103903000D01*
X166555000Y-102241000D01*
X168217000Y-102241000D01*
X168217000Y-103903000D01*
X168217000Y-103903000D01*
G37*
G36*
X142228394Y-102272934D02*
G01*
X142379624Y-102335576D01*
X142379626Y-102335577D01*
X142515732Y-102426520D01*
X142631480Y-102542268D01*
X142722423Y-102678374D01*
X142722424Y-102678376D01*
X142785066Y-102829606D01*
X142817000Y-102990152D01*
X142817000Y-103153848D01*
X142785066Y-103314394D01*
X142722424Y-103465624D01*
X142722423Y-103465626D01*
X142631480Y-103601732D01*
X142515732Y-103717480D01*
X142379626Y-103808423D01*
X142379625Y-103808424D01*
X142379624Y-103808424D01*
X142228394Y-103871066D01*
X142067848Y-103903000D01*
X141904152Y-103903000D01*
X141743606Y-103871066D01*
X141592376Y-103808424D01*
X141592375Y-103808424D01*
X141592374Y-103808423D01*
X141456268Y-103717480D01*
X141340520Y-103601732D01*
X141249577Y-103465626D01*
X141249576Y-103465624D01*
X141186934Y-103314394D01*
X141155000Y-103153848D01*
X141155000Y-102990152D01*
X141186934Y-102829606D01*
X141249576Y-102678376D01*
X141249577Y-102678374D01*
X141340520Y-102542268D01*
X141456268Y-102426520D01*
X141592374Y-102335577D01*
X141592376Y-102335576D01*
X141743606Y-102272934D01*
X141904152Y-102241000D01*
X142067848Y-102241000D01*
X142228394Y-102272934D01*
X142228394Y-102272934D01*
G37*
G36*
X142228394Y-99732934D02*
G01*
X142379624Y-99795576D01*
X142379626Y-99795577D01*
X142515732Y-99886520D01*
X142631480Y-100002268D01*
X142710622Y-100120713D01*
X142722424Y-100138376D01*
X142785066Y-100289606D01*
X142817000Y-100450152D01*
X142817000Y-100613848D01*
X142785066Y-100774394D01*
X142727495Y-100913382D01*
X142722423Y-100925626D01*
X142631480Y-101061732D01*
X142515732Y-101177480D01*
X142379626Y-101268423D01*
X142379625Y-101268424D01*
X142379624Y-101268424D01*
X142228394Y-101331066D01*
X142067848Y-101363000D01*
X141904152Y-101363000D01*
X141743606Y-101331066D01*
X141592376Y-101268424D01*
X141592375Y-101268424D01*
X141592374Y-101268423D01*
X141456268Y-101177480D01*
X141340520Y-101061732D01*
X141249577Y-100925626D01*
X141244505Y-100913382D01*
X141186934Y-100774394D01*
X141155000Y-100613848D01*
X141155000Y-100450152D01*
X141186934Y-100289606D01*
X141249576Y-100138376D01*
X141261378Y-100120713D01*
X141340520Y-100002268D01*
X141456268Y-99886520D01*
X141592374Y-99795577D01*
X141592376Y-99795576D01*
X141743606Y-99732934D01*
X141904152Y-99701000D01*
X142067848Y-99701000D01*
X142228394Y-99732934D01*
X142228394Y-99732934D01*
G37*
G36*
X167628394Y-99732934D02*
G01*
X167779624Y-99795576D01*
X167779626Y-99795577D01*
X167915732Y-99886520D01*
X168031480Y-100002268D01*
X168110622Y-100120713D01*
X168122424Y-100138376D01*
X168185066Y-100289606D01*
X168217000Y-100450152D01*
X168217000Y-100613848D01*
X168185066Y-100774394D01*
X168127495Y-100913382D01*
X168122423Y-100925626D01*
X168031480Y-101061732D01*
X167915732Y-101177480D01*
X167779626Y-101268423D01*
X167779625Y-101268424D01*
X167779624Y-101268424D01*
X167628394Y-101331066D01*
X167467848Y-101363000D01*
X167304152Y-101363000D01*
X167143606Y-101331066D01*
X166992376Y-101268424D01*
X166992375Y-101268424D01*
X166992374Y-101268423D01*
X166856268Y-101177480D01*
X166740520Y-101061732D01*
X166649577Y-100925626D01*
X166644505Y-100913382D01*
X166586934Y-100774394D01*
X166555000Y-100613848D01*
X166555000Y-100450152D01*
X166586934Y-100289606D01*
X166649576Y-100138376D01*
X166661378Y-100120713D01*
X166740520Y-100002268D01*
X166856268Y-99886520D01*
X166992374Y-99795577D01*
X166992376Y-99795576D01*
X167143606Y-99732934D01*
X167304152Y-99701000D01*
X167467848Y-99701000D01*
X167628394Y-99732934D01*
X167628394Y-99732934D01*
G37*
G36*
X190988810Y-99425935D02*
G01*
X191135309Y-99486617D01*
X191135310Y-99486618D01*
X191267158Y-99574716D01*
X191379284Y-99686842D01*
X191379285Y-99686844D01*
X191467383Y-99818691D01*
X191528065Y-99965190D01*
X191559000Y-100120713D01*
X191559000Y-100279287D01*
X191528065Y-100434810D01*
X191467383Y-100581309D01*
X191467382Y-100581310D01*
X191379284Y-100713158D01*
X191267158Y-100825284D01*
X191200785Y-100869633D01*
X191135309Y-100913383D01*
X190988810Y-100974065D01*
X190833287Y-101005000D01*
X190674713Y-101005000D01*
X190519190Y-100974065D01*
X190372691Y-100913383D01*
X190307215Y-100869633D01*
X190240842Y-100825284D01*
X190128716Y-100713158D01*
X190040618Y-100581310D01*
X190040617Y-100581309D01*
X189979935Y-100434810D01*
X189949000Y-100279287D01*
X189949000Y-100120713D01*
X189979935Y-99965190D01*
X190040617Y-99818691D01*
X190128715Y-99686844D01*
X190128716Y-99686842D01*
X190240842Y-99574716D01*
X190372690Y-99486618D01*
X190372691Y-99486617D01*
X190519190Y-99425935D01*
X190674713Y-99395000D01*
X190833287Y-99395000D01*
X190988810Y-99425935D01*
X190988810Y-99425935D01*
G37*
G36*
X193528810Y-99425935D02*
G01*
X193675309Y-99486617D01*
X193675310Y-99486618D01*
X193807158Y-99574716D01*
X193919284Y-99686842D01*
X193919285Y-99686844D01*
X194007383Y-99818691D01*
X194068065Y-99965190D01*
X194099000Y-100120713D01*
X194099000Y-100279287D01*
X194068065Y-100434810D01*
X194007383Y-100581309D01*
X194007382Y-100581310D01*
X193919284Y-100713158D01*
X193807158Y-100825284D01*
X193740785Y-100869633D01*
X193675309Y-100913383D01*
X193528810Y-100974065D01*
X193373287Y-101005000D01*
X193214713Y-101005000D01*
X193059190Y-100974065D01*
X192912691Y-100913383D01*
X192847215Y-100869633D01*
X192780842Y-100825284D01*
X192668716Y-100713158D01*
X192580618Y-100581310D01*
X192580617Y-100581309D01*
X192519935Y-100434810D01*
X192489000Y-100279287D01*
X192489000Y-100120713D01*
X192519935Y-99965190D01*
X192580617Y-99818691D01*
X192668715Y-99686844D01*
X192668716Y-99686842D01*
X192780842Y-99574716D01*
X192912690Y-99486618D01*
X192912691Y-99486617D01*
X193059190Y-99425935D01*
X193214713Y-99395000D01*
X193373287Y-99395000D01*
X193528810Y-99425935D01*
X193528810Y-99425935D01*
G37*
G36*
X180828810Y-99425935D02*
G01*
X180975309Y-99486617D01*
X180975310Y-99486618D01*
X181107158Y-99574716D01*
X181219284Y-99686842D01*
X181219285Y-99686844D01*
X181307383Y-99818691D01*
X181368065Y-99965190D01*
X181399000Y-100120713D01*
X181399000Y-100279287D01*
X181368065Y-100434810D01*
X181307383Y-100581309D01*
X181307382Y-100581310D01*
X181219284Y-100713158D01*
X181107158Y-100825284D01*
X181040785Y-100869633D01*
X180975309Y-100913383D01*
X180828810Y-100974065D01*
X180673287Y-101005000D01*
X180514713Y-101005000D01*
X180359190Y-100974065D01*
X180212691Y-100913383D01*
X180147215Y-100869633D01*
X180080842Y-100825284D01*
X179968716Y-100713158D01*
X179880618Y-100581310D01*
X179880617Y-100581309D01*
X179819935Y-100434810D01*
X179789000Y-100279287D01*
X179789000Y-100120713D01*
X179819935Y-99965190D01*
X179880617Y-99818691D01*
X179968715Y-99686844D01*
X179968716Y-99686842D01*
X180080842Y-99574716D01*
X180212690Y-99486618D01*
X180212691Y-99486617D01*
X180359190Y-99425935D01*
X180514713Y-99395000D01*
X180673287Y-99395000D01*
X180828810Y-99425935D01*
X180828810Y-99425935D01*
G37*
G36*
X173779000Y-101005000D02*
G01*
X172169000Y-101005000D01*
X172169000Y-99395000D01*
X173779000Y-99395000D01*
X173779000Y-101005000D01*
X173779000Y-101005000D01*
G37*
G36*
X167628394Y-97192934D02*
G01*
X167779624Y-97255576D01*
X167779626Y-97255577D01*
X167915732Y-97346520D01*
X168031480Y-97462268D01*
X168122423Y-97598374D01*
X168122424Y-97598376D01*
X168185066Y-97749606D01*
X168217000Y-97910152D01*
X168217000Y-98073848D01*
X168185066Y-98234394D01*
X168122424Y-98385624D01*
X168122423Y-98385626D01*
X168031480Y-98521732D01*
X167915732Y-98637480D01*
X167779626Y-98728423D01*
X167779625Y-98728424D01*
X167779624Y-98728424D01*
X167628394Y-98791066D01*
X167467848Y-98823000D01*
X167304152Y-98823000D01*
X167143606Y-98791066D01*
X166992376Y-98728424D01*
X166992375Y-98728424D01*
X166992374Y-98728423D01*
X166856268Y-98637480D01*
X166740520Y-98521732D01*
X166649577Y-98385626D01*
X166649576Y-98385624D01*
X166586934Y-98234394D01*
X166555000Y-98073848D01*
X166555000Y-97910152D01*
X166586934Y-97749606D01*
X166649576Y-97598376D01*
X166649577Y-97598374D01*
X166740520Y-97462268D01*
X166856268Y-97346520D01*
X166992374Y-97255577D01*
X166992376Y-97255576D01*
X167143606Y-97192934D01*
X167304152Y-97161000D01*
X167467848Y-97161000D01*
X167628394Y-97192934D01*
X167628394Y-97192934D01*
G37*
G36*
X142228394Y-97192934D02*
G01*
X142379624Y-97255576D01*
X142379626Y-97255577D01*
X142515732Y-97346520D01*
X142631480Y-97462268D01*
X142722423Y-97598374D01*
X142722424Y-97598376D01*
X142785066Y-97749606D01*
X142817000Y-97910152D01*
X142817000Y-98073848D01*
X142785066Y-98234394D01*
X142722424Y-98385624D01*
X142722423Y-98385626D01*
X142631480Y-98521732D01*
X142515732Y-98637480D01*
X142379626Y-98728423D01*
X142379625Y-98728424D01*
X142379624Y-98728424D01*
X142228394Y-98791066D01*
X142067848Y-98823000D01*
X141904152Y-98823000D01*
X141743606Y-98791066D01*
X141592376Y-98728424D01*
X141592375Y-98728424D01*
X141592374Y-98728423D01*
X141456268Y-98637480D01*
X141340520Y-98521732D01*
X141249577Y-98385626D01*
X141249576Y-98385624D01*
X141186934Y-98234394D01*
X141155000Y-98073848D01*
X141155000Y-97910152D01*
X141186934Y-97749606D01*
X141249576Y-97598376D01*
X141249577Y-97598374D01*
X141340520Y-97462268D01*
X141456268Y-97346520D01*
X141592374Y-97255577D01*
X141592376Y-97255576D01*
X141743606Y-97192934D01*
X141904152Y-97161000D01*
X142067848Y-97161000D01*
X142228394Y-97192934D01*
X142228394Y-97192934D01*
G37*
G36*
X113169000Y-97929000D02*
G01*
X111367000Y-97929000D01*
X111367000Y-96127000D01*
X113169000Y-96127000D01*
X113169000Y-97929000D01*
X113169000Y-97929000D01*
G37*
G36*
X142228394Y-94652934D02*
G01*
X142379624Y-94715576D01*
X142379626Y-94715577D01*
X142515732Y-94806520D01*
X142631480Y-94922268D01*
X142677399Y-94990991D01*
X142722424Y-95058376D01*
X142785066Y-95209606D01*
X142817000Y-95370152D01*
X142817000Y-95533848D01*
X142785066Y-95694394D01*
X142722424Y-95845624D01*
X142722423Y-95845626D01*
X142631480Y-95981732D01*
X142515732Y-96097480D01*
X142379626Y-96188423D01*
X142379625Y-96188424D01*
X142379624Y-96188424D01*
X142228394Y-96251066D01*
X142067848Y-96283000D01*
X141904152Y-96283000D01*
X141743606Y-96251066D01*
X141592376Y-96188424D01*
X141592375Y-96188424D01*
X141592374Y-96188423D01*
X141456268Y-96097480D01*
X141340520Y-95981732D01*
X141249577Y-95845626D01*
X141249576Y-95845624D01*
X141186934Y-95694394D01*
X141155000Y-95533848D01*
X141155000Y-95370152D01*
X141186934Y-95209606D01*
X141249576Y-95058376D01*
X141294601Y-94990991D01*
X141340520Y-94922268D01*
X141456268Y-94806520D01*
X141592374Y-94715577D01*
X141592376Y-94715576D01*
X141743606Y-94652934D01*
X141904152Y-94621000D01*
X142067848Y-94621000D01*
X142228394Y-94652934D01*
X142228394Y-94652934D01*
G37*
G36*
X167628394Y-94652934D02*
G01*
X167779624Y-94715576D01*
X167779626Y-94715577D01*
X167915732Y-94806520D01*
X168031480Y-94922268D01*
X168077399Y-94990991D01*
X168122424Y-95058376D01*
X168185066Y-95209606D01*
X168217000Y-95370152D01*
X168217000Y-95533848D01*
X168185066Y-95694394D01*
X168122424Y-95845624D01*
X168122423Y-95845626D01*
X168031480Y-95981732D01*
X167915732Y-96097480D01*
X167779626Y-96188423D01*
X167779625Y-96188424D01*
X167779624Y-96188424D01*
X167628394Y-96251066D01*
X167467848Y-96283000D01*
X167304152Y-96283000D01*
X167143606Y-96251066D01*
X166992376Y-96188424D01*
X166992375Y-96188424D01*
X166992374Y-96188423D01*
X166856268Y-96097480D01*
X166740520Y-95981732D01*
X166649577Y-95845626D01*
X166649576Y-95845624D01*
X166586934Y-95694394D01*
X166555000Y-95533848D01*
X166555000Y-95370152D01*
X166586934Y-95209606D01*
X166649576Y-95058376D01*
X166694601Y-94990991D01*
X166740520Y-94922268D01*
X166856268Y-94806520D01*
X166992374Y-94715577D01*
X166992376Y-94715576D01*
X167143606Y-94652934D01*
X167304152Y-94621000D01*
X167467848Y-94621000D01*
X167628394Y-94652934D01*
X167628394Y-94652934D01*
G37*
G36*
X112378442Y-93593518D02*
G01*
X112444627Y-93600037D01*
X112614466Y-93651557D01*
X112770991Y-93735222D01*
X112780468Y-93743000D01*
X112908186Y-93847814D01*
X112991448Y-93949271D01*
X113020778Y-93985009D01*
X113104443Y-94141534D01*
X113155963Y-94311373D01*
X113173359Y-94488000D01*
X113155963Y-94664627D01*
X113104443Y-94834466D01*
X113020778Y-94990991D01*
X112991448Y-95026729D01*
X112908186Y-95128186D01*
X112808974Y-95209606D01*
X112770991Y-95240778D01*
X112614466Y-95324443D01*
X112444627Y-95375963D01*
X112378443Y-95382481D01*
X112312260Y-95389000D01*
X112223740Y-95389000D01*
X112157557Y-95382481D01*
X112091373Y-95375963D01*
X111921534Y-95324443D01*
X111765009Y-95240778D01*
X111727026Y-95209606D01*
X111627814Y-95128186D01*
X111544552Y-95026729D01*
X111515222Y-94990991D01*
X111431557Y-94834466D01*
X111380037Y-94664627D01*
X111362641Y-94488000D01*
X111380037Y-94311373D01*
X111431557Y-94141534D01*
X111515222Y-93985009D01*
X111544552Y-93949271D01*
X111627814Y-93847814D01*
X111755532Y-93743000D01*
X111765009Y-93735222D01*
X111921534Y-93651557D01*
X112091373Y-93600037D01*
X112157558Y-93593518D01*
X112223740Y-93587000D01*
X112312260Y-93587000D01*
X112378442Y-93593518D01*
X112378442Y-93593518D01*
G37*
G36*
X142228394Y-92112934D02*
G01*
X142379624Y-92175576D01*
X142379626Y-92175577D01*
X142515732Y-92266520D01*
X142631480Y-92382268D01*
X142677399Y-92450991D01*
X142722424Y-92518376D01*
X142785066Y-92669606D01*
X142817000Y-92830152D01*
X142817000Y-92993848D01*
X142785066Y-93154394D01*
X142722424Y-93305624D01*
X142722423Y-93305626D01*
X142631480Y-93441732D01*
X142515732Y-93557480D01*
X142379626Y-93648423D01*
X142379625Y-93648424D01*
X142379624Y-93648424D01*
X142228394Y-93711066D01*
X142067848Y-93743000D01*
X141904152Y-93743000D01*
X141743606Y-93711066D01*
X141592376Y-93648424D01*
X141592375Y-93648424D01*
X141592374Y-93648423D01*
X141456268Y-93557480D01*
X141340520Y-93441732D01*
X141249577Y-93305626D01*
X141249576Y-93305624D01*
X141186934Y-93154394D01*
X141155000Y-92993848D01*
X141155000Y-92830152D01*
X141186934Y-92669606D01*
X141249576Y-92518376D01*
X141294601Y-92450991D01*
X141340520Y-92382268D01*
X141456268Y-92266520D01*
X141592374Y-92175577D01*
X141592376Y-92175576D01*
X141743606Y-92112934D01*
X141904152Y-92081000D01*
X142067848Y-92081000D01*
X142228394Y-92112934D01*
X142228394Y-92112934D01*
G37*
G36*
X167628394Y-92112934D02*
G01*
X167779624Y-92175576D01*
X167779626Y-92175577D01*
X167915732Y-92266520D01*
X168031480Y-92382268D01*
X168077399Y-92450991D01*
X168122424Y-92518376D01*
X168185066Y-92669606D01*
X168217000Y-92830152D01*
X168217000Y-92993848D01*
X168185066Y-93154394D01*
X168122424Y-93305624D01*
X168122423Y-93305626D01*
X168031480Y-93441732D01*
X167915732Y-93557480D01*
X167779626Y-93648423D01*
X167779625Y-93648424D01*
X167779624Y-93648424D01*
X167628394Y-93711066D01*
X167467848Y-93743000D01*
X167304152Y-93743000D01*
X167143606Y-93711066D01*
X166992376Y-93648424D01*
X166992375Y-93648424D01*
X166992374Y-93648423D01*
X166856268Y-93557480D01*
X166740520Y-93441732D01*
X166649577Y-93305626D01*
X166649576Y-93305624D01*
X166586934Y-93154394D01*
X166555000Y-92993848D01*
X166555000Y-92830152D01*
X166586934Y-92669606D01*
X166649576Y-92518376D01*
X166694601Y-92450991D01*
X166740520Y-92382268D01*
X166856268Y-92266520D01*
X166992374Y-92175577D01*
X166992376Y-92175576D01*
X167143606Y-92112934D01*
X167304152Y-92081000D01*
X167467848Y-92081000D01*
X167628394Y-92112934D01*
X167628394Y-92112934D01*
G37*
G36*
X112378442Y-91053518D02*
G01*
X112444627Y-91060037D01*
X112614466Y-91111557D01*
X112770991Y-91195222D01*
X112780468Y-91203000D01*
X112908186Y-91307814D01*
X112991448Y-91409271D01*
X113020778Y-91445009D01*
X113104443Y-91601534D01*
X113155963Y-91771373D01*
X113173359Y-91948000D01*
X113155963Y-92124627D01*
X113104443Y-92294466D01*
X113020778Y-92450991D01*
X112991448Y-92486729D01*
X112908186Y-92588186D01*
X112808974Y-92669606D01*
X112770991Y-92700778D01*
X112614466Y-92784443D01*
X112444627Y-92835963D01*
X112378442Y-92842482D01*
X112312260Y-92849000D01*
X112223740Y-92849000D01*
X112157558Y-92842482D01*
X112091373Y-92835963D01*
X111921534Y-92784443D01*
X111765009Y-92700778D01*
X111727026Y-92669606D01*
X111627814Y-92588186D01*
X111544552Y-92486729D01*
X111515222Y-92450991D01*
X111431557Y-92294466D01*
X111380037Y-92124627D01*
X111362641Y-91948000D01*
X111380037Y-91771373D01*
X111431557Y-91601534D01*
X111515222Y-91445009D01*
X111544552Y-91409271D01*
X111627814Y-91307814D01*
X111755532Y-91203000D01*
X111765009Y-91195222D01*
X111921534Y-91111557D01*
X112091373Y-91060037D01*
X112157558Y-91053518D01*
X112223740Y-91047000D01*
X112312260Y-91047000D01*
X112378442Y-91053518D01*
X112378442Y-91053518D01*
G37*
G36*
X167628394Y-89572934D02*
G01*
X167779624Y-89635576D01*
X167779626Y-89635577D01*
X167915732Y-89726520D01*
X168031480Y-89842268D01*
X168077399Y-89910991D01*
X168122424Y-89978376D01*
X168185066Y-90129606D01*
X168217000Y-90290152D01*
X168217000Y-90453848D01*
X168185066Y-90614394D01*
X168122424Y-90765624D01*
X168122423Y-90765626D01*
X168031480Y-90901732D01*
X167915732Y-91017480D01*
X167779626Y-91108423D01*
X167779625Y-91108424D01*
X167779624Y-91108424D01*
X167628394Y-91171066D01*
X167467848Y-91203000D01*
X167304152Y-91203000D01*
X167143606Y-91171066D01*
X166992376Y-91108424D01*
X166992375Y-91108424D01*
X166992374Y-91108423D01*
X166856268Y-91017480D01*
X166740520Y-90901732D01*
X166649577Y-90765626D01*
X166649576Y-90765624D01*
X166586934Y-90614394D01*
X166555000Y-90453848D01*
X166555000Y-90290152D01*
X166586934Y-90129606D01*
X166649576Y-89978376D01*
X166694601Y-89910991D01*
X166740520Y-89842268D01*
X166856268Y-89726520D01*
X166992374Y-89635577D01*
X166992376Y-89635576D01*
X167143606Y-89572934D01*
X167304152Y-89541000D01*
X167467848Y-89541000D01*
X167628394Y-89572934D01*
X167628394Y-89572934D01*
G37*
G36*
X142228394Y-89572934D02*
G01*
X142379624Y-89635576D01*
X142379626Y-89635577D01*
X142515732Y-89726520D01*
X142631480Y-89842268D01*
X142677399Y-89910991D01*
X142722424Y-89978376D01*
X142785066Y-90129606D01*
X142817000Y-90290152D01*
X142817000Y-90453848D01*
X142785066Y-90614394D01*
X142722424Y-90765624D01*
X142722423Y-90765626D01*
X142631480Y-90901732D01*
X142515732Y-91017480D01*
X142379626Y-91108423D01*
X142379625Y-91108424D01*
X142379624Y-91108424D01*
X142228394Y-91171066D01*
X142067848Y-91203000D01*
X141904152Y-91203000D01*
X141743606Y-91171066D01*
X141592376Y-91108424D01*
X141592375Y-91108424D01*
X141592374Y-91108423D01*
X141456268Y-91017480D01*
X141340520Y-90901732D01*
X141249577Y-90765626D01*
X141249576Y-90765624D01*
X141186934Y-90614394D01*
X141155000Y-90453848D01*
X141155000Y-90290152D01*
X141186934Y-90129606D01*
X141249576Y-89978376D01*
X141294601Y-89910991D01*
X141340520Y-89842268D01*
X141456268Y-89726520D01*
X141592374Y-89635577D01*
X141592376Y-89635576D01*
X141743606Y-89572934D01*
X141904152Y-89541000D01*
X142067848Y-89541000D01*
X142228394Y-89572934D01*
X142228394Y-89572934D01*
G37*
G36*
X112378443Y-88513519D02*
G01*
X112444627Y-88520037D01*
X112614466Y-88571557D01*
X112770991Y-88655222D01*
X112780468Y-88663000D01*
X112908186Y-88767814D01*
X112991448Y-88869271D01*
X113020778Y-88905009D01*
X113104443Y-89061534D01*
X113155963Y-89231373D01*
X113173359Y-89408000D01*
X113155963Y-89584627D01*
X113104443Y-89754466D01*
X113020778Y-89910991D01*
X112991448Y-89946729D01*
X112908186Y-90048186D01*
X112808974Y-90129606D01*
X112770991Y-90160778D01*
X112614466Y-90244443D01*
X112444627Y-90295963D01*
X112378443Y-90302481D01*
X112312260Y-90309000D01*
X112223740Y-90309000D01*
X112157557Y-90302481D01*
X112091373Y-90295963D01*
X111921534Y-90244443D01*
X111765009Y-90160778D01*
X111727026Y-90129606D01*
X111627814Y-90048186D01*
X111544552Y-89946729D01*
X111515222Y-89910991D01*
X111431557Y-89754466D01*
X111380037Y-89584627D01*
X111362641Y-89408000D01*
X111380037Y-89231373D01*
X111431557Y-89061534D01*
X111515222Y-88905009D01*
X111544552Y-88869271D01*
X111627814Y-88767814D01*
X111755532Y-88663000D01*
X111765009Y-88655222D01*
X111921534Y-88571557D01*
X112091373Y-88520037D01*
X112157557Y-88513519D01*
X112223740Y-88507000D01*
X112312260Y-88507000D01*
X112378443Y-88513519D01*
X112378443Y-88513519D01*
G37*
G36*
X167628394Y-87032934D02*
G01*
X167779624Y-87095576D01*
X167779626Y-87095577D01*
X167915732Y-87186520D01*
X168031480Y-87302268D01*
X168077399Y-87370991D01*
X168122424Y-87438376D01*
X168185066Y-87589606D01*
X168217000Y-87750152D01*
X168217000Y-87913848D01*
X168185066Y-88074394D01*
X168122424Y-88225624D01*
X168122423Y-88225626D01*
X168031480Y-88361732D01*
X167915732Y-88477480D01*
X167779626Y-88568423D01*
X167779625Y-88568424D01*
X167779624Y-88568424D01*
X167628394Y-88631066D01*
X167467848Y-88663000D01*
X167304152Y-88663000D01*
X167143606Y-88631066D01*
X166992376Y-88568424D01*
X166992375Y-88568424D01*
X166992374Y-88568423D01*
X166856268Y-88477480D01*
X166740520Y-88361732D01*
X166649577Y-88225626D01*
X166649576Y-88225624D01*
X166586934Y-88074394D01*
X166555000Y-87913848D01*
X166555000Y-87750152D01*
X166586934Y-87589606D01*
X166649576Y-87438376D01*
X166694601Y-87370991D01*
X166740520Y-87302268D01*
X166856268Y-87186520D01*
X166992374Y-87095577D01*
X166992376Y-87095576D01*
X167143606Y-87032934D01*
X167304152Y-87001000D01*
X167467848Y-87001000D01*
X167628394Y-87032934D01*
X167628394Y-87032934D01*
G37*
G36*
X142228394Y-87032934D02*
G01*
X142379624Y-87095576D01*
X142379626Y-87095577D01*
X142515732Y-87186520D01*
X142631480Y-87302268D01*
X142677399Y-87370991D01*
X142722424Y-87438376D01*
X142785066Y-87589606D01*
X142817000Y-87750152D01*
X142817000Y-87913848D01*
X142785066Y-88074394D01*
X142722424Y-88225624D01*
X142722423Y-88225626D01*
X142631480Y-88361732D01*
X142515732Y-88477480D01*
X142379626Y-88568423D01*
X142379625Y-88568424D01*
X142379624Y-88568424D01*
X142228394Y-88631066D01*
X142067848Y-88663000D01*
X141904152Y-88663000D01*
X141743606Y-88631066D01*
X141592376Y-88568424D01*
X141592375Y-88568424D01*
X141592374Y-88568423D01*
X141456268Y-88477480D01*
X141340520Y-88361732D01*
X141249577Y-88225626D01*
X141249576Y-88225624D01*
X141186934Y-88074394D01*
X141155000Y-87913848D01*
X141155000Y-87750152D01*
X141186934Y-87589606D01*
X141249576Y-87438376D01*
X141294601Y-87370991D01*
X141340520Y-87302268D01*
X141456268Y-87186520D01*
X141592374Y-87095577D01*
X141592376Y-87095576D01*
X141743606Y-87032934D01*
X141904152Y-87001000D01*
X142067848Y-87001000D01*
X142228394Y-87032934D01*
X142228394Y-87032934D01*
G37*
G36*
X112378443Y-85973519D02*
G01*
X112444627Y-85980037D01*
X112614466Y-86031557D01*
X112770991Y-86115222D01*
X112780468Y-86123000D01*
X112908186Y-86227814D01*
X112991448Y-86329271D01*
X113020778Y-86365009D01*
X113104443Y-86521534D01*
X113155963Y-86691373D01*
X113173359Y-86868000D01*
X113155963Y-87044627D01*
X113104443Y-87214466D01*
X113020778Y-87370991D01*
X112991448Y-87406729D01*
X112908186Y-87508186D01*
X112808974Y-87589606D01*
X112770991Y-87620778D01*
X112614466Y-87704443D01*
X112444627Y-87755963D01*
X112378442Y-87762482D01*
X112312260Y-87769000D01*
X112223740Y-87769000D01*
X112157558Y-87762482D01*
X112091373Y-87755963D01*
X111921534Y-87704443D01*
X111765009Y-87620778D01*
X111727026Y-87589606D01*
X111627814Y-87508186D01*
X111544552Y-87406729D01*
X111515222Y-87370991D01*
X111431557Y-87214466D01*
X111380037Y-87044627D01*
X111362641Y-86868000D01*
X111380037Y-86691373D01*
X111431557Y-86521534D01*
X111515222Y-86365009D01*
X111544552Y-86329271D01*
X111627814Y-86227814D01*
X111755532Y-86123000D01*
X111765009Y-86115222D01*
X111921534Y-86031557D01*
X112091373Y-85980037D01*
X112157557Y-85973519D01*
X112223740Y-85967000D01*
X112312260Y-85967000D01*
X112378443Y-85973519D01*
X112378443Y-85973519D01*
G37*
G36*
X167628394Y-84492934D02*
G01*
X167779624Y-84555576D01*
X167779626Y-84555577D01*
X167915732Y-84646520D01*
X168031480Y-84762268D01*
X168077399Y-84830991D01*
X168122424Y-84898376D01*
X168185066Y-85049606D01*
X168217000Y-85210152D01*
X168217000Y-85373848D01*
X168185066Y-85534394D01*
X168122424Y-85685624D01*
X168122423Y-85685626D01*
X168031480Y-85821732D01*
X167915732Y-85937480D01*
X167779626Y-86028423D01*
X167779625Y-86028424D01*
X167779624Y-86028424D01*
X167628394Y-86091066D01*
X167467848Y-86123000D01*
X167304152Y-86123000D01*
X167143606Y-86091066D01*
X166992376Y-86028424D01*
X166992375Y-86028424D01*
X166992374Y-86028423D01*
X166856268Y-85937480D01*
X166740520Y-85821732D01*
X166649577Y-85685626D01*
X166649576Y-85685624D01*
X166586934Y-85534394D01*
X166555000Y-85373848D01*
X166555000Y-85210152D01*
X166586934Y-85049606D01*
X166649576Y-84898376D01*
X166694601Y-84830991D01*
X166740520Y-84762268D01*
X166856268Y-84646520D01*
X166992374Y-84555577D01*
X166992376Y-84555576D01*
X167143606Y-84492934D01*
X167304152Y-84461000D01*
X167467848Y-84461000D01*
X167628394Y-84492934D01*
X167628394Y-84492934D01*
G37*
G36*
X142228394Y-84492934D02*
G01*
X142379624Y-84555576D01*
X142379626Y-84555577D01*
X142515732Y-84646520D01*
X142631480Y-84762268D01*
X142677399Y-84830991D01*
X142722424Y-84898376D01*
X142785066Y-85049606D01*
X142817000Y-85210152D01*
X142817000Y-85373848D01*
X142785066Y-85534394D01*
X142722424Y-85685624D01*
X142722423Y-85685626D01*
X142631480Y-85821732D01*
X142515732Y-85937480D01*
X142379626Y-86028423D01*
X142379625Y-86028424D01*
X142379624Y-86028424D01*
X142228394Y-86091066D01*
X142067848Y-86123000D01*
X141904152Y-86123000D01*
X141743606Y-86091066D01*
X141592376Y-86028424D01*
X141592375Y-86028424D01*
X141592374Y-86028423D01*
X141456268Y-85937480D01*
X141340520Y-85821732D01*
X141249577Y-85685626D01*
X141249576Y-85685624D01*
X141186934Y-85534394D01*
X141155000Y-85373848D01*
X141155000Y-85210152D01*
X141186934Y-85049606D01*
X141249576Y-84898376D01*
X141294601Y-84830991D01*
X141340520Y-84762268D01*
X141456268Y-84646520D01*
X141592374Y-84555577D01*
X141592376Y-84555576D01*
X141743606Y-84492934D01*
X141904152Y-84461000D01*
X142067848Y-84461000D01*
X142228394Y-84492934D01*
X142228394Y-84492934D01*
G37*
G36*
X112378443Y-83433519D02*
G01*
X112444627Y-83440037D01*
X112614466Y-83491557D01*
X112770991Y-83575222D01*
X112780468Y-83583000D01*
X112908186Y-83687814D01*
X112991448Y-83789271D01*
X113020778Y-83825009D01*
X113104443Y-83981534D01*
X113155963Y-84151373D01*
X113173359Y-84328000D01*
X113155963Y-84504627D01*
X113104443Y-84674466D01*
X113020778Y-84830991D01*
X112991448Y-84866729D01*
X112908186Y-84968186D01*
X112808974Y-85049606D01*
X112770991Y-85080778D01*
X112614466Y-85164443D01*
X112444627Y-85215963D01*
X112378443Y-85222481D01*
X112312260Y-85229000D01*
X112223740Y-85229000D01*
X112157557Y-85222481D01*
X112091373Y-85215963D01*
X111921534Y-85164443D01*
X111765009Y-85080778D01*
X111727026Y-85049606D01*
X111627814Y-84968186D01*
X111544552Y-84866729D01*
X111515222Y-84830991D01*
X111431557Y-84674466D01*
X111380037Y-84504627D01*
X111362641Y-84328000D01*
X111380037Y-84151373D01*
X111431557Y-83981534D01*
X111515222Y-83825009D01*
X111544552Y-83789271D01*
X111627814Y-83687814D01*
X111755532Y-83583000D01*
X111765009Y-83575222D01*
X111921534Y-83491557D01*
X112091373Y-83440037D01*
X112157557Y-83433519D01*
X112223740Y-83427000D01*
X112312260Y-83427000D01*
X112378443Y-83433519D01*
X112378443Y-83433519D01*
G37*
G36*
X194449000Y-85229000D02*
G01*
X192647000Y-85229000D01*
X192647000Y-83427000D01*
X194449000Y-83427000D01*
X194449000Y-85229000D01*
X194449000Y-85229000D01*
G37*
G36*
X167628394Y-81952934D02*
G01*
X167779624Y-82015576D01*
X167779626Y-82015577D01*
X167915732Y-82106520D01*
X168031480Y-82222268D01*
X168077399Y-82290991D01*
X168122424Y-82358376D01*
X168185066Y-82509606D01*
X168217000Y-82670152D01*
X168217000Y-82833848D01*
X168185066Y-82994394D01*
X168122424Y-83145624D01*
X168122423Y-83145626D01*
X168031480Y-83281732D01*
X167915732Y-83397480D01*
X167779626Y-83488423D01*
X167779625Y-83488424D01*
X167779624Y-83488424D01*
X167628394Y-83551066D01*
X167467848Y-83583000D01*
X167304152Y-83583000D01*
X167143606Y-83551066D01*
X166992376Y-83488424D01*
X166992375Y-83488424D01*
X166992374Y-83488423D01*
X166856268Y-83397480D01*
X166740520Y-83281732D01*
X166649577Y-83145626D01*
X166649576Y-83145624D01*
X166586934Y-82994394D01*
X166555000Y-82833848D01*
X166555000Y-82670152D01*
X166586934Y-82509606D01*
X166649576Y-82358376D01*
X166694601Y-82290991D01*
X166740520Y-82222268D01*
X166856268Y-82106520D01*
X166992374Y-82015577D01*
X166992376Y-82015576D01*
X167143606Y-81952934D01*
X167304152Y-81921000D01*
X167467848Y-81921000D01*
X167628394Y-81952934D01*
X167628394Y-81952934D01*
G37*
G36*
X142228394Y-81952934D02*
G01*
X142379624Y-82015576D01*
X142379626Y-82015577D01*
X142515732Y-82106520D01*
X142631480Y-82222268D01*
X142677399Y-82290991D01*
X142722424Y-82358376D01*
X142785066Y-82509606D01*
X142817000Y-82670152D01*
X142817000Y-82833848D01*
X142785066Y-82994394D01*
X142722424Y-83145624D01*
X142722423Y-83145626D01*
X142631480Y-83281732D01*
X142515732Y-83397480D01*
X142379626Y-83488423D01*
X142379625Y-83488424D01*
X142379624Y-83488424D01*
X142228394Y-83551066D01*
X142067848Y-83583000D01*
X141904152Y-83583000D01*
X141743606Y-83551066D01*
X141592376Y-83488424D01*
X141592375Y-83488424D01*
X141592374Y-83488423D01*
X141456268Y-83397480D01*
X141340520Y-83281732D01*
X141249577Y-83145626D01*
X141249576Y-83145624D01*
X141186934Y-82994394D01*
X141155000Y-82833848D01*
X141155000Y-82670152D01*
X141186934Y-82509606D01*
X141249576Y-82358376D01*
X141294601Y-82290991D01*
X141340520Y-82222268D01*
X141456268Y-82106520D01*
X141592374Y-82015577D01*
X141592376Y-82015576D01*
X141743606Y-81952934D01*
X141904152Y-81921000D01*
X142067848Y-81921000D01*
X142228394Y-81952934D01*
X142228394Y-81952934D01*
G37*
G36*
X112378442Y-80893518D02*
G01*
X112444627Y-80900037D01*
X112614466Y-80951557D01*
X112770991Y-81035222D01*
X112780468Y-81043000D01*
X112908186Y-81147814D01*
X112991448Y-81249271D01*
X113020778Y-81285009D01*
X113104443Y-81441534D01*
X113155963Y-81611373D01*
X113173359Y-81788000D01*
X113155963Y-81964627D01*
X113104443Y-82134466D01*
X113020778Y-82290991D01*
X112991448Y-82326729D01*
X112908186Y-82428186D01*
X112808974Y-82509606D01*
X112770991Y-82540778D01*
X112614466Y-82624443D01*
X112444627Y-82675963D01*
X112378442Y-82682482D01*
X112312260Y-82689000D01*
X112223740Y-82689000D01*
X112157558Y-82682482D01*
X112091373Y-82675963D01*
X111921534Y-82624443D01*
X111765009Y-82540778D01*
X111727026Y-82509606D01*
X111627814Y-82428186D01*
X111544552Y-82326729D01*
X111515222Y-82290991D01*
X111431557Y-82134466D01*
X111380037Y-81964627D01*
X111362641Y-81788000D01*
X111380037Y-81611373D01*
X111431557Y-81441534D01*
X111515222Y-81285009D01*
X111544552Y-81249271D01*
X111627814Y-81147814D01*
X111755532Y-81043000D01*
X111765009Y-81035222D01*
X111921534Y-80951557D01*
X112091373Y-80900037D01*
X112157558Y-80893518D01*
X112223740Y-80887000D01*
X112312260Y-80887000D01*
X112378442Y-80893518D01*
X112378442Y-80893518D01*
G37*
G36*
X193658442Y-80893518D02*
G01*
X193724627Y-80900037D01*
X193894466Y-80951557D01*
X194050991Y-81035222D01*
X194060468Y-81043000D01*
X194188186Y-81147814D01*
X194271448Y-81249271D01*
X194300778Y-81285009D01*
X194384443Y-81441534D01*
X194435963Y-81611373D01*
X194453359Y-81788000D01*
X194435963Y-81964627D01*
X194384443Y-82134466D01*
X194300778Y-82290991D01*
X194271448Y-82326729D01*
X194188186Y-82428186D01*
X194088974Y-82509606D01*
X194050991Y-82540778D01*
X193894466Y-82624443D01*
X193724627Y-82675963D01*
X193658442Y-82682482D01*
X193592260Y-82689000D01*
X193503740Y-82689000D01*
X193437558Y-82682482D01*
X193371373Y-82675963D01*
X193201534Y-82624443D01*
X193045009Y-82540778D01*
X193007026Y-82509606D01*
X192907814Y-82428186D01*
X192824552Y-82326729D01*
X192795222Y-82290991D01*
X192711557Y-82134466D01*
X192660037Y-81964627D01*
X192642641Y-81788000D01*
X192660037Y-81611373D01*
X192711557Y-81441534D01*
X192795222Y-81285009D01*
X192824552Y-81249271D01*
X192907814Y-81147814D01*
X193035532Y-81043000D01*
X193045009Y-81035222D01*
X193201534Y-80951557D01*
X193371373Y-80900037D01*
X193437558Y-80893518D01*
X193503740Y-80887000D01*
X193592260Y-80887000D01*
X193658442Y-80893518D01*
X193658442Y-80893518D01*
G37*
G36*
X199783000Y-82181000D02*
G01*
X197981000Y-82181000D01*
X197981000Y-80379000D01*
X199783000Y-80379000D01*
X199783000Y-82181000D01*
X199783000Y-82181000D01*
G37*
G36*
X167628394Y-79412934D02*
G01*
X167779624Y-79475576D01*
X167779626Y-79475577D01*
X167915732Y-79566520D01*
X168031480Y-79682268D01*
X168077399Y-79750991D01*
X168122424Y-79818376D01*
X168185066Y-79969606D01*
X168217000Y-80130152D01*
X168217000Y-80293848D01*
X168185066Y-80454394D01*
X168122424Y-80605624D01*
X168122423Y-80605626D01*
X168031480Y-80741732D01*
X167915732Y-80857480D01*
X167779626Y-80948423D01*
X167779625Y-80948424D01*
X167779624Y-80948424D01*
X167628394Y-81011066D01*
X167467848Y-81043000D01*
X167304152Y-81043000D01*
X167143606Y-81011066D01*
X166992376Y-80948424D01*
X166992375Y-80948424D01*
X166992374Y-80948423D01*
X166856268Y-80857480D01*
X166740520Y-80741732D01*
X166649577Y-80605626D01*
X166649576Y-80605624D01*
X166586934Y-80454394D01*
X166555000Y-80293848D01*
X166555000Y-80130152D01*
X166586934Y-79969606D01*
X166649576Y-79818376D01*
X166694601Y-79750991D01*
X166740520Y-79682268D01*
X166856268Y-79566520D01*
X166992374Y-79475577D01*
X166992376Y-79475576D01*
X167143606Y-79412934D01*
X167304152Y-79381000D01*
X167467848Y-79381000D01*
X167628394Y-79412934D01*
X167628394Y-79412934D01*
G37*
G36*
X142228394Y-79412934D02*
G01*
X142379624Y-79475576D01*
X142379626Y-79475577D01*
X142515732Y-79566520D01*
X142631480Y-79682268D01*
X142677399Y-79750991D01*
X142722424Y-79818376D01*
X142785066Y-79969606D01*
X142817000Y-80130152D01*
X142817000Y-80293848D01*
X142785066Y-80454394D01*
X142722424Y-80605624D01*
X142722423Y-80605626D01*
X142631480Y-80741732D01*
X142515732Y-80857480D01*
X142379626Y-80948423D01*
X142379625Y-80948424D01*
X142379624Y-80948424D01*
X142228394Y-81011066D01*
X142067848Y-81043000D01*
X141904152Y-81043000D01*
X141743606Y-81011066D01*
X141592376Y-80948424D01*
X141592375Y-80948424D01*
X141592374Y-80948423D01*
X141456268Y-80857480D01*
X141340520Y-80741732D01*
X141249577Y-80605626D01*
X141249576Y-80605624D01*
X141186934Y-80454394D01*
X141155000Y-80293848D01*
X141155000Y-80130152D01*
X141186934Y-79969606D01*
X141249576Y-79818376D01*
X141294601Y-79750991D01*
X141340520Y-79682268D01*
X141456268Y-79566520D01*
X141592374Y-79475577D01*
X141592376Y-79475576D01*
X141743606Y-79412934D01*
X141904152Y-79381000D01*
X142067848Y-79381000D01*
X142228394Y-79412934D01*
X142228394Y-79412934D01*
G37*
G36*
X112378443Y-78353519D02*
G01*
X112444627Y-78360037D01*
X112614466Y-78411557D01*
X112770991Y-78495222D01*
X112780468Y-78503000D01*
X112908186Y-78607814D01*
X112991448Y-78709271D01*
X113020778Y-78745009D01*
X113104443Y-78901534D01*
X113155963Y-79071373D01*
X113173359Y-79248000D01*
X113155963Y-79424627D01*
X113104443Y-79594466D01*
X113020778Y-79750991D01*
X112991448Y-79786729D01*
X112908186Y-79888186D01*
X112808974Y-79969606D01*
X112770991Y-80000778D01*
X112614466Y-80084443D01*
X112444627Y-80135963D01*
X112378443Y-80142481D01*
X112312260Y-80149000D01*
X112223740Y-80149000D01*
X112157557Y-80142481D01*
X112091373Y-80135963D01*
X111921534Y-80084443D01*
X111765009Y-80000778D01*
X111727026Y-79969606D01*
X111627814Y-79888186D01*
X111544552Y-79786729D01*
X111515222Y-79750991D01*
X111431557Y-79594466D01*
X111380037Y-79424627D01*
X111362641Y-79248000D01*
X111380037Y-79071373D01*
X111431557Y-78901534D01*
X111515222Y-78745009D01*
X111544552Y-78709271D01*
X111627814Y-78607814D01*
X111755532Y-78503000D01*
X111765009Y-78495222D01*
X111921534Y-78411557D01*
X112091373Y-78360037D01*
X112157557Y-78353519D01*
X112223740Y-78347000D01*
X112312260Y-78347000D01*
X112378443Y-78353519D01*
X112378443Y-78353519D01*
G37*
G36*
X193658443Y-78353519D02*
G01*
X193724627Y-78360037D01*
X193894466Y-78411557D01*
X194050991Y-78495222D01*
X194060468Y-78503000D01*
X194188186Y-78607814D01*
X194271448Y-78709271D01*
X194300778Y-78745009D01*
X194384443Y-78901534D01*
X194435963Y-79071373D01*
X194453359Y-79248000D01*
X194435963Y-79424627D01*
X194384443Y-79594466D01*
X194300778Y-79750991D01*
X194271448Y-79786729D01*
X194188186Y-79888186D01*
X194088974Y-79969606D01*
X194050991Y-80000778D01*
X193894466Y-80084443D01*
X193724627Y-80135963D01*
X193658443Y-80142481D01*
X193592260Y-80149000D01*
X193503740Y-80149000D01*
X193437557Y-80142481D01*
X193371373Y-80135963D01*
X193201534Y-80084443D01*
X193045009Y-80000778D01*
X193007026Y-79969606D01*
X192907814Y-79888186D01*
X192824552Y-79786729D01*
X192795222Y-79750991D01*
X192711557Y-79594466D01*
X192660037Y-79424627D01*
X192642641Y-79248000D01*
X192660037Y-79071373D01*
X192711557Y-78901534D01*
X192795222Y-78745009D01*
X192824552Y-78709271D01*
X192907814Y-78607814D01*
X193035532Y-78503000D01*
X193045009Y-78495222D01*
X193201534Y-78411557D01*
X193371373Y-78360037D01*
X193437557Y-78353519D01*
X193503740Y-78347000D01*
X193592260Y-78347000D01*
X193658443Y-78353519D01*
X193658443Y-78353519D01*
G37*
G36*
X198992443Y-77845519D02*
G01*
X199058627Y-77852037D01*
X199228466Y-77903557D01*
X199228468Y-77903558D01*
X199306728Y-77945389D01*
X199384991Y-77987222D01*
X199420729Y-78016552D01*
X199522186Y-78099814D01*
X199605448Y-78201271D01*
X199634778Y-78237009D01*
X199718443Y-78393534D01*
X199769963Y-78563373D01*
X199787359Y-78740000D01*
X199769963Y-78916627D01*
X199718443Y-79086466D01*
X199634778Y-79242991D01*
X199630667Y-79248000D01*
X199522186Y-79380186D01*
X199420729Y-79463448D01*
X199384991Y-79492778D01*
X199384989Y-79492779D01*
X199247031Y-79566520D01*
X199228466Y-79576443D01*
X199058627Y-79627963D01*
X198992442Y-79634482D01*
X198926260Y-79641000D01*
X198837740Y-79641000D01*
X198771558Y-79634482D01*
X198705373Y-79627963D01*
X198535534Y-79576443D01*
X198516970Y-79566520D01*
X198379011Y-79492779D01*
X198379009Y-79492778D01*
X198343271Y-79463448D01*
X198241814Y-79380186D01*
X198133333Y-79248000D01*
X198129222Y-79242991D01*
X198045557Y-79086466D01*
X197994037Y-78916627D01*
X197976641Y-78740000D01*
X197994037Y-78563373D01*
X198045557Y-78393534D01*
X198129222Y-78237009D01*
X198158552Y-78201271D01*
X198241814Y-78099814D01*
X198343271Y-78016552D01*
X198379009Y-77987222D01*
X198457272Y-77945389D01*
X198535532Y-77903558D01*
X198535534Y-77903557D01*
X198705373Y-77852037D01*
X198771557Y-77845519D01*
X198837740Y-77839000D01*
X198926260Y-77839000D01*
X198992443Y-77845519D01*
X198992443Y-77845519D01*
G37*
G36*
X167628394Y-76872934D02*
G01*
X167779624Y-76935576D01*
X167779626Y-76935577D01*
X167915732Y-77026520D01*
X168031480Y-77142268D01*
X168077399Y-77210991D01*
X168122424Y-77278376D01*
X168185066Y-77429606D01*
X168217000Y-77590152D01*
X168217000Y-77753848D01*
X168185066Y-77914394D01*
X168154899Y-77987222D01*
X168122423Y-78065626D01*
X168031480Y-78201732D01*
X167915732Y-78317480D01*
X167779626Y-78408423D01*
X167779625Y-78408424D01*
X167779624Y-78408424D01*
X167628394Y-78471066D01*
X167467848Y-78503000D01*
X167304152Y-78503000D01*
X167143606Y-78471066D01*
X166992376Y-78408424D01*
X166992375Y-78408424D01*
X166992374Y-78408423D01*
X166856268Y-78317480D01*
X166740520Y-78201732D01*
X166649577Y-78065626D01*
X166617101Y-77987222D01*
X166586934Y-77914394D01*
X166555000Y-77753848D01*
X166555000Y-77590152D01*
X166586934Y-77429606D01*
X166649576Y-77278376D01*
X166694601Y-77210991D01*
X166740520Y-77142268D01*
X166856268Y-77026520D01*
X166992374Y-76935577D01*
X166992376Y-76935576D01*
X167143606Y-76872934D01*
X167304152Y-76841000D01*
X167467848Y-76841000D01*
X167628394Y-76872934D01*
X167628394Y-76872934D01*
G37*
G36*
X142228394Y-76872934D02*
G01*
X142379624Y-76935576D01*
X142379626Y-76935577D01*
X142515732Y-77026520D01*
X142631480Y-77142268D01*
X142677399Y-77210991D01*
X142722424Y-77278376D01*
X142785066Y-77429606D01*
X142817000Y-77590152D01*
X142817000Y-77753848D01*
X142785066Y-77914394D01*
X142754899Y-77987222D01*
X142722423Y-78065626D01*
X142631480Y-78201732D01*
X142515732Y-78317480D01*
X142379626Y-78408423D01*
X142379625Y-78408424D01*
X142379624Y-78408424D01*
X142228394Y-78471066D01*
X142067848Y-78503000D01*
X141904152Y-78503000D01*
X141743606Y-78471066D01*
X141592376Y-78408424D01*
X141592375Y-78408424D01*
X141592374Y-78408423D01*
X141456268Y-78317480D01*
X141340520Y-78201732D01*
X141249577Y-78065626D01*
X141217101Y-77987222D01*
X141186934Y-77914394D01*
X141155000Y-77753848D01*
X141155000Y-77590152D01*
X141186934Y-77429606D01*
X141249576Y-77278376D01*
X141294601Y-77210991D01*
X141340520Y-77142268D01*
X141456268Y-77026520D01*
X141592374Y-76935577D01*
X141592376Y-76935576D01*
X141743606Y-76872934D01*
X141904152Y-76841000D01*
X142067848Y-76841000D01*
X142228394Y-76872934D01*
X142228394Y-76872934D01*
G37*
G36*
X112378442Y-75813518D02*
G01*
X112444627Y-75820037D01*
X112614466Y-75871557D01*
X112770991Y-75955222D01*
X112780468Y-75963000D01*
X112908186Y-76067814D01*
X112991448Y-76169271D01*
X113020778Y-76205009D01*
X113104443Y-76361534D01*
X113155963Y-76531373D01*
X113173359Y-76708000D01*
X113155963Y-76884627D01*
X113104443Y-77054466D01*
X113020778Y-77210991D01*
X112991448Y-77246729D01*
X112908186Y-77348186D01*
X112808974Y-77429606D01*
X112770991Y-77460778D01*
X112614466Y-77544443D01*
X112444627Y-77595963D01*
X112378443Y-77602481D01*
X112312260Y-77609000D01*
X112223740Y-77609000D01*
X112157557Y-77602481D01*
X112091373Y-77595963D01*
X111921534Y-77544443D01*
X111765009Y-77460778D01*
X111727026Y-77429606D01*
X111627814Y-77348186D01*
X111544552Y-77246729D01*
X111515222Y-77210991D01*
X111431557Y-77054466D01*
X111380037Y-76884627D01*
X111362641Y-76708000D01*
X111380037Y-76531373D01*
X111431557Y-76361534D01*
X111515222Y-76205009D01*
X111544552Y-76169271D01*
X111627814Y-76067814D01*
X111755532Y-75963000D01*
X111765009Y-75955222D01*
X111921534Y-75871557D01*
X112091373Y-75820037D01*
X112157558Y-75813518D01*
X112223740Y-75807000D01*
X112312260Y-75807000D01*
X112378442Y-75813518D01*
X112378442Y-75813518D01*
G37*
G36*
X193658442Y-75813518D02*
G01*
X193724627Y-75820037D01*
X193894466Y-75871557D01*
X194050991Y-75955222D01*
X194060468Y-75963000D01*
X194188186Y-76067814D01*
X194271448Y-76169271D01*
X194300778Y-76205009D01*
X194384443Y-76361534D01*
X194435963Y-76531373D01*
X194453359Y-76708000D01*
X194435963Y-76884627D01*
X194384443Y-77054466D01*
X194300778Y-77210991D01*
X194271448Y-77246729D01*
X194188186Y-77348186D01*
X194088974Y-77429606D01*
X194050991Y-77460778D01*
X193894466Y-77544443D01*
X193724627Y-77595963D01*
X193658443Y-77602481D01*
X193592260Y-77609000D01*
X193503740Y-77609000D01*
X193437557Y-77602481D01*
X193371373Y-77595963D01*
X193201534Y-77544443D01*
X193045009Y-77460778D01*
X193007026Y-77429606D01*
X192907814Y-77348186D01*
X192824552Y-77246729D01*
X192795222Y-77210991D01*
X192711557Y-77054466D01*
X192660037Y-76884627D01*
X192642641Y-76708000D01*
X192660037Y-76531373D01*
X192711557Y-76361534D01*
X192795222Y-76205009D01*
X192824552Y-76169271D01*
X192907814Y-76067814D01*
X193035532Y-75963000D01*
X193045009Y-75955222D01*
X193201534Y-75871557D01*
X193371373Y-75820037D01*
X193437558Y-75813518D01*
X193503740Y-75807000D01*
X193592260Y-75807000D01*
X193658442Y-75813518D01*
X193658442Y-75813518D01*
G37*
G36*
X167628394Y-74332934D02*
G01*
X167779624Y-74395576D01*
X167779626Y-74395577D01*
X167915732Y-74486520D01*
X168031480Y-74602268D01*
X168077399Y-74670991D01*
X168122424Y-74738376D01*
X168185066Y-74889606D01*
X168217000Y-75050152D01*
X168217000Y-75213848D01*
X168185066Y-75374394D01*
X168122424Y-75525624D01*
X168122423Y-75525626D01*
X168031480Y-75661732D01*
X167915732Y-75777480D01*
X167779626Y-75868423D01*
X167779625Y-75868424D01*
X167779624Y-75868424D01*
X167628394Y-75931066D01*
X167467848Y-75963000D01*
X167304152Y-75963000D01*
X167143606Y-75931066D01*
X166992376Y-75868424D01*
X166992375Y-75868424D01*
X166992374Y-75868423D01*
X166856268Y-75777480D01*
X166740520Y-75661732D01*
X166649577Y-75525626D01*
X166649576Y-75525624D01*
X166586934Y-75374394D01*
X166555000Y-75213848D01*
X166555000Y-75050152D01*
X166586934Y-74889606D01*
X166649576Y-74738376D01*
X166694601Y-74670991D01*
X166740520Y-74602268D01*
X166856268Y-74486520D01*
X166992374Y-74395577D01*
X166992376Y-74395576D01*
X167143606Y-74332934D01*
X167304152Y-74301000D01*
X167467848Y-74301000D01*
X167628394Y-74332934D01*
X167628394Y-74332934D01*
G37*
G36*
X142228394Y-74332934D02*
G01*
X142379624Y-74395576D01*
X142379626Y-74395577D01*
X142515732Y-74486520D01*
X142631480Y-74602268D01*
X142677399Y-74670991D01*
X142722424Y-74738376D01*
X142785066Y-74889606D01*
X142817000Y-75050152D01*
X142817000Y-75213848D01*
X142785066Y-75374394D01*
X142722424Y-75525624D01*
X142722423Y-75525626D01*
X142631480Y-75661732D01*
X142515732Y-75777480D01*
X142379626Y-75868423D01*
X142379625Y-75868424D01*
X142379624Y-75868424D01*
X142228394Y-75931066D01*
X142067848Y-75963000D01*
X141904152Y-75963000D01*
X141743606Y-75931066D01*
X141592376Y-75868424D01*
X141592375Y-75868424D01*
X141592374Y-75868423D01*
X141456268Y-75777480D01*
X141340520Y-75661732D01*
X141249577Y-75525626D01*
X141249576Y-75525624D01*
X141186934Y-75374394D01*
X141155000Y-75213848D01*
X141155000Y-75050152D01*
X141186934Y-74889606D01*
X141249576Y-74738376D01*
X141294601Y-74670991D01*
X141340520Y-74602268D01*
X141456268Y-74486520D01*
X141592374Y-74395577D01*
X141592376Y-74395576D01*
X141743606Y-74332934D01*
X141904152Y-74301000D01*
X142067848Y-74301000D01*
X142228394Y-74332934D01*
X142228394Y-74332934D01*
G37*
G36*
X112378443Y-73273519D02*
G01*
X112444627Y-73280037D01*
X112614466Y-73331557D01*
X112770991Y-73415222D01*
X112780468Y-73423000D01*
X112908186Y-73527814D01*
X112991448Y-73629271D01*
X113020778Y-73665009D01*
X113104443Y-73821534D01*
X113155963Y-73991373D01*
X113173359Y-74168000D01*
X113155963Y-74344627D01*
X113104443Y-74514466D01*
X113020778Y-74670991D01*
X112991448Y-74706729D01*
X112908186Y-74808186D01*
X112808974Y-74889606D01*
X112770991Y-74920778D01*
X112614466Y-75004443D01*
X112444627Y-75055963D01*
X112378443Y-75062481D01*
X112312260Y-75069000D01*
X112223740Y-75069000D01*
X112157557Y-75062481D01*
X112091373Y-75055963D01*
X111921534Y-75004443D01*
X111765009Y-74920778D01*
X111727026Y-74889606D01*
X111627814Y-74808186D01*
X111544552Y-74706729D01*
X111515222Y-74670991D01*
X111431557Y-74514466D01*
X111380037Y-74344627D01*
X111362641Y-74168000D01*
X111380037Y-73991373D01*
X111431557Y-73821534D01*
X111515222Y-73665009D01*
X111544552Y-73629271D01*
X111627814Y-73527814D01*
X111755532Y-73423000D01*
X111765009Y-73415222D01*
X111921534Y-73331557D01*
X112091373Y-73280037D01*
X112157557Y-73273519D01*
X112223740Y-73267000D01*
X112312260Y-73267000D01*
X112378443Y-73273519D01*
X112378443Y-73273519D01*
G37*
G36*
X167628394Y-71792934D02*
G01*
X167779624Y-71855576D01*
X167779626Y-71855577D01*
X167915732Y-71946520D01*
X168031480Y-72062268D01*
X168077399Y-72130991D01*
X168122424Y-72198376D01*
X168185066Y-72349606D01*
X168217000Y-72510152D01*
X168217000Y-72673848D01*
X168185066Y-72834394D01*
X168122424Y-72985624D01*
X168122423Y-72985626D01*
X168031480Y-73121732D01*
X167915732Y-73237480D01*
X167779626Y-73328423D01*
X167779625Y-73328424D01*
X167779624Y-73328424D01*
X167628394Y-73391066D01*
X167467848Y-73423000D01*
X167304152Y-73423000D01*
X167143606Y-73391066D01*
X166992376Y-73328424D01*
X166992375Y-73328424D01*
X166992374Y-73328423D01*
X166856268Y-73237480D01*
X166740520Y-73121732D01*
X166649577Y-72985626D01*
X166649576Y-72985624D01*
X166586934Y-72834394D01*
X166555000Y-72673848D01*
X166555000Y-72510152D01*
X166586934Y-72349606D01*
X166649576Y-72198376D01*
X166694601Y-72130991D01*
X166740520Y-72062268D01*
X166856268Y-71946520D01*
X166992374Y-71855577D01*
X166992376Y-71855576D01*
X167143606Y-71792934D01*
X167304152Y-71761000D01*
X167467848Y-71761000D01*
X167628394Y-71792934D01*
X167628394Y-71792934D01*
G37*
G36*
X142228394Y-71792934D02*
G01*
X142379624Y-71855576D01*
X142379626Y-71855577D01*
X142515732Y-71946520D01*
X142631480Y-72062268D01*
X142677399Y-72130991D01*
X142722424Y-72198376D01*
X142785066Y-72349606D01*
X142817000Y-72510152D01*
X142817000Y-72673848D01*
X142785066Y-72834394D01*
X142722424Y-72985624D01*
X142722423Y-72985626D01*
X142631480Y-73121732D01*
X142515732Y-73237480D01*
X142379626Y-73328423D01*
X142379625Y-73328424D01*
X142379624Y-73328424D01*
X142228394Y-73391066D01*
X142067848Y-73423000D01*
X141904152Y-73423000D01*
X141743606Y-73391066D01*
X141592376Y-73328424D01*
X141592375Y-73328424D01*
X141592374Y-73328423D01*
X141456268Y-73237480D01*
X141340520Y-73121732D01*
X141249577Y-72985626D01*
X141249576Y-72985624D01*
X141186934Y-72834394D01*
X141155000Y-72673848D01*
X141155000Y-72510152D01*
X141186934Y-72349606D01*
X141249576Y-72198376D01*
X141294601Y-72130991D01*
X141340520Y-72062268D01*
X141456268Y-71946520D01*
X141592374Y-71855577D01*
X141592376Y-71855576D01*
X141743606Y-71792934D01*
X141904152Y-71761000D01*
X142067848Y-71761000D01*
X142228394Y-71792934D01*
X142228394Y-71792934D01*
G37*
G36*
X112378442Y-70733518D02*
G01*
X112444627Y-70740037D01*
X112614466Y-70791557D01*
X112770991Y-70875222D01*
X112780468Y-70883000D01*
X112908186Y-70987814D01*
X112991448Y-71089271D01*
X113020778Y-71125009D01*
X113104443Y-71281534D01*
X113155963Y-71451373D01*
X113173359Y-71628000D01*
X113155963Y-71804627D01*
X113104443Y-71974466D01*
X113020778Y-72130991D01*
X112991448Y-72166729D01*
X112908186Y-72268186D01*
X112808974Y-72349606D01*
X112770991Y-72380778D01*
X112614466Y-72464443D01*
X112444627Y-72515963D01*
X112378442Y-72522482D01*
X112312260Y-72529000D01*
X112223740Y-72529000D01*
X112157558Y-72522482D01*
X112091373Y-72515963D01*
X111921534Y-72464443D01*
X111765009Y-72380778D01*
X111727026Y-72349606D01*
X111627814Y-72268186D01*
X111544552Y-72166729D01*
X111515222Y-72130991D01*
X111431557Y-71974466D01*
X111380037Y-71804627D01*
X111362641Y-71628000D01*
X111380037Y-71451373D01*
X111431557Y-71281534D01*
X111515222Y-71125009D01*
X111544552Y-71089271D01*
X111627814Y-70987814D01*
X111755532Y-70883000D01*
X111765009Y-70875222D01*
X111921534Y-70791557D01*
X112091373Y-70740037D01*
X112157558Y-70733518D01*
X112223740Y-70727000D01*
X112312260Y-70727000D01*
X112378442Y-70733518D01*
X112378442Y-70733518D01*
G37*
G36*
X142228394Y-69252934D02*
G01*
X142379624Y-69315576D01*
X142379626Y-69315577D01*
X142515732Y-69406520D01*
X142631480Y-69522268D01*
X142677399Y-69590991D01*
X142722424Y-69658376D01*
X142785066Y-69809606D01*
X142817000Y-69970152D01*
X142817000Y-70133848D01*
X142785066Y-70294394D01*
X142722424Y-70445624D01*
X142722423Y-70445626D01*
X142631480Y-70581732D01*
X142515732Y-70697480D01*
X142379626Y-70788423D01*
X142379625Y-70788424D01*
X142379624Y-70788424D01*
X142228394Y-70851066D01*
X142067848Y-70883000D01*
X141904152Y-70883000D01*
X141743606Y-70851066D01*
X141592376Y-70788424D01*
X141592375Y-70788424D01*
X141592374Y-70788423D01*
X141456268Y-70697480D01*
X141340520Y-70581732D01*
X141249577Y-70445626D01*
X141249576Y-70445624D01*
X141186934Y-70294394D01*
X141155000Y-70133848D01*
X141155000Y-69970152D01*
X141186934Y-69809606D01*
X141249576Y-69658376D01*
X141294601Y-69590991D01*
X141340520Y-69522268D01*
X141456268Y-69406520D01*
X141592374Y-69315577D01*
X141592376Y-69315576D01*
X141743606Y-69252934D01*
X141904152Y-69221000D01*
X142067848Y-69221000D01*
X142228394Y-69252934D01*
X142228394Y-69252934D01*
G37*
G36*
X167628394Y-69252934D02*
G01*
X167779624Y-69315576D01*
X167779626Y-69315577D01*
X167915732Y-69406520D01*
X168031480Y-69522268D01*
X168077399Y-69590991D01*
X168122424Y-69658376D01*
X168185066Y-69809606D01*
X168217000Y-69970152D01*
X168217000Y-70133848D01*
X168185066Y-70294394D01*
X168122424Y-70445624D01*
X168122423Y-70445626D01*
X168031480Y-70581732D01*
X167915732Y-70697480D01*
X167779626Y-70788423D01*
X167779625Y-70788424D01*
X167779624Y-70788424D01*
X167628394Y-70851066D01*
X167467848Y-70883000D01*
X167304152Y-70883000D01*
X167143606Y-70851066D01*
X166992376Y-70788424D01*
X166992375Y-70788424D01*
X166992374Y-70788423D01*
X166856268Y-70697480D01*
X166740520Y-70581732D01*
X166649577Y-70445626D01*
X166649576Y-70445624D01*
X166586934Y-70294394D01*
X166555000Y-70133848D01*
X166555000Y-69970152D01*
X166586934Y-69809606D01*
X166649576Y-69658376D01*
X166694601Y-69590991D01*
X166740520Y-69522268D01*
X166856268Y-69406520D01*
X166992374Y-69315577D01*
X166992376Y-69315576D01*
X167143606Y-69252934D01*
X167304152Y-69221000D01*
X167467848Y-69221000D01*
X167628394Y-69252934D01*
X167628394Y-69252934D01*
G37*
G36*
X112378443Y-68193519D02*
G01*
X112444627Y-68200037D01*
X112614466Y-68251557D01*
X112770991Y-68335222D01*
X112780468Y-68343000D01*
X112908186Y-68447814D01*
X112991448Y-68549271D01*
X113020778Y-68585009D01*
X113104443Y-68741534D01*
X113155963Y-68911373D01*
X113173359Y-69088000D01*
X113155963Y-69264627D01*
X113104443Y-69434466D01*
X113020778Y-69590991D01*
X112991448Y-69626729D01*
X112908186Y-69728186D01*
X112808974Y-69809606D01*
X112770991Y-69840778D01*
X112614466Y-69924443D01*
X112444627Y-69975963D01*
X112378443Y-69982481D01*
X112312260Y-69989000D01*
X112223740Y-69989000D01*
X112157557Y-69982481D01*
X112091373Y-69975963D01*
X111921534Y-69924443D01*
X111765009Y-69840778D01*
X111727026Y-69809606D01*
X111627814Y-69728186D01*
X111544552Y-69626729D01*
X111515222Y-69590991D01*
X111431557Y-69434466D01*
X111380037Y-69264627D01*
X111362641Y-69088000D01*
X111380037Y-68911373D01*
X111431557Y-68741534D01*
X111515222Y-68585009D01*
X111544552Y-68549271D01*
X111627814Y-68447814D01*
X111755532Y-68343000D01*
X111765009Y-68335222D01*
X111921534Y-68251557D01*
X112091373Y-68200037D01*
X112157557Y-68193519D01*
X112223740Y-68187000D01*
X112312260Y-68187000D01*
X112378443Y-68193519D01*
X112378443Y-68193519D01*
G37*
G36*
X142228394Y-66712934D02*
G01*
X142379624Y-66775576D01*
X142379626Y-66775577D01*
X142515732Y-66866520D01*
X142631480Y-66982268D01*
X142677399Y-67050991D01*
X142722424Y-67118376D01*
X142785066Y-67269606D01*
X142817000Y-67430152D01*
X142817000Y-67593848D01*
X142785066Y-67754394D01*
X142722424Y-67905624D01*
X142722423Y-67905626D01*
X142631480Y-68041732D01*
X142515732Y-68157480D01*
X142379626Y-68248423D01*
X142379625Y-68248424D01*
X142379624Y-68248424D01*
X142228394Y-68311066D01*
X142067848Y-68343000D01*
X141904152Y-68343000D01*
X141743606Y-68311066D01*
X141592376Y-68248424D01*
X141592375Y-68248424D01*
X141592374Y-68248423D01*
X141456268Y-68157480D01*
X141340520Y-68041732D01*
X141249577Y-67905626D01*
X141249576Y-67905624D01*
X141186934Y-67754394D01*
X141155000Y-67593848D01*
X141155000Y-67430152D01*
X141186934Y-67269606D01*
X141249576Y-67118376D01*
X141294601Y-67050991D01*
X141340520Y-66982268D01*
X141456268Y-66866520D01*
X141592374Y-66775577D01*
X141592376Y-66775576D01*
X141743606Y-66712934D01*
X141904152Y-66681000D01*
X142067848Y-66681000D01*
X142228394Y-66712934D01*
X142228394Y-66712934D01*
G37*
G36*
X167628394Y-66712934D02*
G01*
X167779624Y-66775576D01*
X167779626Y-66775577D01*
X167915732Y-66866520D01*
X168031480Y-66982268D01*
X168077399Y-67050991D01*
X168122424Y-67118376D01*
X168185066Y-67269606D01*
X168217000Y-67430152D01*
X168217000Y-67593848D01*
X168185066Y-67754394D01*
X168122424Y-67905624D01*
X168122423Y-67905626D01*
X168031480Y-68041732D01*
X167915732Y-68157480D01*
X167779626Y-68248423D01*
X167779625Y-68248424D01*
X167779624Y-68248424D01*
X167628394Y-68311066D01*
X167467848Y-68343000D01*
X167304152Y-68343000D01*
X167143606Y-68311066D01*
X166992376Y-68248424D01*
X166992375Y-68248424D01*
X166992374Y-68248423D01*
X166856268Y-68157480D01*
X166740520Y-68041732D01*
X166649577Y-67905626D01*
X166649576Y-67905624D01*
X166586934Y-67754394D01*
X166555000Y-67593848D01*
X166555000Y-67430152D01*
X166586934Y-67269606D01*
X166649576Y-67118376D01*
X166694601Y-67050991D01*
X166740520Y-66982268D01*
X166856268Y-66866520D01*
X166992374Y-66775577D01*
X166992376Y-66775576D01*
X167143606Y-66712934D01*
X167304152Y-66681000D01*
X167467848Y-66681000D01*
X167628394Y-66712934D01*
X167628394Y-66712934D01*
G37*
G36*
X112378442Y-65653518D02*
G01*
X112444627Y-65660037D01*
X112614466Y-65711557D01*
X112770991Y-65795222D01*
X112780468Y-65803000D01*
X112908186Y-65907814D01*
X112991448Y-66009271D01*
X113020778Y-66045009D01*
X113104443Y-66201534D01*
X113155963Y-66371373D01*
X113173359Y-66548000D01*
X113155963Y-66724627D01*
X113104443Y-66894466D01*
X113020778Y-67050991D01*
X112991448Y-67086729D01*
X112908186Y-67188186D01*
X112808974Y-67269606D01*
X112770991Y-67300778D01*
X112614466Y-67384443D01*
X112444627Y-67435963D01*
X112378443Y-67442481D01*
X112312260Y-67449000D01*
X112223740Y-67449000D01*
X112157557Y-67442481D01*
X112091373Y-67435963D01*
X111921534Y-67384443D01*
X111765009Y-67300778D01*
X111727026Y-67269606D01*
X111627814Y-67188186D01*
X111544552Y-67086729D01*
X111515222Y-67050991D01*
X111431557Y-66894466D01*
X111380037Y-66724627D01*
X111362641Y-66548000D01*
X111380037Y-66371373D01*
X111431557Y-66201534D01*
X111515222Y-66045009D01*
X111544552Y-66009271D01*
X111627814Y-65907814D01*
X111755532Y-65803000D01*
X111765009Y-65795222D01*
X111921534Y-65711557D01*
X112091373Y-65660037D01*
X112157558Y-65653518D01*
X112223740Y-65647000D01*
X112312260Y-65647000D01*
X112378442Y-65653518D01*
X112378442Y-65653518D01*
G37*
G36*
X142228394Y-64172934D02*
G01*
X142379624Y-64235576D01*
X142379626Y-64235577D01*
X142515732Y-64326520D01*
X142631480Y-64442268D01*
X142677399Y-64510991D01*
X142722424Y-64578376D01*
X142785066Y-64729606D01*
X142817000Y-64890152D01*
X142817000Y-65053848D01*
X142785066Y-65214394D01*
X142722424Y-65365624D01*
X142722423Y-65365626D01*
X142631480Y-65501732D01*
X142515732Y-65617480D01*
X142379626Y-65708423D01*
X142379625Y-65708424D01*
X142379624Y-65708424D01*
X142228394Y-65771066D01*
X142067848Y-65803000D01*
X141904152Y-65803000D01*
X141743606Y-65771066D01*
X141592376Y-65708424D01*
X141592375Y-65708424D01*
X141592374Y-65708423D01*
X141456268Y-65617480D01*
X141340520Y-65501732D01*
X141249577Y-65365626D01*
X141249576Y-65365624D01*
X141186934Y-65214394D01*
X141155000Y-65053848D01*
X141155000Y-64890152D01*
X141186934Y-64729606D01*
X141249576Y-64578376D01*
X141294601Y-64510991D01*
X141340520Y-64442268D01*
X141456268Y-64326520D01*
X141592374Y-64235577D01*
X141592376Y-64235576D01*
X141743606Y-64172934D01*
X141904152Y-64141000D01*
X142067848Y-64141000D01*
X142228394Y-64172934D01*
X142228394Y-64172934D01*
G37*
G36*
X167628394Y-64172934D02*
G01*
X167779624Y-64235576D01*
X167779626Y-64235577D01*
X167915732Y-64326520D01*
X168031480Y-64442268D01*
X168077399Y-64510991D01*
X168122424Y-64578376D01*
X168185066Y-64729606D01*
X168217000Y-64890152D01*
X168217000Y-65053848D01*
X168185066Y-65214394D01*
X168122424Y-65365624D01*
X168122423Y-65365626D01*
X168031480Y-65501732D01*
X167915732Y-65617480D01*
X167779626Y-65708423D01*
X167779625Y-65708424D01*
X167779624Y-65708424D01*
X167628394Y-65771066D01*
X167467848Y-65803000D01*
X167304152Y-65803000D01*
X167143606Y-65771066D01*
X166992376Y-65708424D01*
X166992375Y-65708424D01*
X166992374Y-65708423D01*
X166856268Y-65617480D01*
X166740520Y-65501732D01*
X166649577Y-65365626D01*
X166649576Y-65365624D01*
X166586934Y-65214394D01*
X166555000Y-65053848D01*
X166555000Y-64890152D01*
X166586934Y-64729606D01*
X166649576Y-64578376D01*
X166694601Y-64510991D01*
X166740520Y-64442268D01*
X166856268Y-64326520D01*
X166992374Y-64235577D01*
X166992376Y-64235576D01*
X167143606Y-64172934D01*
X167304152Y-64141000D01*
X167467848Y-64141000D01*
X167628394Y-64172934D01*
X167628394Y-64172934D01*
G37*
G36*
X112378443Y-63113519D02*
G01*
X112444627Y-63120037D01*
X112614466Y-63171557D01*
X112770991Y-63255222D01*
X112780468Y-63263000D01*
X112908186Y-63367814D01*
X112991448Y-63469271D01*
X113020778Y-63505009D01*
X113104443Y-63661534D01*
X113155963Y-63831373D01*
X113173359Y-64008000D01*
X113155963Y-64184627D01*
X113104443Y-64354466D01*
X113020778Y-64510991D01*
X112991448Y-64546729D01*
X112908186Y-64648186D01*
X112808974Y-64729606D01*
X112770991Y-64760778D01*
X112614466Y-64844443D01*
X112444627Y-64895963D01*
X112378442Y-64902482D01*
X112312260Y-64909000D01*
X112223740Y-64909000D01*
X112157558Y-64902482D01*
X112091373Y-64895963D01*
X111921534Y-64844443D01*
X111765009Y-64760778D01*
X111727026Y-64729606D01*
X111627814Y-64648186D01*
X111544552Y-64546729D01*
X111515222Y-64510991D01*
X111431557Y-64354466D01*
X111380037Y-64184627D01*
X111362641Y-64008000D01*
X111380037Y-63831373D01*
X111431557Y-63661534D01*
X111515222Y-63505009D01*
X111544552Y-63469271D01*
X111627814Y-63367814D01*
X111755532Y-63263000D01*
X111765009Y-63255222D01*
X111921534Y-63171557D01*
X112091373Y-63120037D01*
X112157557Y-63113519D01*
X112223740Y-63107000D01*
X112312260Y-63107000D01*
X112378443Y-63113519D01*
X112378443Y-63113519D01*
G37*
G36*
X142228394Y-61632934D02*
G01*
X142379624Y-61695576D01*
X142379626Y-61695577D01*
X142515732Y-61786520D01*
X142631480Y-61902268D01*
X142722423Y-62038374D01*
X142722424Y-62038376D01*
X142785066Y-62189606D01*
X142817000Y-62350152D01*
X142817000Y-62513848D01*
X142785066Y-62674394D01*
X142722424Y-62825624D01*
X142722423Y-62825626D01*
X142631480Y-62961732D01*
X142515732Y-63077480D01*
X142379626Y-63168423D01*
X142379625Y-63168424D01*
X142379624Y-63168424D01*
X142228394Y-63231066D01*
X142067848Y-63263000D01*
X141904152Y-63263000D01*
X141743606Y-63231066D01*
X141592376Y-63168424D01*
X141592375Y-63168424D01*
X141592374Y-63168423D01*
X141456268Y-63077480D01*
X141340520Y-62961732D01*
X141249577Y-62825626D01*
X141249576Y-62825624D01*
X141186934Y-62674394D01*
X141155000Y-62513848D01*
X141155000Y-62350152D01*
X141186934Y-62189606D01*
X141249576Y-62038376D01*
X141249577Y-62038374D01*
X141340520Y-61902268D01*
X141456268Y-61786520D01*
X141592374Y-61695577D01*
X141592376Y-61695576D01*
X141743606Y-61632934D01*
X141904152Y-61601000D01*
X142067848Y-61601000D01*
X142228394Y-61632934D01*
X142228394Y-61632934D01*
G37*
G36*
X167628394Y-61632934D02*
G01*
X167779624Y-61695576D01*
X167779626Y-61695577D01*
X167915732Y-61786520D01*
X168031480Y-61902268D01*
X168122423Y-62038374D01*
X168122424Y-62038376D01*
X168185066Y-62189606D01*
X168217000Y-62350152D01*
X168217000Y-62513848D01*
X168185066Y-62674394D01*
X168122424Y-62825624D01*
X168122423Y-62825626D01*
X168031480Y-62961732D01*
X167915732Y-63077480D01*
X167779626Y-63168423D01*
X167779625Y-63168424D01*
X167779624Y-63168424D01*
X167628394Y-63231066D01*
X167467848Y-63263000D01*
X167304152Y-63263000D01*
X167143606Y-63231066D01*
X166992376Y-63168424D01*
X166992375Y-63168424D01*
X166992374Y-63168423D01*
X166856268Y-63077480D01*
X166740520Y-62961732D01*
X166649577Y-62825626D01*
X166649576Y-62825624D01*
X166586934Y-62674394D01*
X166555000Y-62513848D01*
X166555000Y-62350152D01*
X166586934Y-62189606D01*
X166649576Y-62038376D01*
X166649577Y-62038374D01*
X166740520Y-61902268D01*
X166856268Y-61786520D01*
X166992374Y-61695577D01*
X166992376Y-61695576D01*
X167143606Y-61632934D01*
X167304152Y-61601000D01*
X167467848Y-61601000D01*
X167628394Y-61632934D01*
X167628394Y-61632934D01*
G37*
G36*
X167628394Y-59092934D02*
G01*
X167779624Y-59155576D01*
X167779626Y-59155577D01*
X167915732Y-59246520D01*
X168031480Y-59362268D01*
X168122423Y-59498374D01*
X168122424Y-59498376D01*
X168185066Y-59649606D01*
X168217000Y-59810152D01*
X168217000Y-59973848D01*
X168185066Y-60134394D01*
X168122424Y-60285624D01*
X168122423Y-60285626D01*
X168031480Y-60421732D01*
X167915732Y-60537480D01*
X167779626Y-60628423D01*
X167779625Y-60628424D01*
X167779624Y-60628424D01*
X167628394Y-60691066D01*
X167467848Y-60723000D01*
X167304152Y-60723000D01*
X167143606Y-60691066D01*
X166992376Y-60628424D01*
X166992375Y-60628424D01*
X166992374Y-60628423D01*
X166856268Y-60537480D01*
X166740520Y-60421732D01*
X166649577Y-60285626D01*
X166649576Y-60285624D01*
X166586934Y-60134394D01*
X166555000Y-59973848D01*
X166555000Y-59810152D01*
X166586934Y-59649606D01*
X166649576Y-59498376D01*
X166649577Y-59498374D01*
X166740520Y-59362268D01*
X166856268Y-59246520D01*
X166992374Y-59155577D01*
X166992376Y-59155576D01*
X167143606Y-59092934D01*
X167304152Y-59061000D01*
X167467848Y-59061000D01*
X167628394Y-59092934D01*
X167628394Y-59092934D01*
G37*
G36*
X142228394Y-59092934D02*
G01*
X142379624Y-59155576D01*
X142379626Y-59155577D01*
X142515732Y-59246520D01*
X142631480Y-59362268D01*
X142722423Y-59498374D01*
X142722424Y-59498376D01*
X142785066Y-59649606D01*
X142817000Y-59810152D01*
X142817000Y-59973848D01*
X142785066Y-60134394D01*
X142722424Y-60285624D01*
X142722423Y-60285626D01*
X142631480Y-60421732D01*
X142515732Y-60537480D01*
X142379626Y-60628423D01*
X142379625Y-60628424D01*
X142379624Y-60628424D01*
X142228394Y-60691066D01*
X142067848Y-60723000D01*
X141904152Y-60723000D01*
X141743606Y-60691066D01*
X141592376Y-60628424D01*
X141592375Y-60628424D01*
X141592374Y-60628423D01*
X141456268Y-60537480D01*
X141340520Y-60421732D01*
X141249577Y-60285626D01*
X141249576Y-60285624D01*
X141186934Y-60134394D01*
X141155000Y-59973848D01*
X141155000Y-59810152D01*
X141186934Y-59649606D01*
X141249576Y-59498376D01*
X141249577Y-59498374D01*
X141340520Y-59362268D01*
X141456268Y-59246520D01*
X141592374Y-59155577D01*
X141592376Y-59155576D01*
X141743606Y-59092934D01*
X141904152Y-59061000D01*
X142067848Y-59061000D01*
X142228394Y-59092934D01*
X142228394Y-59092934D01*
G37*
G36*
X142228394Y-56552934D02*
G01*
X142379624Y-56615576D01*
X142379626Y-56615577D01*
X142515732Y-56706520D01*
X142631480Y-56822268D01*
X142722423Y-56958374D01*
X142722424Y-56958376D01*
X142785066Y-57109606D01*
X142817000Y-57270152D01*
X142817000Y-57433848D01*
X142785066Y-57594394D01*
X142722424Y-57745624D01*
X142722423Y-57745626D01*
X142631480Y-57881732D01*
X142515732Y-57997480D01*
X142379626Y-58088423D01*
X142379625Y-58088424D01*
X142379624Y-58088424D01*
X142228394Y-58151066D01*
X142067848Y-58183000D01*
X141904152Y-58183000D01*
X141743606Y-58151066D01*
X141592376Y-58088424D01*
X141592375Y-58088424D01*
X141592374Y-58088423D01*
X141456268Y-57997480D01*
X141340520Y-57881732D01*
X141249577Y-57745626D01*
X141249576Y-57745624D01*
X141186934Y-57594394D01*
X141155000Y-57433848D01*
X141155000Y-57270152D01*
X141186934Y-57109606D01*
X141249576Y-56958376D01*
X141249577Y-56958374D01*
X141340520Y-56822268D01*
X141456268Y-56706520D01*
X141592374Y-56615577D01*
X141592376Y-56615576D01*
X141743606Y-56552934D01*
X141904152Y-56521000D01*
X142067848Y-56521000D01*
X142228394Y-56552934D01*
X142228394Y-56552934D01*
G37*
G36*
X167628394Y-56552934D02*
G01*
X167779624Y-56615576D01*
X167779626Y-56615577D01*
X167915732Y-56706520D01*
X168031480Y-56822268D01*
X168122423Y-56958374D01*
X168122424Y-56958376D01*
X168185066Y-57109606D01*
X168217000Y-57270152D01*
X168217000Y-57433848D01*
X168185066Y-57594394D01*
X168122424Y-57745624D01*
X168122423Y-57745626D01*
X168031480Y-57881732D01*
X167915732Y-57997480D01*
X167779626Y-58088423D01*
X167779625Y-58088424D01*
X167779624Y-58088424D01*
X167628394Y-58151066D01*
X167467848Y-58183000D01*
X167304152Y-58183000D01*
X167143606Y-58151066D01*
X166992376Y-58088424D01*
X166992375Y-58088424D01*
X166992374Y-58088423D01*
X166856268Y-57997480D01*
X166740520Y-57881732D01*
X166649577Y-57745626D01*
X166649576Y-57745624D01*
X166586934Y-57594394D01*
X166555000Y-57433848D01*
X166555000Y-57270152D01*
X166586934Y-57109606D01*
X166649576Y-56958376D01*
X166649577Y-56958374D01*
X166740520Y-56822268D01*
X166856268Y-56706520D01*
X166992374Y-56615577D01*
X166992376Y-56615576D01*
X167143606Y-56552934D01*
X167304152Y-56521000D01*
X167467848Y-56521000D01*
X167628394Y-56552934D01*
X167628394Y-56552934D01*
G37*
G36*
X133968443Y-52953519D02*
G01*
X134034627Y-52960037D01*
X134204466Y-53011557D01*
X134360991Y-53095222D01*
X134396729Y-53124552D01*
X134498186Y-53207814D01*
X134581448Y-53309271D01*
X134610778Y-53345009D01*
X134694443Y-53501534D01*
X134745963Y-53671373D01*
X134763359Y-53848000D01*
X134745963Y-54024627D01*
X134694443Y-54194466D01*
X134610778Y-54350991D01*
X134581448Y-54386729D01*
X134498186Y-54488186D01*
X134396729Y-54571448D01*
X134360991Y-54600778D01*
X134204466Y-54684443D01*
X134034627Y-54735963D01*
X133968442Y-54742482D01*
X133902260Y-54749000D01*
X133813740Y-54749000D01*
X133747558Y-54742482D01*
X133681373Y-54735963D01*
X133511534Y-54684443D01*
X133355009Y-54600778D01*
X133319271Y-54571448D01*
X133217814Y-54488186D01*
X133134552Y-54386729D01*
X133105222Y-54350991D01*
X133021557Y-54194466D01*
X132970037Y-54024627D01*
X132952641Y-53848000D01*
X132970037Y-53671373D01*
X133021557Y-53501534D01*
X133105222Y-53345009D01*
X133134552Y-53309271D01*
X133217814Y-53207814D01*
X133319271Y-53124552D01*
X133355009Y-53095222D01*
X133511534Y-53011557D01*
X133681373Y-52960037D01*
X133747557Y-52953519D01*
X133813740Y-52947000D01*
X133902260Y-52947000D01*
X133968443Y-52953519D01*
X133968443Y-52953519D01*
G37*
G36*
X131428443Y-52953519D02*
G01*
X131494627Y-52960037D01*
X131664466Y-53011557D01*
X131820991Y-53095222D01*
X131856729Y-53124552D01*
X131958186Y-53207814D01*
X132041448Y-53309271D01*
X132070778Y-53345009D01*
X132154443Y-53501534D01*
X132205963Y-53671373D01*
X132223359Y-53848000D01*
X132205963Y-54024627D01*
X132154443Y-54194466D01*
X132070778Y-54350991D01*
X132041448Y-54386729D01*
X131958186Y-54488186D01*
X131856729Y-54571448D01*
X131820991Y-54600778D01*
X131664466Y-54684443D01*
X131494627Y-54735963D01*
X131428442Y-54742482D01*
X131362260Y-54749000D01*
X131273740Y-54749000D01*
X131207558Y-54742482D01*
X131141373Y-54735963D01*
X130971534Y-54684443D01*
X130815009Y-54600778D01*
X130779271Y-54571448D01*
X130677814Y-54488186D01*
X130594552Y-54386729D01*
X130565222Y-54350991D01*
X130481557Y-54194466D01*
X130430037Y-54024627D01*
X130412641Y-53848000D01*
X130430037Y-53671373D01*
X130481557Y-53501534D01*
X130565222Y-53345009D01*
X130594552Y-53309271D01*
X130677814Y-53207814D01*
X130779271Y-53124552D01*
X130815009Y-53095222D01*
X130971534Y-53011557D01*
X131141373Y-52960037D01*
X131207557Y-52953519D01*
X131273740Y-52947000D01*
X131362260Y-52947000D01*
X131428443Y-52953519D01*
X131428443Y-52953519D01*
G37*
G36*
X128888443Y-52953519D02*
G01*
X128954627Y-52960037D01*
X129124466Y-53011557D01*
X129280991Y-53095222D01*
X129316729Y-53124552D01*
X129418186Y-53207814D01*
X129501448Y-53309271D01*
X129530778Y-53345009D01*
X129614443Y-53501534D01*
X129665963Y-53671373D01*
X129683359Y-53848000D01*
X129665963Y-54024627D01*
X129614443Y-54194466D01*
X129530778Y-54350991D01*
X129501448Y-54386729D01*
X129418186Y-54488186D01*
X129316729Y-54571448D01*
X129280991Y-54600778D01*
X129124466Y-54684443D01*
X128954627Y-54735963D01*
X128888442Y-54742482D01*
X128822260Y-54749000D01*
X128733740Y-54749000D01*
X128667558Y-54742482D01*
X128601373Y-54735963D01*
X128431534Y-54684443D01*
X128275009Y-54600778D01*
X128239271Y-54571448D01*
X128137814Y-54488186D01*
X128054552Y-54386729D01*
X128025222Y-54350991D01*
X127941557Y-54194466D01*
X127890037Y-54024627D01*
X127872641Y-53848000D01*
X127890037Y-53671373D01*
X127941557Y-53501534D01*
X128025222Y-53345009D01*
X128054552Y-53309271D01*
X128137814Y-53207814D01*
X128239271Y-53124552D01*
X128275009Y-53095222D01*
X128431534Y-53011557D01*
X128601373Y-52960037D01*
X128667557Y-52953519D01*
X128733740Y-52947000D01*
X128822260Y-52947000D01*
X128888443Y-52953519D01*
X128888443Y-52953519D01*
G37*
G36*
X127139000Y-54749000D02*
G01*
X125337000Y-54749000D01*
X125337000Y-52947000D01*
X127139000Y-52947000D01*
X127139000Y-54749000D01*
X127139000Y-54749000D01*
G37*
G36*
X193596585Y-49532802D02*
G01*
X193746410Y-49562604D01*
X194028674Y-49679521D01*
X194282705Y-49849259D01*
X194498741Y-50065295D01*
X194668479Y-50319326D01*
X194785396Y-50601590D01*
X194845000Y-50901240D01*
X194845000Y-51206760D01*
X194785396Y-51506410D01*
X194668479Y-51788674D01*
X194498741Y-52042705D01*
X194282705Y-52258741D01*
X194028674Y-52428479D01*
X193746410Y-52545396D01*
X193596585Y-52575198D01*
X193446761Y-52605000D01*
X193141239Y-52605000D01*
X192991415Y-52575198D01*
X192841590Y-52545396D01*
X192559326Y-52428479D01*
X192305295Y-52258741D01*
X192089259Y-52042705D01*
X191919521Y-51788674D01*
X191802604Y-51506410D01*
X191743000Y-51206760D01*
X191743000Y-50901240D01*
X191802604Y-50601590D01*
X191919521Y-50319326D01*
X192089259Y-50065295D01*
X192305295Y-49849259D01*
X192559326Y-49679521D01*
X192841590Y-49562604D01*
X192991415Y-49532802D01*
X193141239Y-49503000D01*
X193446761Y-49503000D01*
X193596585Y-49532802D01*
X193596585Y-49532802D01*
G37*
G36*
X189765000Y-52605000D02*
G01*
X186663000Y-52605000D01*
X186663000Y-49503000D01*
X189765000Y-49503000D01*
X189765000Y-52605000D01*
X189765000Y-52605000D01*
G37*
M02*
