G04 #@! TF.GenerationSoftware,KiCad,Pcbnew,5.1.4+dfsg1-1*
G04 #@! TF.CreationDate,2020-01-19T14:17:45-05:00*
G04 #@! TF.ProjectId,thermostat_master,74686572-6d6f-4737-9461-745f6d617374,rev?*
G04 #@! TF.SameCoordinates,Original*
G04 #@! TF.FileFunction,Legend,Top*
G04 #@! TF.FilePolarity,Positive*
%FSLAX46Y46*%
G04 Gerber Fmt 4.6, Leading zero omitted, Abs format (unit mm)*
G04 Created by KiCad (PCBNEW 5.1.4+dfsg1-1) date 2020-01-19 14:17:45*
%MOMM*%
%LPD*%
G04 APERTURE LIST*
%ADD10C,0.150000*%
%ADD11C,0.250000*%
%ADD12C,0.120000*%
%ADD13C,0.127000*%
%ADD14C,0.200000*%
%ADD15C,0.015000*%
G04 APERTURE END LIST*
D10*
X114746738Y-63460380D02*
X115080071Y-64460380D01*
X115413404Y-63460380D01*
X116318166Y-64365142D02*
X116270547Y-64412761D01*
X116127690Y-64460380D01*
X116032452Y-64460380D01*
X115889595Y-64412761D01*
X115794357Y-64317523D01*
X115746738Y-64222285D01*
X115699119Y-64031809D01*
X115699119Y-63888952D01*
X115746738Y-63698476D01*
X115794357Y-63603238D01*
X115889595Y-63508000D01*
X116032452Y-63460380D01*
X116127690Y-63460380D01*
X116270547Y-63508000D01*
X116318166Y-63555619D01*
X117318166Y-64365142D02*
X117270547Y-64412761D01*
X117127690Y-64460380D01*
X117032452Y-64460380D01*
X116889595Y-64412761D01*
X116794357Y-64317523D01*
X116746738Y-64222285D01*
X116699119Y-64031809D01*
X116699119Y-63888952D01*
X116746738Y-63698476D01*
X116794357Y-63603238D01*
X116889595Y-63508000D01*
X117032452Y-63460380D01*
X117127690Y-63460380D01*
X117270547Y-63508000D01*
X117318166Y-63555619D01*
X115461023Y-69445142D02*
X115413404Y-69492761D01*
X115270547Y-69540380D01*
X115175309Y-69540380D01*
X115032452Y-69492761D01*
X114937214Y-69397523D01*
X114889595Y-69302285D01*
X114841976Y-69111809D01*
X114841976Y-68968952D01*
X114889595Y-68778476D01*
X114937214Y-68683238D01*
X115032452Y-68588000D01*
X115175309Y-68540380D01*
X115270547Y-68540380D01*
X115413404Y-68588000D01*
X115461023Y-68635619D01*
X115841976Y-69492761D02*
X115984833Y-69540380D01*
X116222928Y-69540380D01*
X116318166Y-69492761D01*
X116365785Y-69445142D01*
X116413404Y-69349904D01*
X116413404Y-69254666D01*
X116365785Y-69159428D01*
X116318166Y-69111809D01*
X116222928Y-69064190D01*
X116032452Y-69016571D01*
X115937214Y-68968952D01*
X115889595Y-68921333D01*
X115841976Y-68826095D01*
X115841976Y-68730857D01*
X115889595Y-68635619D01*
X115937214Y-68588000D01*
X116032452Y-68540380D01*
X116270547Y-68540380D01*
X116413404Y-68588000D01*
X115461023Y-72080380D02*
X115127690Y-71604190D01*
X114889595Y-72080380D02*
X114889595Y-71080380D01*
X115270547Y-71080380D01*
X115365785Y-71128000D01*
X115413404Y-71175619D01*
X115461023Y-71270857D01*
X115461023Y-71413714D01*
X115413404Y-71508952D01*
X115365785Y-71556571D01*
X115270547Y-71604190D01*
X114889595Y-71604190D01*
X115889595Y-71556571D02*
X116222928Y-71556571D01*
X116365785Y-72080380D02*
X115889595Y-72080380D01*
X115889595Y-71080380D01*
X116365785Y-71080380D01*
X116746738Y-72032761D02*
X116889595Y-72080380D01*
X117127690Y-72080380D01*
X117222928Y-72032761D01*
X117270547Y-71985142D01*
X117318166Y-71889904D01*
X117318166Y-71794666D01*
X117270547Y-71699428D01*
X117222928Y-71651809D01*
X117127690Y-71604190D01*
X116937214Y-71556571D01*
X116841976Y-71508952D01*
X116794357Y-71461333D01*
X116746738Y-71366095D01*
X116746738Y-71270857D01*
X116794357Y-71175619D01*
X116841976Y-71128000D01*
X116937214Y-71080380D01*
X117175309Y-71080380D01*
X117318166Y-71128000D01*
X117746738Y-71556571D02*
X118080071Y-71556571D01*
X118222928Y-72080380D02*
X117746738Y-72080380D01*
X117746738Y-71080380D01*
X118222928Y-71080380D01*
X118508642Y-71080380D02*
X119080071Y-71080380D01*
X118794357Y-72080380D02*
X118794357Y-71080380D01*
X115413404Y-66048000D02*
X115318166Y-66000380D01*
X115175309Y-66000380D01*
X115032452Y-66048000D01*
X114937214Y-66143238D01*
X114889595Y-66238476D01*
X114841976Y-66428952D01*
X114841976Y-66571809D01*
X114889595Y-66762285D01*
X114937214Y-66857523D01*
X115032452Y-66952761D01*
X115175309Y-67000380D01*
X115270547Y-67000380D01*
X115413404Y-66952761D01*
X115461023Y-66905142D01*
X115461023Y-66571809D01*
X115270547Y-66571809D01*
X115889595Y-67000380D02*
X115889595Y-66000380D01*
X116461023Y-67000380D01*
X116461023Y-66000380D01*
X116937214Y-67000380D02*
X116937214Y-66000380D01*
X117175309Y-66000380D01*
X117318166Y-66048000D01*
X117413404Y-66143238D01*
X117461023Y-66238476D01*
X117508642Y-66428952D01*
X117508642Y-66571809D01*
X117461023Y-66762285D01*
X117413404Y-66857523D01*
X117318166Y-66952761D01*
X117175309Y-67000380D01*
X116937214Y-67000380D01*
X114841976Y-79652761D02*
X114984833Y-79700380D01*
X115222928Y-79700380D01*
X115318166Y-79652761D01*
X115365785Y-79605142D01*
X115413404Y-79509904D01*
X115413404Y-79414666D01*
X115365785Y-79319428D01*
X115318166Y-79271809D01*
X115222928Y-79224190D01*
X115032452Y-79176571D01*
X114937214Y-79128952D01*
X114889595Y-79081333D01*
X114841976Y-78986095D01*
X114841976Y-78890857D01*
X114889595Y-78795619D01*
X114937214Y-78748000D01*
X115032452Y-78700380D01*
X115270547Y-78700380D01*
X115413404Y-78748000D01*
X116413404Y-79605142D02*
X116365785Y-79652761D01*
X116222928Y-79700380D01*
X116127690Y-79700380D01*
X115984833Y-79652761D01*
X115889595Y-79557523D01*
X115841976Y-79462285D01*
X115794357Y-79271809D01*
X115794357Y-79128952D01*
X115841976Y-78938476D01*
X115889595Y-78843238D01*
X115984833Y-78748000D01*
X116127690Y-78700380D01*
X116222928Y-78700380D01*
X116365785Y-78748000D01*
X116413404Y-78795619D01*
X116841976Y-79700380D02*
X116841976Y-78700380D01*
X117413404Y-79700380D02*
X116984833Y-79128952D01*
X117413404Y-78700380D02*
X116841976Y-79271809D01*
X114841976Y-77112761D02*
X114984833Y-77160380D01*
X115222928Y-77160380D01*
X115318166Y-77112761D01*
X115365785Y-77065142D01*
X115413404Y-76969904D01*
X115413404Y-76874666D01*
X115365785Y-76779428D01*
X115318166Y-76731809D01*
X115222928Y-76684190D01*
X115032452Y-76636571D01*
X114937214Y-76588952D01*
X114889595Y-76541333D01*
X114841976Y-76446095D01*
X114841976Y-76350857D01*
X114889595Y-76255619D01*
X114937214Y-76208000D01*
X115032452Y-76160380D01*
X115270547Y-76160380D01*
X115413404Y-76208000D01*
X115841976Y-77160380D02*
X115841976Y-76160380D01*
X116080071Y-76160380D01*
X116222928Y-76208000D01*
X116318166Y-76303238D01*
X116365785Y-76398476D01*
X116413404Y-76588952D01*
X116413404Y-76731809D01*
X116365785Y-76922285D01*
X116318166Y-77017523D01*
X116222928Y-77112761D01*
X116080071Y-77160380D01*
X115841976Y-77160380D01*
X116841976Y-77160380D02*
X116841976Y-76160380D01*
X118365785Y-77541333D02*
X118318166Y-77493714D01*
X118222928Y-77350857D01*
X118175309Y-77255619D01*
X118127690Y-77112761D01*
X118080071Y-76874666D01*
X118080071Y-76684190D01*
X118127690Y-76446095D01*
X118175309Y-76303238D01*
X118222928Y-76208000D01*
X118318166Y-76065142D01*
X118365785Y-76017523D01*
X118746738Y-77160380D02*
X118746738Y-76160380D01*
X119080071Y-76874666D01*
X119413404Y-76160380D01*
X119413404Y-77160380D01*
X120080071Y-76160380D02*
X120270547Y-76160380D01*
X120365785Y-76208000D01*
X120461023Y-76303238D01*
X120508642Y-76493714D01*
X120508642Y-76827047D01*
X120461023Y-77017523D01*
X120365785Y-77112761D01*
X120270547Y-77160380D01*
X120080071Y-77160380D01*
X119984833Y-77112761D01*
X119889595Y-77017523D01*
X119841976Y-76827047D01*
X119841976Y-76493714D01*
X119889595Y-76303238D01*
X119984833Y-76208000D01*
X120080071Y-76160380D01*
X120889595Y-77112761D02*
X121032452Y-77160380D01*
X121270547Y-77160380D01*
X121365785Y-77112761D01*
X121413404Y-77065142D01*
X121461023Y-76969904D01*
X121461023Y-76874666D01*
X121413404Y-76779428D01*
X121365785Y-76731809D01*
X121270547Y-76684190D01*
X121080071Y-76636571D01*
X120984833Y-76588952D01*
X120937214Y-76541333D01*
X120889595Y-76446095D01*
X120889595Y-76350857D01*
X120937214Y-76255619D01*
X120984833Y-76208000D01*
X121080071Y-76160380D01*
X121318166Y-76160380D01*
X121461023Y-76208000D01*
X121889595Y-77160380D02*
X121889595Y-76160380D01*
X122270547Y-77541333D02*
X122318166Y-77493714D01*
X122413404Y-77350857D01*
X122461023Y-77255619D01*
X122508642Y-77112761D01*
X122556261Y-76874666D01*
X122556261Y-76684190D01*
X122508642Y-76446095D01*
X122461023Y-76303238D01*
X122413404Y-76208000D01*
X122318166Y-76065142D01*
X122270547Y-76017523D01*
X115365785Y-82240380D02*
X114889595Y-82240380D01*
X114889595Y-81240380D01*
X115699119Y-81716571D02*
X116032452Y-81716571D01*
X116175309Y-82240380D02*
X115699119Y-82240380D01*
X115699119Y-81240380D01*
X116175309Y-81240380D01*
X116603880Y-82240380D02*
X116603880Y-81240380D01*
X116841976Y-81240380D01*
X116984833Y-81288000D01*
X117080071Y-81383238D01*
X117127690Y-81478476D01*
X117175309Y-81668952D01*
X117175309Y-81811809D01*
X117127690Y-82002285D01*
X117080071Y-82097523D01*
X116984833Y-82192761D01*
X116841976Y-82240380D01*
X116603880Y-82240380D01*
X114841976Y-84732761D02*
X114984833Y-84780380D01*
X115222928Y-84780380D01*
X115318166Y-84732761D01*
X115365785Y-84685142D01*
X115413404Y-84589904D01*
X115413404Y-84494666D01*
X115365785Y-84399428D01*
X115318166Y-84351809D01*
X115222928Y-84304190D01*
X115032452Y-84256571D01*
X114937214Y-84208952D01*
X114889595Y-84161333D01*
X114841976Y-84066095D01*
X114841976Y-83970857D01*
X114889595Y-83875619D01*
X114937214Y-83828000D01*
X115032452Y-83780380D01*
X115270547Y-83780380D01*
X115413404Y-83828000D01*
X115841976Y-84780380D02*
X115841976Y-83780380D01*
X116080071Y-83780380D01*
X116222928Y-83828000D01*
X116318166Y-83923238D01*
X116365785Y-84018476D01*
X116413404Y-84208952D01*
X116413404Y-84351809D01*
X116365785Y-84542285D01*
X116318166Y-84637523D01*
X116222928Y-84732761D01*
X116080071Y-84780380D01*
X115841976Y-84780380D01*
X117032452Y-83780380D02*
X117222928Y-83780380D01*
X117318166Y-83828000D01*
X117413404Y-83923238D01*
X117461023Y-84113714D01*
X117461023Y-84447047D01*
X117413404Y-84637523D01*
X117318166Y-84732761D01*
X117222928Y-84780380D01*
X117032452Y-84780380D01*
X116937214Y-84732761D01*
X116841976Y-84637523D01*
X116794357Y-84447047D01*
X116794357Y-84113714D01*
X116841976Y-83923238D01*
X116937214Y-83828000D01*
X117032452Y-83780380D01*
X118937214Y-85161333D02*
X118889595Y-85113714D01*
X118794357Y-84970857D01*
X118746738Y-84875619D01*
X118699119Y-84732761D01*
X118651500Y-84494666D01*
X118651500Y-84304190D01*
X118699119Y-84066095D01*
X118746738Y-83923238D01*
X118794357Y-83828000D01*
X118889595Y-83685142D01*
X118937214Y-83637523D01*
X119318166Y-84780380D02*
X119318166Y-83780380D01*
X119651500Y-84494666D01*
X119984833Y-83780380D01*
X119984833Y-84780380D01*
X120461023Y-84780380D02*
X120461023Y-83780380D01*
X120889595Y-84732761D02*
X121032452Y-84780380D01*
X121270547Y-84780380D01*
X121365785Y-84732761D01*
X121413404Y-84685142D01*
X121461023Y-84589904D01*
X121461023Y-84494666D01*
X121413404Y-84399428D01*
X121365785Y-84351809D01*
X121270547Y-84304190D01*
X121080071Y-84256571D01*
X120984833Y-84208952D01*
X120937214Y-84161333D01*
X120889595Y-84066095D01*
X120889595Y-83970857D01*
X120937214Y-83875619D01*
X120984833Y-83828000D01*
X121080071Y-83780380D01*
X121318166Y-83780380D01*
X121461023Y-83828000D01*
X122080071Y-83780380D02*
X122270547Y-83780380D01*
X122365785Y-83828000D01*
X122461023Y-83923238D01*
X122508642Y-84113714D01*
X122508642Y-84447047D01*
X122461023Y-84637523D01*
X122365785Y-84732761D01*
X122270547Y-84780380D01*
X122080071Y-84780380D01*
X121984833Y-84732761D01*
X121889595Y-84637523D01*
X121841976Y-84447047D01*
X121841976Y-84113714D01*
X121889595Y-83923238D01*
X121984833Y-83828000D01*
X122080071Y-83780380D01*
X122841976Y-85161333D02*
X122889595Y-85113714D01*
X122984833Y-84970857D01*
X123032452Y-84875619D01*
X123080071Y-84732761D01*
X123127690Y-84494666D01*
X123127690Y-84304190D01*
X123080071Y-84066095D01*
X123032452Y-83923238D01*
X122984833Y-83828000D01*
X122889595Y-83685142D01*
X122841976Y-83637523D01*
X114889595Y-74620380D02*
X114889595Y-73620380D01*
X115127690Y-73620380D01*
X115270547Y-73668000D01*
X115365785Y-73763238D01*
X115413404Y-73858476D01*
X115461023Y-74048952D01*
X115461023Y-74191809D01*
X115413404Y-74382285D01*
X115365785Y-74477523D01*
X115270547Y-74572761D01*
X115127690Y-74620380D01*
X114889595Y-74620380D01*
X116603880Y-73572761D02*
X115746738Y-74858476D01*
X117508642Y-74525142D02*
X117461023Y-74572761D01*
X117318166Y-74620380D01*
X117222928Y-74620380D01*
X117080071Y-74572761D01*
X116984833Y-74477523D01*
X116937214Y-74382285D01*
X116889595Y-74191809D01*
X116889595Y-74048952D01*
X116937214Y-73858476D01*
X116984833Y-73763238D01*
X117080071Y-73668000D01*
X117222928Y-73620380D01*
X117318166Y-73620380D01*
X117461023Y-73668000D01*
X117508642Y-73715619D01*
X118984833Y-75001333D02*
X118937214Y-74953714D01*
X118841976Y-74810857D01*
X118794357Y-74715619D01*
X118746738Y-74572761D01*
X118699119Y-74334666D01*
X118699119Y-74144190D01*
X118746738Y-73906095D01*
X118794357Y-73763238D01*
X118841976Y-73668000D01*
X118937214Y-73525142D01*
X118984833Y-73477523D01*
X119937214Y-74525142D02*
X119889595Y-74572761D01*
X119746738Y-74620380D01*
X119651500Y-74620380D01*
X119508642Y-74572761D01*
X119413404Y-74477523D01*
X119365785Y-74382285D01*
X119318166Y-74191809D01*
X119318166Y-74048952D01*
X119365785Y-73858476D01*
X119413404Y-73763238D01*
X119508642Y-73668000D01*
X119651500Y-73620380D01*
X119746738Y-73620380D01*
X119889595Y-73668000D01*
X119937214Y-73715619D01*
X120365785Y-74620380D02*
X120365785Y-73620380D01*
X120699119Y-74334666D01*
X121032452Y-73620380D01*
X121032452Y-74620380D01*
X121508642Y-74620380D02*
X121508642Y-73620380D01*
X121746738Y-73620380D01*
X121889595Y-73668000D01*
X121984833Y-73763238D01*
X122032452Y-73858476D01*
X122080071Y-74048952D01*
X122080071Y-74191809D01*
X122032452Y-74382285D01*
X121984833Y-74477523D01*
X121889595Y-74572761D01*
X121746738Y-74620380D01*
X121508642Y-74620380D01*
X122413404Y-75001333D02*
X122461023Y-74953714D01*
X122556261Y-74810857D01*
X122603880Y-74715619D01*
X122651500Y-74572761D01*
X122699119Y-74334666D01*
X122699119Y-74144190D01*
X122651500Y-73906095D01*
X122603880Y-73763238D01*
X122556261Y-73668000D01*
X122461023Y-73525142D01*
X122413404Y-73477523D01*
X114746738Y-86320380D02*
X115318166Y-86320380D01*
X115032452Y-87320380D02*
X115032452Y-86320380D01*
X115413404Y-87415619D02*
X116175309Y-87415619D01*
X116984833Y-87225142D02*
X116937214Y-87272761D01*
X116794357Y-87320380D01*
X116699119Y-87320380D01*
X116556261Y-87272761D01*
X116461023Y-87177523D01*
X116413404Y-87082285D01*
X116365785Y-86891809D01*
X116365785Y-86748952D01*
X116413404Y-86558476D01*
X116461023Y-86463238D01*
X116556261Y-86368000D01*
X116699119Y-86320380D01*
X116794357Y-86320380D01*
X116937214Y-86368000D01*
X116984833Y-86415619D01*
X117889595Y-87320380D02*
X117413404Y-87320380D01*
X117413404Y-86320380D01*
X118222928Y-87320380D02*
X118222928Y-86320380D01*
X118794357Y-87320380D02*
X118365785Y-86748952D01*
X118794357Y-86320380D02*
X118222928Y-86891809D01*
X114746738Y-88860380D02*
X115318166Y-88860380D01*
X115032452Y-89860380D02*
X115032452Y-88860380D01*
X115413404Y-89955619D02*
X116175309Y-89955619D01*
X116984833Y-89765142D02*
X116937214Y-89812761D01*
X116794357Y-89860380D01*
X116699119Y-89860380D01*
X116556261Y-89812761D01*
X116461023Y-89717523D01*
X116413404Y-89622285D01*
X116365785Y-89431809D01*
X116365785Y-89288952D01*
X116413404Y-89098476D01*
X116461023Y-89003238D01*
X116556261Y-88908000D01*
X116699119Y-88860380D01*
X116794357Y-88860380D01*
X116937214Y-88908000D01*
X116984833Y-88955619D01*
X117365785Y-89812761D02*
X117508642Y-89860380D01*
X117746738Y-89860380D01*
X117841976Y-89812761D01*
X117889595Y-89765142D01*
X117937214Y-89669904D01*
X117937214Y-89574666D01*
X117889595Y-89479428D01*
X117841976Y-89431809D01*
X117746738Y-89384190D01*
X117556261Y-89336571D01*
X117461023Y-89288952D01*
X117413404Y-89241333D01*
X117365785Y-89146095D01*
X117365785Y-89050857D01*
X117413404Y-88955619D01*
X117461023Y-88908000D01*
X117556261Y-88860380D01*
X117794357Y-88860380D01*
X117937214Y-88908000D01*
X114746738Y-91400380D02*
X115318166Y-91400380D01*
X115032452Y-92400380D02*
X115032452Y-91400380D01*
X115413404Y-92495619D02*
X116175309Y-92495619D01*
X116413404Y-92400380D02*
X116413404Y-91400380D01*
X116651500Y-91400380D01*
X116794357Y-91448000D01*
X116889595Y-91543238D01*
X116937214Y-91638476D01*
X116984833Y-91828952D01*
X116984833Y-91971809D01*
X116937214Y-92162285D01*
X116889595Y-92257523D01*
X116794357Y-92352761D01*
X116651500Y-92400380D01*
X116413404Y-92400380D01*
X117413404Y-92400380D02*
X117413404Y-91400380D01*
X118937214Y-92781333D02*
X118889595Y-92733714D01*
X118794357Y-92590857D01*
X118746738Y-92495619D01*
X118699119Y-92352761D01*
X118651500Y-92114666D01*
X118651500Y-91924190D01*
X118699119Y-91686095D01*
X118746738Y-91543238D01*
X118794357Y-91448000D01*
X118889595Y-91305142D01*
X118937214Y-91257523D01*
X119318166Y-92400380D02*
X119318166Y-91400380D01*
X119651500Y-92114666D01*
X119984833Y-91400380D01*
X119984833Y-92400380D01*
X120651500Y-91400380D02*
X120841976Y-91400380D01*
X120937214Y-91448000D01*
X121032452Y-91543238D01*
X121080071Y-91733714D01*
X121080071Y-92067047D01*
X121032452Y-92257523D01*
X120937214Y-92352761D01*
X120841976Y-92400380D01*
X120651500Y-92400380D01*
X120556261Y-92352761D01*
X120461023Y-92257523D01*
X120413404Y-92067047D01*
X120413404Y-91733714D01*
X120461023Y-91543238D01*
X120556261Y-91448000D01*
X120651500Y-91400380D01*
X121461023Y-92352761D02*
X121603880Y-92400380D01*
X121841976Y-92400380D01*
X121937214Y-92352761D01*
X121984833Y-92305142D01*
X122032452Y-92209904D01*
X122032452Y-92114666D01*
X121984833Y-92019428D01*
X121937214Y-91971809D01*
X121841976Y-91924190D01*
X121651500Y-91876571D01*
X121556261Y-91828952D01*
X121508642Y-91781333D01*
X121461023Y-91686095D01*
X121461023Y-91590857D01*
X121508642Y-91495619D01*
X121556261Y-91448000D01*
X121651500Y-91400380D01*
X121889595Y-91400380D01*
X122032452Y-91448000D01*
X122461023Y-92400380D02*
X122461023Y-91400380D01*
X122841976Y-92781333D02*
X122889595Y-92733714D01*
X122984833Y-92590857D01*
X123032452Y-92495619D01*
X123080071Y-92352761D01*
X123127690Y-92114666D01*
X123127690Y-91924190D01*
X123080071Y-91686095D01*
X123032452Y-91543238D01*
X122984833Y-91448000D01*
X122889595Y-91305142D01*
X122841976Y-91257523D01*
D11*
X142868571Y-47887142D02*
X144582857Y-47887142D01*
X143725714Y-50887142D02*
X143725714Y-47887142D01*
X145582857Y-50887142D02*
X145582857Y-47887142D01*
X146868571Y-50887142D02*
X146868571Y-49315714D01*
X146725714Y-49030000D01*
X146440000Y-48887142D01*
X146011428Y-48887142D01*
X145725714Y-49030000D01*
X145582857Y-49172857D01*
X149440000Y-50744285D02*
X149154285Y-50887142D01*
X148582857Y-50887142D01*
X148297142Y-50744285D01*
X148154285Y-50458571D01*
X148154285Y-49315714D01*
X148297142Y-49030000D01*
X148582857Y-48887142D01*
X149154285Y-48887142D01*
X149440000Y-49030000D01*
X149582857Y-49315714D01*
X149582857Y-49601428D01*
X148154285Y-49887142D01*
X150868571Y-50887142D02*
X150868571Y-48887142D01*
X150868571Y-49458571D02*
X151011428Y-49172857D01*
X151154285Y-49030000D01*
X151440000Y-48887142D01*
X151725714Y-48887142D01*
X152725714Y-50887142D02*
X152725714Y-48887142D01*
X152725714Y-49172857D02*
X152868571Y-49030000D01*
X153154285Y-48887142D01*
X153582857Y-48887142D01*
X153868571Y-49030000D01*
X154011428Y-49315714D01*
X154011428Y-50887142D01*
X154011428Y-49315714D02*
X154154285Y-49030000D01*
X154440000Y-48887142D01*
X154868571Y-48887142D01*
X155154285Y-49030000D01*
X155297142Y-49315714D01*
X155297142Y-50887142D01*
X157154285Y-50887142D02*
X156868571Y-50744285D01*
X156725714Y-50601428D01*
X156582857Y-50315714D01*
X156582857Y-49458571D01*
X156725714Y-49172857D01*
X156868571Y-49030000D01*
X157154285Y-48887142D01*
X157582857Y-48887142D01*
X157868571Y-49030000D01*
X158011428Y-49172857D01*
X158154285Y-49458571D01*
X158154285Y-50315714D01*
X158011428Y-50601428D01*
X157868571Y-50744285D01*
X157582857Y-50887142D01*
X157154285Y-50887142D01*
X159297142Y-50744285D02*
X159582857Y-50887142D01*
X160154285Y-50887142D01*
X160440000Y-50744285D01*
X160582857Y-50458571D01*
X160582857Y-50315714D01*
X160440000Y-50030000D01*
X160154285Y-49887142D01*
X159725714Y-49887142D01*
X159440000Y-49744285D01*
X159297142Y-49458571D01*
X159297142Y-49315714D01*
X159440000Y-49030000D01*
X159725714Y-48887142D01*
X160154285Y-48887142D01*
X160440000Y-49030000D01*
X161440000Y-48887142D02*
X162582857Y-48887142D01*
X161868571Y-47887142D02*
X161868571Y-50458571D01*
X162011428Y-50744285D01*
X162297142Y-50887142D01*
X162582857Y-50887142D01*
X164868571Y-50887142D02*
X164868571Y-49315714D01*
X164725714Y-49030000D01*
X164440000Y-48887142D01*
X163868571Y-48887142D01*
X163582857Y-49030000D01*
X164868571Y-50744285D02*
X164582857Y-50887142D01*
X163868571Y-50887142D01*
X163582857Y-50744285D01*
X163440000Y-50458571D01*
X163440000Y-50172857D01*
X163582857Y-49887142D01*
X163868571Y-49744285D01*
X164582857Y-49744285D01*
X164868571Y-49601428D01*
X165868571Y-48887142D02*
X167011428Y-48887142D01*
X166297142Y-47887142D02*
X166297142Y-50458571D01*
X166440000Y-50744285D01*
X166725714Y-50887142D01*
X167011428Y-50887142D01*
D10*
X114746738Y-93940380D02*
X115318166Y-93940380D01*
X115032452Y-94940380D02*
X115032452Y-93940380D01*
X115413404Y-95035619D02*
X116175309Y-95035619D01*
X116413404Y-94940380D02*
X116413404Y-93940380D01*
X116651500Y-93940380D01*
X116794357Y-93988000D01*
X116889595Y-94083238D01*
X116937214Y-94178476D01*
X116984833Y-94368952D01*
X116984833Y-94511809D01*
X116937214Y-94702285D01*
X116889595Y-94797523D01*
X116794357Y-94892761D01*
X116651500Y-94940380D01*
X116413404Y-94940380D01*
X117603880Y-93940380D02*
X117794357Y-93940380D01*
X117889595Y-93988000D01*
X117984833Y-94083238D01*
X118032452Y-94273714D01*
X118032452Y-94607047D01*
X117984833Y-94797523D01*
X117889595Y-94892761D01*
X117794357Y-94940380D01*
X117603880Y-94940380D01*
X117508642Y-94892761D01*
X117413404Y-94797523D01*
X117365785Y-94607047D01*
X117365785Y-94273714D01*
X117413404Y-94083238D01*
X117508642Y-93988000D01*
X117603880Y-93940380D01*
X119508642Y-95321333D02*
X119461023Y-95273714D01*
X119365785Y-95130857D01*
X119318166Y-95035619D01*
X119270547Y-94892761D01*
X119222928Y-94654666D01*
X119222928Y-94464190D01*
X119270547Y-94226095D01*
X119318166Y-94083238D01*
X119365785Y-93988000D01*
X119461023Y-93845142D01*
X119508642Y-93797523D01*
X119889595Y-94940380D02*
X119889595Y-93940380D01*
X120222928Y-94654666D01*
X120556261Y-93940380D01*
X120556261Y-94940380D01*
X121032452Y-94940380D02*
X121032452Y-93940380D01*
X121461023Y-94892761D02*
X121603880Y-94940380D01*
X121841976Y-94940380D01*
X121937214Y-94892761D01*
X121984833Y-94845142D01*
X122032452Y-94749904D01*
X122032452Y-94654666D01*
X121984833Y-94559428D01*
X121937214Y-94511809D01*
X121841976Y-94464190D01*
X121651500Y-94416571D01*
X121556261Y-94368952D01*
X121508642Y-94321333D01*
X121461023Y-94226095D01*
X121461023Y-94130857D01*
X121508642Y-94035619D01*
X121556261Y-93988000D01*
X121651500Y-93940380D01*
X121889595Y-93940380D01*
X122032452Y-93988000D01*
X122651500Y-93940380D02*
X122841976Y-93940380D01*
X122937214Y-93988000D01*
X123032452Y-94083238D01*
X123080071Y-94273714D01*
X123080071Y-94607047D01*
X123032452Y-94797523D01*
X122937214Y-94892761D01*
X122841976Y-94940380D01*
X122651500Y-94940380D01*
X122556261Y-94892761D01*
X122461023Y-94797523D01*
X122413404Y-94607047D01*
X122413404Y-94273714D01*
X122461023Y-94083238D01*
X122556261Y-93988000D01*
X122651500Y-93940380D01*
X123413404Y-95321333D02*
X123461023Y-95273714D01*
X123556261Y-95130857D01*
X123603880Y-95035619D01*
X123651500Y-94892761D01*
X123699119Y-94654666D01*
X123699119Y-94464190D01*
X123651500Y-94226095D01*
X123603880Y-94083238D01*
X123556261Y-93988000D01*
X123461023Y-93845142D01*
X123413404Y-93797523D01*
X114746738Y-96480380D02*
X115318166Y-96480380D01*
X115032452Y-97480380D02*
X115032452Y-96480380D01*
X115413404Y-97575619D02*
X116175309Y-97575619D01*
X116413404Y-97480380D02*
X116413404Y-96480380D01*
X117461023Y-97480380D02*
X117127690Y-97004190D01*
X116889595Y-97480380D02*
X116889595Y-96480380D01*
X117270547Y-96480380D01*
X117365785Y-96528000D01*
X117413404Y-96575619D01*
X117461023Y-96670857D01*
X117461023Y-96813714D01*
X117413404Y-96908952D01*
X117365785Y-96956571D01*
X117270547Y-97004190D01*
X116889595Y-97004190D01*
X118556261Y-97575619D02*
X118461023Y-97528000D01*
X118365785Y-97432761D01*
X118222928Y-97289904D01*
X118127690Y-97242285D01*
X118032452Y-97242285D01*
X118080071Y-97480380D02*
X117984833Y-97432761D01*
X117889595Y-97337523D01*
X117841976Y-97147047D01*
X117841976Y-96813714D01*
X117889595Y-96623238D01*
X117984833Y-96528000D01*
X118080071Y-96480380D01*
X118270547Y-96480380D01*
X118365785Y-96528000D01*
X118461023Y-96623238D01*
X118508642Y-96813714D01*
X118508642Y-97147047D01*
X118461023Y-97337523D01*
X118365785Y-97432761D01*
X118270547Y-97480380D01*
X118080071Y-97480380D01*
X132643714Y-57300761D02*
X132786571Y-57348380D01*
X133024666Y-57348380D01*
X133119904Y-57300761D01*
X133167523Y-57253142D01*
X133215142Y-57157904D01*
X133215142Y-57062666D01*
X133167523Y-56967428D01*
X133119904Y-56919809D01*
X133024666Y-56872190D01*
X132834190Y-56824571D01*
X132738952Y-56776952D01*
X132691333Y-56729333D01*
X132643714Y-56634095D01*
X132643714Y-56538857D01*
X132691333Y-56443619D01*
X132738952Y-56396000D01*
X132834190Y-56348380D01*
X133072285Y-56348380D01*
X133215142Y-56396000D01*
X133643714Y-57348380D02*
X133643714Y-56348380D01*
X133881809Y-56348380D01*
X134024666Y-56396000D01*
X134119904Y-56491238D01*
X134167523Y-56586476D01*
X134215142Y-56776952D01*
X134215142Y-56919809D01*
X134167523Y-57110285D01*
X134119904Y-57205523D01*
X134024666Y-57300761D01*
X133881809Y-57348380D01*
X133643714Y-57348380D01*
X134596095Y-57062666D02*
X135072285Y-57062666D01*
X134500857Y-57348380D02*
X134834190Y-56348380D01*
X135167523Y-57348380D01*
X128016095Y-56396000D02*
X127920857Y-56348380D01*
X127778000Y-56348380D01*
X127635142Y-56396000D01*
X127539904Y-56491238D01*
X127492285Y-56586476D01*
X127444666Y-56776952D01*
X127444666Y-56919809D01*
X127492285Y-57110285D01*
X127539904Y-57205523D01*
X127635142Y-57300761D01*
X127778000Y-57348380D01*
X127873238Y-57348380D01*
X128016095Y-57300761D01*
X128063714Y-57253142D01*
X128063714Y-56919809D01*
X127873238Y-56919809D01*
X128492285Y-57348380D02*
X128492285Y-56348380D01*
X129063714Y-57348380D01*
X129063714Y-56348380D01*
X129539904Y-57348380D02*
X129539904Y-56348380D01*
X129778000Y-56348380D01*
X129920857Y-56396000D01*
X130016095Y-56491238D01*
X130063714Y-56586476D01*
X130111333Y-56776952D01*
X130111333Y-56919809D01*
X130063714Y-57110285D01*
X130016095Y-57205523D01*
X129920857Y-57300761D01*
X129778000Y-57348380D01*
X129539904Y-57348380D01*
X130127523Y-51204761D02*
X130270380Y-51252380D01*
X130508476Y-51252380D01*
X130603714Y-51204761D01*
X130651333Y-51157142D01*
X130698952Y-51061904D01*
X130698952Y-50966666D01*
X130651333Y-50871428D01*
X130603714Y-50823809D01*
X130508476Y-50776190D01*
X130318000Y-50728571D01*
X130222761Y-50680952D01*
X130175142Y-50633333D01*
X130127523Y-50538095D01*
X130127523Y-50442857D01*
X130175142Y-50347619D01*
X130222761Y-50300000D01*
X130318000Y-50252380D01*
X130556095Y-50252380D01*
X130698952Y-50300000D01*
X131698952Y-51157142D02*
X131651333Y-51204761D01*
X131508476Y-51252380D01*
X131413238Y-51252380D01*
X131270380Y-51204761D01*
X131175142Y-51109523D01*
X131127523Y-51014285D01*
X131079904Y-50823809D01*
X131079904Y-50680952D01*
X131127523Y-50490476D01*
X131175142Y-50395238D01*
X131270380Y-50300000D01*
X131413238Y-50252380D01*
X131508476Y-50252380D01*
X131651333Y-50300000D01*
X131698952Y-50347619D01*
X132603714Y-51252380D02*
X132127523Y-51252380D01*
X132127523Y-50252380D01*
X126047523Y-50252380D02*
X125571333Y-50252380D01*
X125523714Y-50728571D01*
X125571333Y-50680952D01*
X125666571Y-50633333D01*
X125904666Y-50633333D01*
X125999904Y-50680952D01*
X126047523Y-50728571D01*
X126095142Y-50823809D01*
X126095142Y-51061904D01*
X126047523Y-51157142D01*
X125999904Y-51204761D01*
X125904666Y-51252380D01*
X125666571Y-51252380D01*
X125571333Y-51204761D01*
X125523714Y-51157142D01*
X126380857Y-50252380D02*
X126714190Y-51252380D01*
X127047523Y-50252380D01*
X196873904Y-50966666D02*
X197350095Y-50966666D01*
X196778666Y-51252380D02*
X197112000Y-50252380D01*
X197445333Y-51252380D01*
X198350095Y-51157142D02*
X198302476Y-51204761D01*
X198159619Y-51252380D01*
X198064380Y-51252380D01*
X197921523Y-51204761D01*
X197826285Y-51109523D01*
X197778666Y-51014285D01*
X197731047Y-50823809D01*
X197731047Y-50680952D01*
X197778666Y-50490476D01*
X197826285Y-50395238D01*
X197921523Y-50300000D01*
X198064380Y-50252380D01*
X198159619Y-50252380D01*
X198302476Y-50300000D01*
X198350095Y-50347619D01*
X198691523Y-83526380D02*
X198215333Y-83526380D01*
X198167714Y-84002571D01*
X198215333Y-83954952D01*
X198310571Y-83907333D01*
X198548666Y-83907333D01*
X198643904Y-83954952D01*
X198691523Y-84002571D01*
X198739142Y-84097809D01*
X198739142Y-84335904D01*
X198691523Y-84431142D01*
X198643904Y-84478761D01*
X198548666Y-84526380D01*
X198310571Y-84526380D01*
X198215333Y-84478761D01*
X198167714Y-84431142D01*
X199024857Y-83526380D02*
X199358190Y-84526380D01*
X199691523Y-83526380D01*
X198120095Y-75700000D02*
X198024857Y-75652380D01*
X197882000Y-75652380D01*
X197739142Y-75700000D01*
X197643904Y-75795238D01*
X197596285Y-75890476D01*
X197548666Y-76080952D01*
X197548666Y-76223809D01*
X197596285Y-76414285D01*
X197643904Y-76509523D01*
X197739142Y-76604761D01*
X197882000Y-76652380D01*
X197977238Y-76652380D01*
X198120095Y-76604761D01*
X198167714Y-76557142D01*
X198167714Y-76223809D01*
X197977238Y-76223809D01*
X198596285Y-76652380D02*
X198596285Y-75652380D01*
X199167714Y-76652380D01*
X199167714Y-75652380D01*
X199643904Y-76652380D02*
X199643904Y-75652380D01*
X199882000Y-75652380D01*
X200024857Y-75700000D01*
X200120095Y-75795238D01*
X200167714Y-75890476D01*
X200215333Y-76080952D01*
X200215333Y-76223809D01*
X200167714Y-76414285D01*
X200120095Y-76509523D01*
X200024857Y-76604761D01*
X199882000Y-76652380D01*
X199643904Y-76652380D01*
D12*
X109982000Y-106172000D02*
X196088000Y-106172000D01*
X196088000Y-55880000D02*
X196088000Y-106172000D01*
X109982000Y-55880000D02*
X196088000Y-55880000D01*
X109982000Y-106172000D02*
X109982000Y-55880000D01*
X113598000Y-62678000D02*
X110938000Y-62678000D01*
X113598000Y-95758000D02*
X113598000Y-62678000D01*
X110938000Y-95758000D02*
X110938000Y-62678000D01*
X113598000Y-95758000D02*
X110938000Y-95758000D01*
X113598000Y-97028000D02*
X113598000Y-98358000D01*
X113598000Y-98358000D02*
X112268000Y-98358000D01*
X194878000Y-75378000D02*
X192218000Y-75378000D01*
X194878000Y-83058000D02*
X194878000Y-75378000D01*
X192218000Y-83058000D02*
X192218000Y-75378000D01*
X194878000Y-83058000D02*
X192218000Y-83058000D01*
X194878000Y-84328000D02*
X194878000Y-85658000D01*
X194878000Y-85658000D02*
X193548000Y-85658000D01*
X124908000Y-55178000D02*
X124908000Y-53848000D01*
X126238000Y-55178000D02*
X124908000Y-55178000D01*
X127508000Y-55178000D02*
X127508000Y-52518000D01*
X127508000Y-52518000D02*
X135188000Y-52518000D01*
X127508000Y-55178000D02*
X135188000Y-55178000D01*
X135188000Y-55178000D02*
X135188000Y-52518000D01*
X200212000Y-77410000D02*
X197552000Y-77410000D01*
X200212000Y-80010000D02*
X200212000Y-77410000D01*
X197552000Y-80010000D02*
X197552000Y-77410000D01*
X200212000Y-80010000D02*
X197552000Y-80010000D01*
X200212000Y-81280000D02*
X200212000Y-82610000D01*
X200212000Y-82610000D02*
X198882000Y-82610000D01*
X195834000Y-53594000D02*
X185674000Y-53594000D01*
X195834000Y-54864000D02*
X195834000Y-47244000D01*
X195834000Y-47244000D02*
X185674000Y-47244000D01*
X185674000Y-47244000D02*
X185674000Y-54864000D01*
X185674000Y-54864000D02*
X195834000Y-54864000D01*
D13*
X195384000Y-98850000D02*
X170884000Y-98850000D01*
X170884000Y-98850000D02*
X170884000Y-104350000D01*
X170884000Y-104350000D02*
X195384000Y-104350000D01*
X195384000Y-104350000D02*
X195384000Y-98850000D01*
D14*
X170280000Y-100330000D02*
G75*
G03X170280000Y-100330000I-100000J0D01*
G01*
D13*
X168636000Y-56062000D02*
X168656000Y-104394000D01*
X168656000Y-104394000D02*
X140756000Y-104394000D01*
X140716000Y-104394000D02*
X140736000Y-56062000D01*
X140736000Y-56062000D02*
X168636000Y-56062000D01*
D10*
X111934666Y-98810380D02*
X111934666Y-99524666D01*
X111887047Y-99667523D01*
X111791809Y-99762761D01*
X111648952Y-99810380D01*
X111553714Y-99810380D01*
X112934666Y-99810380D02*
X112363238Y-99810380D01*
X112648952Y-99810380D02*
X112648952Y-98810380D01*
X112553714Y-98953238D01*
X112458476Y-99048476D01*
X112363238Y-99096095D01*
X193214666Y-86110380D02*
X193214666Y-86824666D01*
X193167047Y-86967523D01*
X193071809Y-87062761D01*
X192928952Y-87110380D01*
X192833714Y-87110380D01*
X193643238Y-86205619D02*
X193690857Y-86158000D01*
X193786095Y-86110380D01*
X194024190Y-86110380D01*
X194119428Y-86158000D01*
X194167047Y-86205619D01*
X194214666Y-86300857D01*
X194214666Y-86396095D01*
X194167047Y-86538952D01*
X193595619Y-87110380D01*
X194214666Y-87110380D01*
X122856666Y-53300380D02*
X122856666Y-54014666D01*
X122809047Y-54157523D01*
X122713809Y-54252761D01*
X122570952Y-54300380D01*
X122475714Y-54300380D01*
X123237619Y-53300380D02*
X123856666Y-53300380D01*
X123523333Y-53681333D01*
X123666190Y-53681333D01*
X123761428Y-53728952D01*
X123809047Y-53776571D01*
X123856666Y-53871809D01*
X123856666Y-54109904D01*
X123809047Y-54205142D01*
X123761428Y-54252761D01*
X123666190Y-54300380D01*
X123380476Y-54300380D01*
X123285238Y-54252761D01*
X123237619Y-54205142D01*
X201342666Y-79208380D02*
X201342666Y-79922666D01*
X201295047Y-80065523D01*
X201199809Y-80160761D01*
X201056952Y-80208380D01*
X200961714Y-80208380D01*
X202247428Y-79541714D02*
X202247428Y-80208380D01*
X202009333Y-79160761D02*
X201771238Y-79875047D01*
X202390285Y-79875047D01*
X183816666Y-50252380D02*
X183816666Y-50966666D01*
X183769047Y-51109523D01*
X183673809Y-51204761D01*
X183530952Y-51252380D01*
X183435714Y-51252380D01*
X184769047Y-50252380D02*
X184292857Y-50252380D01*
X184245238Y-50728571D01*
X184292857Y-50680952D01*
X184388095Y-50633333D01*
X184626190Y-50633333D01*
X184721428Y-50680952D01*
X184769047Y-50728571D01*
X184816666Y-50823809D01*
X184816666Y-51061904D01*
X184769047Y-51157142D01*
X184721428Y-51204761D01*
X184626190Y-51252380D01*
X184388095Y-51252380D01*
X184292857Y-51204761D01*
X184245238Y-51157142D01*
D15*
X172806177Y-97912120D02*
X172806177Y-96910695D01*
X173378420Y-97912120D02*
X172949238Y-97339877D01*
X173378420Y-96910695D02*
X172806177Y-97482938D01*
X174332158Y-97912120D02*
X173759916Y-97912120D01*
X174046037Y-97912120D02*
X174046037Y-96910695D01*
X173950663Y-97053756D01*
X173855289Y-97149130D01*
X173759916Y-97196817D01*
X165099801Y-105878169D02*
X165099801Y-106688005D01*
X165147438Y-106783280D01*
X165195076Y-106830918D01*
X165290350Y-106878555D01*
X165480900Y-106878555D01*
X165576175Y-106830918D01*
X165623812Y-106783280D01*
X165671450Y-106688005D01*
X165671450Y-105878169D01*
X166671836Y-106878555D02*
X166100187Y-106878555D01*
X166386011Y-106878555D02*
X166386011Y-105878169D01*
X166290736Y-106021081D01*
X166195462Y-106116356D01*
X166100187Y-106163994D01*
M02*
