G04 #@! TF.GenerationSoftware,KiCad,Pcbnew,5.1.4+dfsg1-1*
G04 #@! TF.CreationDate,2020-01-19T14:17:45-05:00*
G04 #@! TF.ProjectId,thermostat_master,74686572-6d6f-4737-9461-745f6d617374,rev?*
G04 #@! TF.SameCoordinates,Original*
G04 #@! TF.FileFunction,Copper,L2,Bot*
G04 #@! TF.FilePolarity,Positive*
%FSLAX46Y46*%
G04 Gerber Fmt 4.6, Leading zero omitted, Abs format (unit mm)*
G04 Created by KiCad (PCBNEW 5.1.4+dfsg1-1) date 2020-01-19 14:17:45*
%MOMM*%
%LPD*%
G04 APERTURE LIST*
%ADD10R,1.700000X1.700000*%
%ADD11O,1.700000X1.700000*%
%ADD12R,3.000000X3.000000*%
%ADD13C,3.000000*%
%ADD14C,1.508000*%
%ADD15R,1.508000X1.508000*%
%ADD16R,1.560000X1.560000*%
%ADD17C,1.560000*%
%ADD18C,0.800000*%
%ADD19C,0.250000*%
%ADD20C,0.254000*%
G04 APERTURE END LIST*
D10*
X112268000Y-97028000D03*
D11*
X112268000Y-94488000D03*
X112268000Y-91948000D03*
X112268000Y-89408000D03*
X112268000Y-86868000D03*
X112268000Y-84328000D03*
X112268000Y-81788000D03*
X112268000Y-79248000D03*
X112268000Y-76708000D03*
X112268000Y-74168000D03*
X112268000Y-71628000D03*
X112268000Y-69088000D03*
X112268000Y-66548000D03*
X112268000Y-64008000D03*
D10*
X193548000Y-84328000D03*
D11*
X193548000Y-81788000D03*
X193548000Y-79248000D03*
X193548000Y-76708000D03*
X133858000Y-53848000D03*
X131318000Y-53848000D03*
X128778000Y-53848000D03*
D10*
X126238000Y-53848000D03*
X198882000Y-81280000D03*
D11*
X198882000Y-78740000D03*
D12*
X188214000Y-51054000D03*
D13*
X193294000Y-51054000D03*
D14*
X193294000Y-100200000D03*
X190754000Y-100200000D03*
X180594000Y-100200000D03*
D15*
X172974000Y-100200000D03*
D16*
X167386000Y-103072000D03*
D17*
X167386000Y-100532000D03*
X167386000Y-57352000D03*
X167386000Y-97992000D03*
X167386000Y-95452000D03*
X167386000Y-92912000D03*
X167386000Y-90372000D03*
X167386000Y-87832000D03*
X167386000Y-85292000D03*
X167386000Y-82752000D03*
X167386000Y-80212000D03*
X167386000Y-77672000D03*
X167386000Y-75132000D03*
X167386000Y-72592000D03*
X167386000Y-70052000D03*
X167386000Y-67512000D03*
X167386000Y-64972000D03*
X167386000Y-62432000D03*
X167386000Y-59892000D03*
X141986000Y-103072000D03*
X141986000Y-100532000D03*
X141986000Y-97992000D03*
X141986000Y-95452000D03*
X141986000Y-92912000D03*
X141986000Y-90372000D03*
X141986000Y-87832000D03*
X141986000Y-85292000D03*
X141986000Y-82752000D03*
X141986000Y-80212000D03*
X141986000Y-77672000D03*
X141986000Y-75132000D03*
X141986000Y-72592000D03*
X141986000Y-70052000D03*
X141986000Y-67512000D03*
X141986000Y-64972000D03*
X141986000Y-62432000D03*
X141986000Y-59892000D03*
X141986000Y-57352000D03*
D18*
X116840000Y-71120000D03*
X124968000Y-67564000D03*
X119888000Y-64770000D03*
X130048000Y-66294000D03*
D19*
X165951001Y-89266999D02*
X166606001Y-88611999D01*
X116151082Y-89266999D02*
X165951001Y-89266999D01*
X113470081Y-91948000D02*
X116151082Y-89266999D01*
X166606001Y-88611999D02*
X167386000Y-87832000D01*
X112268000Y-91948000D02*
X113470081Y-91948000D01*
X166606001Y-86071999D02*
X167386000Y-85292000D01*
X166280999Y-86397001D02*
X166606001Y-86071999D01*
X115373671Y-89408000D02*
X118384670Y-86397001D01*
X118384670Y-86397001D02*
X166280999Y-86397001D01*
X112268000Y-89408000D02*
X115373671Y-89408000D01*
X163740999Y-83857001D02*
X166606001Y-80991999D01*
X115278999Y-83857001D02*
X163740999Y-83857001D01*
X166606001Y-80991999D02*
X167386000Y-80212000D01*
X112268000Y-86868000D02*
X115278999Y-83857001D01*
X166606001Y-75911999D02*
X167386000Y-75132000D01*
X161200999Y-81317001D02*
X166606001Y-75911999D01*
X114337001Y-81317001D02*
X161200999Y-81317001D01*
X112268000Y-79248000D02*
X114337001Y-81317001D01*
X112268000Y-76708000D02*
X116840000Y-72136000D01*
X116840000Y-72136000D02*
X116840000Y-71120000D01*
X166606001Y-68291999D02*
X167386000Y-67512000D01*
X166280999Y-68617001D02*
X166606001Y-68291999D01*
X126021001Y-68617001D02*
X166280999Y-68617001D01*
X124968000Y-67564000D02*
X126021001Y-68617001D01*
X121412000Y-66294000D02*
X119888000Y-64770000D01*
X130048000Y-66294000D02*
X121412000Y-66294000D01*
X130862000Y-69088000D02*
X141986000Y-80212000D01*
X112268000Y-69088000D02*
X130862000Y-69088000D01*
X190194000Y-70052000D02*
X198882000Y-78740000D01*
X167386000Y-70052000D02*
X190194000Y-70052000D01*
X168165999Y-69272001D02*
X167386000Y-70052000D01*
X168491001Y-66981599D02*
X168491001Y-68946999D01*
X167916401Y-66406999D02*
X168491001Y-66981599D01*
X168491001Y-68946999D02*
X168165999Y-69272001D01*
X151040999Y-66406999D02*
X167916401Y-66406999D01*
X141986000Y-57352000D02*
X151040999Y-66406999D01*
D20*
G36*
X202540001Y-108560000D02*
G01*
X107340000Y-108560000D01*
X107340000Y-69088000D01*
X110775815Y-69088000D01*
X110804487Y-69379111D01*
X110889401Y-69659034D01*
X111027294Y-69917014D01*
X111212866Y-70143134D01*
X111438986Y-70328706D01*
X111493791Y-70358000D01*
X111438986Y-70387294D01*
X111212866Y-70572866D01*
X111027294Y-70798986D01*
X110889401Y-71056966D01*
X110804487Y-71336889D01*
X110775815Y-71628000D01*
X110804487Y-71919111D01*
X110889401Y-72199034D01*
X111027294Y-72457014D01*
X111212866Y-72683134D01*
X111438986Y-72868706D01*
X111493791Y-72898000D01*
X111438986Y-72927294D01*
X111212866Y-73112866D01*
X111027294Y-73338986D01*
X110889401Y-73596966D01*
X110804487Y-73876889D01*
X110775815Y-74168000D01*
X110804487Y-74459111D01*
X110889401Y-74739034D01*
X111027294Y-74997014D01*
X111212866Y-75223134D01*
X111438986Y-75408706D01*
X111493791Y-75438000D01*
X111438986Y-75467294D01*
X111212866Y-75652866D01*
X111027294Y-75878986D01*
X110889401Y-76136966D01*
X110804487Y-76416889D01*
X110775815Y-76708000D01*
X110804487Y-76999111D01*
X110889401Y-77279034D01*
X111027294Y-77537014D01*
X111212866Y-77763134D01*
X111438986Y-77948706D01*
X111493791Y-77978000D01*
X111438986Y-78007294D01*
X111212866Y-78192866D01*
X111027294Y-78418986D01*
X110889401Y-78676966D01*
X110804487Y-78956889D01*
X110775815Y-79248000D01*
X110804487Y-79539111D01*
X110889401Y-79819034D01*
X111027294Y-80077014D01*
X111212866Y-80303134D01*
X111438986Y-80488706D01*
X111493791Y-80518000D01*
X111438986Y-80547294D01*
X111212866Y-80732866D01*
X111027294Y-80958986D01*
X110889401Y-81216966D01*
X110804487Y-81496889D01*
X110775815Y-81788000D01*
X110804487Y-82079111D01*
X110889401Y-82359034D01*
X111027294Y-82617014D01*
X111212866Y-82843134D01*
X111438986Y-83028706D01*
X111493791Y-83058000D01*
X111438986Y-83087294D01*
X111212866Y-83272866D01*
X111027294Y-83498986D01*
X110889401Y-83756966D01*
X110804487Y-84036889D01*
X110775815Y-84328000D01*
X110804487Y-84619111D01*
X110889401Y-84899034D01*
X111027294Y-85157014D01*
X111212866Y-85383134D01*
X111438986Y-85568706D01*
X111493791Y-85598000D01*
X111438986Y-85627294D01*
X111212866Y-85812866D01*
X111027294Y-86038986D01*
X110889401Y-86296966D01*
X110804487Y-86576889D01*
X110775815Y-86868000D01*
X110804487Y-87159111D01*
X110889401Y-87439034D01*
X111027294Y-87697014D01*
X111212866Y-87923134D01*
X111438986Y-88108706D01*
X111493791Y-88138000D01*
X111438986Y-88167294D01*
X111212866Y-88352866D01*
X111027294Y-88578986D01*
X110889401Y-88836966D01*
X110804487Y-89116889D01*
X110775815Y-89408000D01*
X110804487Y-89699111D01*
X110889401Y-89979034D01*
X111027294Y-90237014D01*
X111212866Y-90463134D01*
X111438986Y-90648706D01*
X111493791Y-90678000D01*
X111438986Y-90707294D01*
X111212866Y-90892866D01*
X111027294Y-91118986D01*
X110889401Y-91376966D01*
X110804487Y-91656889D01*
X110775815Y-91948000D01*
X110804487Y-92239111D01*
X110889401Y-92519034D01*
X111027294Y-92777014D01*
X111212866Y-93003134D01*
X111438986Y-93188706D01*
X111493791Y-93218000D01*
X111438986Y-93247294D01*
X111212866Y-93432866D01*
X111027294Y-93658986D01*
X110889401Y-93916966D01*
X110804487Y-94196889D01*
X110775815Y-94488000D01*
X110804487Y-94779111D01*
X110889401Y-95059034D01*
X111027294Y-95317014D01*
X111212866Y-95543134D01*
X111242687Y-95567607D01*
X111173820Y-95588498D01*
X111063506Y-95647463D01*
X110966815Y-95726815D01*
X110887463Y-95823506D01*
X110828498Y-95933820D01*
X110792188Y-96053518D01*
X110779928Y-96178000D01*
X110779928Y-97878000D01*
X110792188Y-98002482D01*
X110828498Y-98122180D01*
X110887463Y-98232494D01*
X110966815Y-98329185D01*
X111063506Y-98408537D01*
X111173820Y-98467502D01*
X111293518Y-98503812D01*
X111418000Y-98516072D01*
X113118000Y-98516072D01*
X113242482Y-98503812D01*
X113362180Y-98467502D01*
X113472494Y-98408537D01*
X113569185Y-98329185D01*
X113648537Y-98232494D01*
X113707502Y-98122180D01*
X113743812Y-98002482D01*
X113756072Y-97878000D01*
X113756072Y-96178000D01*
X113743812Y-96053518D01*
X113707502Y-95933820D01*
X113648537Y-95823506D01*
X113569185Y-95726815D01*
X113472494Y-95647463D01*
X113362180Y-95588498D01*
X113293313Y-95567607D01*
X113323134Y-95543134D01*
X113508706Y-95317014D01*
X113646599Y-95059034D01*
X113731513Y-94779111D01*
X113760185Y-94488000D01*
X113731513Y-94196889D01*
X113646599Y-93916966D01*
X113508706Y-93658986D01*
X113323134Y-93432866D01*
X113097014Y-93247294D01*
X113042209Y-93218000D01*
X113097014Y-93188706D01*
X113323134Y-93003134D01*
X113508706Y-92777014D01*
X113547716Y-92704031D01*
X113619067Y-92697003D01*
X113762328Y-92653546D01*
X113894357Y-92582974D01*
X114010082Y-92488001D01*
X114033885Y-92458997D01*
X116465884Y-90026999D01*
X140611903Y-90026999D01*
X140571000Y-90232635D01*
X140571000Y-90511365D01*
X140625377Y-90784740D01*
X140732043Y-91042254D01*
X140886897Y-91274010D01*
X141083990Y-91471103D01*
X141315746Y-91625957D01*
X141354477Y-91642000D01*
X141315746Y-91658043D01*
X141083990Y-91812897D01*
X140886897Y-92009990D01*
X140732043Y-92241746D01*
X140625377Y-92499260D01*
X140571000Y-92772635D01*
X140571000Y-93051365D01*
X140625377Y-93324740D01*
X140732043Y-93582254D01*
X140886897Y-93814010D01*
X141083990Y-94011103D01*
X141315746Y-94165957D01*
X141354477Y-94182000D01*
X141315746Y-94198043D01*
X141083990Y-94352897D01*
X140886897Y-94549990D01*
X140732043Y-94781746D01*
X140625377Y-95039260D01*
X140571000Y-95312635D01*
X140571000Y-95591365D01*
X140625377Y-95864740D01*
X140732043Y-96122254D01*
X140886897Y-96354010D01*
X141083990Y-96551103D01*
X141315746Y-96705957D01*
X141354477Y-96722000D01*
X141315746Y-96738043D01*
X141083990Y-96892897D01*
X140886897Y-97089990D01*
X140732043Y-97321746D01*
X140625377Y-97579260D01*
X140571000Y-97852635D01*
X140571000Y-98131365D01*
X140625377Y-98404740D01*
X140732043Y-98662254D01*
X140886897Y-98894010D01*
X141083990Y-99091103D01*
X141315746Y-99245957D01*
X141354477Y-99262000D01*
X141315746Y-99278043D01*
X141083990Y-99432897D01*
X140886897Y-99629990D01*
X140732043Y-99861746D01*
X140625377Y-100119260D01*
X140571000Y-100392635D01*
X140571000Y-100671365D01*
X140625377Y-100944740D01*
X140732043Y-101202254D01*
X140886897Y-101434010D01*
X141083990Y-101631103D01*
X141315746Y-101785957D01*
X141354477Y-101802000D01*
X141315746Y-101818043D01*
X141083990Y-101972897D01*
X140886897Y-102169990D01*
X140732043Y-102401746D01*
X140625377Y-102659260D01*
X140571000Y-102932635D01*
X140571000Y-103211365D01*
X140625377Y-103484740D01*
X140732043Y-103742254D01*
X140886897Y-103974010D01*
X141083990Y-104171103D01*
X141315746Y-104325957D01*
X141573260Y-104432623D01*
X141846635Y-104487000D01*
X142125365Y-104487000D01*
X142398740Y-104432623D01*
X142656254Y-104325957D01*
X142888010Y-104171103D01*
X143085103Y-103974010D01*
X143239957Y-103742254D01*
X143346623Y-103484740D01*
X143401000Y-103211365D01*
X143401000Y-102932635D01*
X143346623Y-102659260D01*
X143239957Y-102401746D01*
X143085103Y-102169990D01*
X142888010Y-101972897D01*
X142656254Y-101818043D01*
X142617523Y-101802000D01*
X142656254Y-101785957D01*
X142888010Y-101631103D01*
X143085103Y-101434010D01*
X143239957Y-101202254D01*
X143346623Y-100944740D01*
X143401000Y-100671365D01*
X143401000Y-100392635D01*
X143346623Y-100119260D01*
X143239957Y-99861746D01*
X143085103Y-99629990D01*
X142888010Y-99432897D01*
X142656254Y-99278043D01*
X142617523Y-99262000D01*
X142656254Y-99245957D01*
X142888010Y-99091103D01*
X143085103Y-98894010D01*
X143239957Y-98662254D01*
X143346623Y-98404740D01*
X143401000Y-98131365D01*
X143401000Y-97852635D01*
X143346623Y-97579260D01*
X143239957Y-97321746D01*
X143085103Y-97089990D01*
X142888010Y-96892897D01*
X142656254Y-96738043D01*
X142617523Y-96722000D01*
X142656254Y-96705957D01*
X142888010Y-96551103D01*
X143085103Y-96354010D01*
X143239957Y-96122254D01*
X143346623Y-95864740D01*
X143401000Y-95591365D01*
X143401000Y-95312635D01*
X143346623Y-95039260D01*
X143239957Y-94781746D01*
X143085103Y-94549990D01*
X142888010Y-94352897D01*
X142656254Y-94198043D01*
X142617523Y-94182000D01*
X142656254Y-94165957D01*
X142888010Y-94011103D01*
X143085103Y-93814010D01*
X143239957Y-93582254D01*
X143346623Y-93324740D01*
X143401000Y-93051365D01*
X143401000Y-92772635D01*
X143346623Y-92499260D01*
X143239957Y-92241746D01*
X143085103Y-92009990D01*
X142888010Y-91812897D01*
X142656254Y-91658043D01*
X142617523Y-91642000D01*
X142656254Y-91625957D01*
X142888010Y-91471103D01*
X143085103Y-91274010D01*
X143239957Y-91042254D01*
X143346623Y-90784740D01*
X143401000Y-90511365D01*
X143401000Y-90232635D01*
X143360097Y-90026999D01*
X165913679Y-90026999D01*
X165951001Y-90030675D01*
X165988323Y-90026999D01*
X165988334Y-90026999D01*
X166012374Y-90024631D01*
X165971000Y-90232635D01*
X165971000Y-90511365D01*
X166025377Y-90784740D01*
X166132043Y-91042254D01*
X166286897Y-91274010D01*
X166483990Y-91471103D01*
X166715746Y-91625957D01*
X166754477Y-91642000D01*
X166715746Y-91658043D01*
X166483990Y-91812897D01*
X166286897Y-92009990D01*
X166132043Y-92241746D01*
X166025377Y-92499260D01*
X165971000Y-92772635D01*
X165971000Y-93051365D01*
X166025377Y-93324740D01*
X166132043Y-93582254D01*
X166286897Y-93814010D01*
X166483990Y-94011103D01*
X166715746Y-94165957D01*
X166754477Y-94182000D01*
X166715746Y-94198043D01*
X166483990Y-94352897D01*
X166286897Y-94549990D01*
X166132043Y-94781746D01*
X166025377Y-95039260D01*
X165971000Y-95312635D01*
X165971000Y-95591365D01*
X166025377Y-95864740D01*
X166132043Y-96122254D01*
X166286897Y-96354010D01*
X166483990Y-96551103D01*
X166715746Y-96705957D01*
X166754477Y-96722000D01*
X166715746Y-96738043D01*
X166483990Y-96892897D01*
X166286897Y-97089990D01*
X166132043Y-97321746D01*
X166025377Y-97579260D01*
X165971000Y-97852635D01*
X165971000Y-98131365D01*
X166025377Y-98404740D01*
X166132043Y-98662254D01*
X166286897Y-98894010D01*
X166483990Y-99091103D01*
X166715746Y-99245957D01*
X166754477Y-99262000D01*
X166715746Y-99278043D01*
X166483990Y-99432897D01*
X166286897Y-99629990D01*
X166132043Y-99861746D01*
X166025377Y-100119260D01*
X165971000Y-100392635D01*
X165971000Y-100671365D01*
X166025377Y-100944740D01*
X166132043Y-101202254D01*
X166286897Y-101434010D01*
X166483990Y-101631103D01*
X166529436Y-101661469D01*
X166481518Y-101666188D01*
X166361820Y-101702498D01*
X166251506Y-101761463D01*
X166154815Y-101840815D01*
X166075463Y-101937506D01*
X166016498Y-102047820D01*
X165980188Y-102167518D01*
X165967928Y-102292000D01*
X165967928Y-103852000D01*
X165980188Y-103976482D01*
X166016498Y-104096180D01*
X166075463Y-104206494D01*
X166154815Y-104303185D01*
X166251506Y-104382537D01*
X166361820Y-104441502D01*
X166481518Y-104477812D01*
X166606000Y-104490072D01*
X168166000Y-104490072D01*
X168290482Y-104477812D01*
X168410180Y-104441502D01*
X168520494Y-104382537D01*
X168617185Y-104303185D01*
X168696537Y-104206494D01*
X168755502Y-104096180D01*
X168791812Y-103976482D01*
X168804072Y-103852000D01*
X168804072Y-102292000D01*
X168791812Y-102167518D01*
X168755502Y-102047820D01*
X168696537Y-101937506D01*
X168617185Y-101840815D01*
X168520494Y-101761463D01*
X168410180Y-101702498D01*
X168290482Y-101666188D01*
X168242564Y-101661469D01*
X168288010Y-101631103D01*
X168485103Y-101434010D01*
X168639957Y-101202254D01*
X168746623Y-100944740D01*
X168801000Y-100671365D01*
X168801000Y-100392635D01*
X168746623Y-100119260D01*
X168639957Y-99861746D01*
X168485103Y-99629990D01*
X168301113Y-99446000D01*
X171581928Y-99446000D01*
X171581928Y-100954000D01*
X171594188Y-101078482D01*
X171630498Y-101198180D01*
X171689463Y-101308494D01*
X171768815Y-101405185D01*
X171865506Y-101484537D01*
X171975820Y-101543502D01*
X172095518Y-101579812D01*
X172220000Y-101592072D01*
X173728000Y-101592072D01*
X173852482Y-101579812D01*
X173972180Y-101543502D01*
X174082494Y-101484537D01*
X174179185Y-101405185D01*
X174258537Y-101308494D01*
X174317502Y-101198180D01*
X174353812Y-101078482D01*
X174366072Y-100954000D01*
X174366072Y-100063195D01*
X179205000Y-100063195D01*
X179205000Y-100336805D01*
X179258378Y-100605156D01*
X179363084Y-100857938D01*
X179515093Y-101085436D01*
X179708564Y-101278907D01*
X179936062Y-101430916D01*
X180188844Y-101535622D01*
X180457195Y-101589000D01*
X180730805Y-101589000D01*
X180999156Y-101535622D01*
X181251938Y-101430916D01*
X181479436Y-101278907D01*
X181672907Y-101085436D01*
X181824916Y-100857938D01*
X181929622Y-100605156D01*
X181983000Y-100336805D01*
X181983000Y-100063195D01*
X189365000Y-100063195D01*
X189365000Y-100336805D01*
X189418378Y-100605156D01*
X189523084Y-100857938D01*
X189675093Y-101085436D01*
X189868564Y-101278907D01*
X190096062Y-101430916D01*
X190348844Y-101535622D01*
X190617195Y-101589000D01*
X190890805Y-101589000D01*
X191159156Y-101535622D01*
X191411938Y-101430916D01*
X191639436Y-101278907D01*
X191758492Y-101159851D01*
X192513754Y-101159851D01*
X192579765Y-101399127D01*
X192827426Y-101515426D01*
X193093018Y-101581174D01*
X193366334Y-101593845D01*
X193636870Y-101552951D01*
X193894229Y-101460063D01*
X194008235Y-101399127D01*
X194074246Y-101159851D01*
X193294000Y-100379605D01*
X192513754Y-101159851D01*
X191758492Y-101159851D01*
X191832907Y-101085436D01*
X191984916Y-100857938D01*
X192022242Y-100767826D01*
X192033937Y-100800229D01*
X192094873Y-100914235D01*
X192334149Y-100980246D01*
X193114395Y-100200000D01*
X193473605Y-100200000D01*
X194253851Y-100980246D01*
X194493127Y-100914235D01*
X194609426Y-100666574D01*
X194675174Y-100400982D01*
X194687845Y-100127666D01*
X194646951Y-99857130D01*
X194554063Y-99599771D01*
X194493127Y-99485765D01*
X194253851Y-99419754D01*
X193473605Y-100200000D01*
X193114395Y-100200000D01*
X192334149Y-99419754D01*
X192094873Y-99485765D01*
X192024060Y-99636563D01*
X191984916Y-99542062D01*
X191832907Y-99314564D01*
X191758492Y-99240149D01*
X192513754Y-99240149D01*
X193294000Y-100020395D01*
X194074246Y-99240149D01*
X194008235Y-99000873D01*
X193760574Y-98884574D01*
X193494982Y-98818826D01*
X193221666Y-98806155D01*
X192951130Y-98847049D01*
X192693771Y-98939937D01*
X192579765Y-99000873D01*
X192513754Y-99240149D01*
X191758492Y-99240149D01*
X191639436Y-99121093D01*
X191411938Y-98969084D01*
X191159156Y-98864378D01*
X190890805Y-98811000D01*
X190617195Y-98811000D01*
X190348844Y-98864378D01*
X190096062Y-98969084D01*
X189868564Y-99121093D01*
X189675093Y-99314564D01*
X189523084Y-99542062D01*
X189418378Y-99794844D01*
X189365000Y-100063195D01*
X181983000Y-100063195D01*
X181929622Y-99794844D01*
X181824916Y-99542062D01*
X181672907Y-99314564D01*
X181479436Y-99121093D01*
X181251938Y-98969084D01*
X180999156Y-98864378D01*
X180730805Y-98811000D01*
X180457195Y-98811000D01*
X180188844Y-98864378D01*
X179936062Y-98969084D01*
X179708564Y-99121093D01*
X179515093Y-99314564D01*
X179363084Y-99542062D01*
X179258378Y-99794844D01*
X179205000Y-100063195D01*
X174366072Y-100063195D01*
X174366072Y-99446000D01*
X174353812Y-99321518D01*
X174317502Y-99201820D01*
X174258537Y-99091506D01*
X174179185Y-98994815D01*
X174082494Y-98915463D01*
X173972180Y-98856498D01*
X173852482Y-98820188D01*
X173728000Y-98807928D01*
X172220000Y-98807928D01*
X172095518Y-98820188D01*
X171975820Y-98856498D01*
X171865506Y-98915463D01*
X171768815Y-98994815D01*
X171689463Y-99091506D01*
X171630498Y-99201820D01*
X171594188Y-99321518D01*
X171581928Y-99446000D01*
X168301113Y-99446000D01*
X168288010Y-99432897D01*
X168056254Y-99278043D01*
X168017523Y-99262000D01*
X168056254Y-99245957D01*
X168288010Y-99091103D01*
X168485103Y-98894010D01*
X168639957Y-98662254D01*
X168746623Y-98404740D01*
X168801000Y-98131365D01*
X168801000Y-97852635D01*
X168746623Y-97579260D01*
X168639957Y-97321746D01*
X168485103Y-97089990D01*
X168288010Y-96892897D01*
X168056254Y-96738043D01*
X168017523Y-96722000D01*
X168056254Y-96705957D01*
X168288010Y-96551103D01*
X168485103Y-96354010D01*
X168639957Y-96122254D01*
X168746623Y-95864740D01*
X168801000Y-95591365D01*
X168801000Y-95312635D01*
X168746623Y-95039260D01*
X168639957Y-94781746D01*
X168485103Y-94549990D01*
X168288010Y-94352897D01*
X168056254Y-94198043D01*
X168017523Y-94182000D01*
X168056254Y-94165957D01*
X168288010Y-94011103D01*
X168485103Y-93814010D01*
X168639957Y-93582254D01*
X168746623Y-93324740D01*
X168801000Y-93051365D01*
X168801000Y-92772635D01*
X168746623Y-92499260D01*
X168639957Y-92241746D01*
X168485103Y-92009990D01*
X168288010Y-91812897D01*
X168056254Y-91658043D01*
X168017523Y-91642000D01*
X168056254Y-91625957D01*
X168288010Y-91471103D01*
X168485103Y-91274010D01*
X168639957Y-91042254D01*
X168746623Y-90784740D01*
X168801000Y-90511365D01*
X168801000Y-90232635D01*
X168746623Y-89959260D01*
X168639957Y-89701746D01*
X168485103Y-89469990D01*
X168288010Y-89272897D01*
X168056254Y-89118043D01*
X168017523Y-89102000D01*
X168056254Y-89085957D01*
X168288010Y-88931103D01*
X168485103Y-88734010D01*
X168639957Y-88502254D01*
X168746623Y-88244740D01*
X168801000Y-87971365D01*
X168801000Y-87692635D01*
X168746623Y-87419260D01*
X168639957Y-87161746D01*
X168485103Y-86929990D01*
X168288010Y-86732897D01*
X168056254Y-86578043D01*
X168017523Y-86562000D01*
X168056254Y-86545957D01*
X168288010Y-86391103D01*
X168485103Y-86194010D01*
X168639957Y-85962254D01*
X168746623Y-85704740D01*
X168801000Y-85431365D01*
X168801000Y-85152635D01*
X168746623Y-84879260D01*
X168639957Y-84621746D01*
X168485103Y-84389990D01*
X168288010Y-84192897D01*
X168056254Y-84038043D01*
X168017523Y-84022000D01*
X168056254Y-84005957D01*
X168288010Y-83851103D01*
X168485103Y-83654010D01*
X168639957Y-83422254D01*
X168746623Y-83164740D01*
X168801000Y-82891365D01*
X168801000Y-82612635D01*
X168746623Y-82339260D01*
X168639957Y-82081746D01*
X168485103Y-81849990D01*
X168288010Y-81652897D01*
X168056254Y-81498043D01*
X168017523Y-81482000D01*
X168056254Y-81465957D01*
X168288010Y-81311103D01*
X168485103Y-81114010D01*
X168639957Y-80882254D01*
X168746623Y-80624740D01*
X168801000Y-80351365D01*
X168801000Y-80072635D01*
X168746623Y-79799260D01*
X168639957Y-79541746D01*
X168485103Y-79309990D01*
X168288010Y-79112897D01*
X168056254Y-78958043D01*
X168017523Y-78942000D01*
X168056254Y-78925957D01*
X168288010Y-78771103D01*
X168485103Y-78574010D01*
X168639957Y-78342254D01*
X168746623Y-78084740D01*
X168801000Y-77811365D01*
X168801000Y-77532635D01*
X168746623Y-77259260D01*
X168639957Y-77001746D01*
X168485103Y-76769990D01*
X168423113Y-76708000D01*
X192055815Y-76708000D01*
X192084487Y-76999111D01*
X192169401Y-77279034D01*
X192307294Y-77537014D01*
X192492866Y-77763134D01*
X192718986Y-77948706D01*
X192773791Y-77978000D01*
X192718986Y-78007294D01*
X192492866Y-78192866D01*
X192307294Y-78418986D01*
X192169401Y-78676966D01*
X192084487Y-78956889D01*
X192055815Y-79248000D01*
X192084487Y-79539111D01*
X192169401Y-79819034D01*
X192307294Y-80077014D01*
X192492866Y-80303134D01*
X192718986Y-80488706D01*
X192773791Y-80518000D01*
X192718986Y-80547294D01*
X192492866Y-80732866D01*
X192307294Y-80958986D01*
X192169401Y-81216966D01*
X192084487Y-81496889D01*
X192055815Y-81788000D01*
X192084487Y-82079111D01*
X192169401Y-82359034D01*
X192307294Y-82617014D01*
X192492866Y-82843134D01*
X192522687Y-82867607D01*
X192453820Y-82888498D01*
X192343506Y-82947463D01*
X192246815Y-83026815D01*
X192167463Y-83123506D01*
X192108498Y-83233820D01*
X192072188Y-83353518D01*
X192059928Y-83478000D01*
X192059928Y-85178000D01*
X192072188Y-85302482D01*
X192108498Y-85422180D01*
X192167463Y-85532494D01*
X192246815Y-85629185D01*
X192343506Y-85708537D01*
X192453820Y-85767502D01*
X192573518Y-85803812D01*
X192698000Y-85816072D01*
X194398000Y-85816072D01*
X194522482Y-85803812D01*
X194642180Y-85767502D01*
X194752494Y-85708537D01*
X194849185Y-85629185D01*
X194928537Y-85532494D01*
X194987502Y-85422180D01*
X195023812Y-85302482D01*
X195036072Y-85178000D01*
X195036072Y-83478000D01*
X195023812Y-83353518D01*
X194987502Y-83233820D01*
X194928537Y-83123506D01*
X194849185Y-83026815D01*
X194752494Y-82947463D01*
X194642180Y-82888498D01*
X194573313Y-82867607D01*
X194603134Y-82843134D01*
X194788706Y-82617014D01*
X194926599Y-82359034D01*
X195011513Y-82079111D01*
X195040185Y-81788000D01*
X195011513Y-81496889D01*
X194926599Y-81216966D01*
X194788706Y-80958986D01*
X194603134Y-80732866D01*
X194377014Y-80547294D01*
X194322209Y-80518000D01*
X194377014Y-80488706D01*
X194448547Y-80430000D01*
X197393928Y-80430000D01*
X197393928Y-82130000D01*
X197406188Y-82254482D01*
X197442498Y-82374180D01*
X197501463Y-82484494D01*
X197580815Y-82581185D01*
X197677506Y-82660537D01*
X197787820Y-82719502D01*
X197907518Y-82755812D01*
X198032000Y-82768072D01*
X199732000Y-82768072D01*
X199856482Y-82755812D01*
X199976180Y-82719502D01*
X200086494Y-82660537D01*
X200183185Y-82581185D01*
X200262537Y-82484494D01*
X200321502Y-82374180D01*
X200357812Y-82254482D01*
X200370072Y-82130000D01*
X200370072Y-80430000D01*
X200357812Y-80305518D01*
X200321502Y-80185820D01*
X200262537Y-80075506D01*
X200183185Y-79978815D01*
X200086494Y-79899463D01*
X199976180Y-79840498D01*
X199895534Y-79816034D01*
X199979588Y-79740269D01*
X200153641Y-79506920D01*
X200278825Y-79244099D01*
X200323476Y-79096890D01*
X200202155Y-78867000D01*
X199009000Y-78867000D01*
X199009000Y-78887000D01*
X198755000Y-78887000D01*
X198755000Y-78867000D01*
X197561845Y-78867000D01*
X197440524Y-79096890D01*
X197485175Y-79244099D01*
X197610359Y-79506920D01*
X197784412Y-79740269D01*
X197868466Y-79816034D01*
X197787820Y-79840498D01*
X197677506Y-79899463D01*
X197580815Y-79978815D01*
X197501463Y-80075506D01*
X197442498Y-80185820D01*
X197406188Y-80305518D01*
X197393928Y-80430000D01*
X194448547Y-80430000D01*
X194603134Y-80303134D01*
X194788706Y-80077014D01*
X194926599Y-79819034D01*
X195011513Y-79539111D01*
X195040185Y-79248000D01*
X195011513Y-78956889D01*
X194926599Y-78676966D01*
X194788706Y-78418986D01*
X194759264Y-78383110D01*
X197440524Y-78383110D01*
X197561845Y-78613000D01*
X198755000Y-78613000D01*
X198755000Y-77419186D01*
X199009000Y-77419186D01*
X199009000Y-78613000D01*
X200202155Y-78613000D01*
X200323476Y-78383110D01*
X200278825Y-78235901D01*
X200153641Y-77973080D01*
X199979588Y-77739731D01*
X199763355Y-77544822D01*
X199513252Y-77395843D01*
X199238891Y-77298519D01*
X199009000Y-77419186D01*
X198755000Y-77419186D01*
X198525109Y-77298519D01*
X198250748Y-77395843D01*
X198000645Y-77544822D01*
X197784412Y-77739731D01*
X197610359Y-77973080D01*
X197485175Y-78235901D01*
X197440524Y-78383110D01*
X194759264Y-78383110D01*
X194603134Y-78192866D01*
X194377014Y-78007294D01*
X194322209Y-77978000D01*
X194377014Y-77948706D01*
X194603134Y-77763134D01*
X194788706Y-77537014D01*
X194926599Y-77279034D01*
X195011513Y-76999111D01*
X195040185Y-76708000D01*
X195011513Y-76416889D01*
X194926599Y-76136966D01*
X194788706Y-75878986D01*
X194603134Y-75652866D01*
X194377014Y-75467294D01*
X194119034Y-75329401D01*
X193839111Y-75244487D01*
X193620950Y-75223000D01*
X193475050Y-75223000D01*
X193256889Y-75244487D01*
X192976966Y-75329401D01*
X192718986Y-75467294D01*
X192492866Y-75652866D01*
X192307294Y-75878986D01*
X192169401Y-76136966D01*
X192084487Y-76416889D01*
X192055815Y-76708000D01*
X168423113Y-76708000D01*
X168288010Y-76572897D01*
X168056254Y-76418043D01*
X168017523Y-76402000D01*
X168056254Y-76385957D01*
X168288010Y-76231103D01*
X168485103Y-76034010D01*
X168639957Y-75802254D01*
X168746623Y-75544740D01*
X168801000Y-75271365D01*
X168801000Y-74992635D01*
X168746623Y-74719260D01*
X168639957Y-74461746D01*
X168485103Y-74229990D01*
X168288010Y-74032897D01*
X168056254Y-73878043D01*
X168017523Y-73862000D01*
X168056254Y-73845957D01*
X168288010Y-73691103D01*
X168485103Y-73494010D01*
X168639957Y-73262254D01*
X168746623Y-73004740D01*
X168801000Y-72731365D01*
X168801000Y-72452635D01*
X168746623Y-72179260D01*
X168639957Y-71921746D01*
X168485103Y-71689990D01*
X168288010Y-71492897D01*
X168056254Y-71338043D01*
X168020475Y-71323223D01*
X168115655Y-71272349D01*
X168184816Y-71030421D01*
X167386000Y-70231605D01*
X166587184Y-71030421D01*
X166656345Y-71272349D01*
X166758279Y-71320425D01*
X166715746Y-71338043D01*
X166483990Y-71492897D01*
X166286897Y-71689990D01*
X166132043Y-71921746D01*
X166025377Y-72179260D01*
X165971000Y-72452635D01*
X165971000Y-72731365D01*
X166025377Y-73004740D01*
X166132043Y-73262254D01*
X166286897Y-73494010D01*
X166483990Y-73691103D01*
X166715746Y-73845957D01*
X166754477Y-73862000D01*
X166715746Y-73878043D01*
X166483990Y-74032897D01*
X166286897Y-74229990D01*
X166132043Y-74461746D01*
X166025377Y-74719260D01*
X165971000Y-74992635D01*
X165971000Y-75271365D01*
X166004320Y-75438878D01*
X160886198Y-80557001D01*
X143360097Y-80557001D01*
X143401000Y-80351365D01*
X143401000Y-80072635D01*
X143346623Y-79799260D01*
X143239957Y-79541746D01*
X143085103Y-79309990D01*
X142888010Y-79112897D01*
X142656254Y-78958043D01*
X142617523Y-78942000D01*
X142656254Y-78925957D01*
X142888010Y-78771103D01*
X143085103Y-78574010D01*
X143239957Y-78342254D01*
X143346623Y-78084740D01*
X143401000Y-77811365D01*
X143401000Y-77532635D01*
X143346623Y-77259260D01*
X143239957Y-77001746D01*
X143085103Y-76769990D01*
X142888010Y-76572897D01*
X142656254Y-76418043D01*
X142617523Y-76402000D01*
X142656254Y-76385957D01*
X142888010Y-76231103D01*
X143085103Y-76034010D01*
X143239957Y-75802254D01*
X143346623Y-75544740D01*
X143401000Y-75271365D01*
X143401000Y-74992635D01*
X143346623Y-74719260D01*
X143239957Y-74461746D01*
X143085103Y-74229990D01*
X142888010Y-74032897D01*
X142656254Y-73878043D01*
X142620475Y-73863223D01*
X142715655Y-73812349D01*
X142784816Y-73570421D01*
X141986000Y-72771605D01*
X141187184Y-73570421D01*
X141256345Y-73812349D01*
X141358279Y-73860425D01*
X141315746Y-73878043D01*
X141083990Y-74032897D01*
X140886897Y-74229990D01*
X140732043Y-74461746D01*
X140625377Y-74719260D01*
X140571000Y-74992635D01*
X140571000Y-75271365D01*
X140625377Y-75544740D01*
X140732043Y-75802254D01*
X140886897Y-76034010D01*
X141083990Y-76231103D01*
X141315746Y-76385957D01*
X141354477Y-76402000D01*
X141315746Y-76418043D01*
X141083990Y-76572897D01*
X140886897Y-76769990D01*
X140732043Y-77001746D01*
X140625377Y-77259260D01*
X140571000Y-77532635D01*
X140571000Y-77722198D01*
X135512105Y-72663303D01*
X140565943Y-72663303D01*
X140607140Y-72938972D01*
X140701325Y-73201308D01*
X140765651Y-73321655D01*
X141007579Y-73390816D01*
X141806395Y-72592000D01*
X142165605Y-72592000D01*
X142964421Y-73390816D01*
X143206349Y-73321655D01*
X143325248Y-73069557D01*
X143392681Y-72799106D01*
X143406057Y-72520697D01*
X143364860Y-72245028D01*
X143270675Y-71982692D01*
X143206349Y-71862345D01*
X142964421Y-71793184D01*
X142165605Y-72592000D01*
X141806395Y-72592000D01*
X141007579Y-71793184D01*
X140765651Y-71862345D01*
X140646752Y-72114443D01*
X140579319Y-72384894D01*
X140565943Y-72663303D01*
X135512105Y-72663303D01*
X132225802Y-69377001D01*
X140735213Y-69377001D01*
X140732043Y-69381746D01*
X140625377Y-69639260D01*
X140571000Y-69912635D01*
X140571000Y-70191365D01*
X140625377Y-70464740D01*
X140732043Y-70722254D01*
X140886897Y-70954010D01*
X141083990Y-71151103D01*
X141315746Y-71305957D01*
X141351525Y-71320777D01*
X141256345Y-71371651D01*
X141187184Y-71613579D01*
X141986000Y-72412395D01*
X142784816Y-71613579D01*
X142715655Y-71371651D01*
X142613721Y-71323575D01*
X142656254Y-71305957D01*
X142888010Y-71151103D01*
X143085103Y-70954010D01*
X143239957Y-70722254D01*
X143346623Y-70464740D01*
X143401000Y-70191365D01*
X143401000Y-69912635D01*
X143346623Y-69639260D01*
X143239957Y-69381746D01*
X143236787Y-69377001D01*
X166139873Y-69377001D01*
X166046752Y-69574443D01*
X165979319Y-69844894D01*
X165965943Y-70123303D01*
X166007140Y-70398972D01*
X166101325Y-70661308D01*
X166165651Y-70781655D01*
X166407579Y-70850816D01*
X167206395Y-70052000D01*
X167565605Y-70052000D01*
X168364421Y-70850816D01*
X168606349Y-70781655D01*
X168725248Y-70529557D01*
X168792681Y-70259106D01*
X168806057Y-69980697D01*
X168764860Y-69705028D01*
X168670675Y-69442692D01*
X168606349Y-69322345D01*
X168364421Y-69253184D01*
X167565605Y-70052000D01*
X167206395Y-70052000D01*
X167192253Y-70037858D01*
X167371858Y-69858253D01*
X167386000Y-69872395D01*
X168184816Y-69073579D01*
X168115655Y-68831651D01*
X168013721Y-68783575D01*
X168056254Y-68765957D01*
X168288010Y-68611103D01*
X168485103Y-68414010D01*
X168639957Y-68182254D01*
X168746623Y-67924740D01*
X168801000Y-67651365D01*
X168801000Y-67372635D01*
X168746623Y-67099260D01*
X168639957Y-66841746D01*
X168485103Y-66609990D01*
X168288010Y-66412897D01*
X168056254Y-66258043D01*
X168017523Y-66242000D01*
X168056254Y-66225957D01*
X168288010Y-66071103D01*
X168485103Y-65874010D01*
X168639957Y-65642254D01*
X168746623Y-65384740D01*
X168801000Y-65111365D01*
X168801000Y-64832635D01*
X168746623Y-64559260D01*
X168639957Y-64301746D01*
X168485103Y-64069990D01*
X168288010Y-63872897D01*
X168056254Y-63718043D01*
X168017523Y-63702000D01*
X168056254Y-63685957D01*
X168288010Y-63531103D01*
X168485103Y-63334010D01*
X168639957Y-63102254D01*
X168746623Y-62844740D01*
X168801000Y-62571365D01*
X168801000Y-62292635D01*
X168746623Y-62019260D01*
X168639957Y-61761746D01*
X168485103Y-61529990D01*
X168288010Y-61332897D01*
X168056254Y-61178043D01*
X168017523Y-61162000D01*
X168056254Y-61145957D01*
X168288010Y-60991103D01*
X168485103Y-60794010D01*
X168639957Y-60562254D01*
X168746623Y-60304740D01*
X168801000Y-60031365D01*
X168801000Y-59752635D01*
X168746623Y-59479260D01*
X168639957Y-59221746D01*
X168485103Y-58989990D01*
X168288010Y-58792897D01*
X168056254Y-58638043D01*
X168017523Y-58622000D01*
X168056254Y-58605957D01*
X168288010Y-58451103D01*
X168485103Y-58254010D01*
X168639957Y-58022254D01*
X168746623Y-57764740D01*
X168801000Y-57491365D01*
X168801000Y-57212635D01*
X168746623Y-56939260D01*
X168639957Y-56681746D01*
X168485103Y-56449990D01*
X168288010Y-56252897D01*
X168056254Y-56098043D01*
X167798740Y-55991377D01*
X167525365Y-55937000D01*
X167246635Y-55937000D01*
X166973260Y-55991377D01*
X166715746Y-56098043D01*
X166483990Y-56252897D01*
X166286897Y-56449990D01*
X166132043Y-56681746D01*
X166025377Y-56939260D01*
X165971000Y-57212635D01*
X165971000Y-57491365D01*
X166025377Y-57764740D01*
X166132043Y-58022254D01*
X166286897Y-58254010D01*
X166483990Y-58451103D01*
X166715746Y-58605957D01*
X166754477Y-58622000D01*
X166715746Y-58638043D01*
X166483990Y-58792897D01*
X166286897Y-58989990D01*
X166132043Y-59221746D01*
X166025377Y-59479260D01*
X165971000Y-59752635D01*
X165971000Y-60031365D01*
X166025377Y-60304740D01*
X166132043Y-60562254D01*
X166286897Y-60794010D01*
X166483990Y-60991103D01*
X166715746Y-61145957D01*
X166754477Y-61162000D01*
X166715746Y-61178043D01*
X166483990Y-61332897D01*
X166286897Y-61529990D01*
X166132043Y-61761746D01*
X166025377Y-62019260D01*
X165971000Y-62292635D01*
X165971000Y-62571365D01*
X166025377Y-62844740D01*
X166132043Y-63102254D01*
X166286897Y-63334010D01*
X166483990Y-63531103D01*
X166715746Y-63685957D01*
X166754477Y-63702000D01*
X166715746Y-63718043D01*
X166483990Y-63872897D01*
X166286897Y-64069990D01*
X166132043Y-64301746D01*
X166025377Y-64559260D01*
X165971000Y-64832635D01*
X165971000Y-65111365D01*
X166025377Y-65384740D01*
X166132043Y-65642254D01*
X166286897Y-65874010D01*
X166483990Y-66071103D01*
X166715746Y-66225957D01*
X166754477Y-66242000D01*
X166715746Y-66258043D01*
X166483990Y-66412897D01*
X166286897Y-66609990D01*
X166132043Y-66841746D01*
X166025377Y-67099260D01*
X165971000Y-67372635D01*
X165971000Y-67651365D01*
X166004320Y-67818879D01*
X165966198Y-67857001D01*
X143360097Y-67857001D01*
X143401000Y-67651365D01*
X143401000Y-67372635D01*
X143346623Y-67099260D01*
X143239957Y-66841746D01*
X143085103Y-66609990D01*
X142888010Y-66412897D01*
X142656254Y-66258043D01*
X142617523Y-66242000D01*
X142656254Y-66225957D01*
X142888010Y-66071103D01*
X143085103Y-65874010D01*
X143239957Y-65642254D01*
X143346623Y-65384740D01*
X143401000Y-65111365D01*
X143401000Y-64832635D01*
X143346623Y-64559260D01*
X143239957Y-64301746D01*
X143085103Y-64069990D01*
X142888010Y-63872897D01*
X142656254Y-63718043D01*
X142617523Y-63702000D01*
X142656254Y-63685957D01*
X142888010Y-63531103D01*
X143085103Y-63334010D01*
X143239957Y-63102254D01*
X143346623Y-62844740D01*
X143401000Y-62571365D01*
X143401000Y-62292635D01*
X143346623Y-62019260D01*
X143239957Y-61761746D01*
X143085103Y-61529990D01*
X142888010Y-61332897D01*
X142656254Y-61178043D01*
X142617523Y-61162000D01*
X142656254Y-61145957D01*
X142888010Y-60991103D01*
X143085103Y-60794010D01*
X143239957Y-60562254D01*
X143346623Y-60304740D01*
X143401000Y-60031365D01*
X143401000Y-59752635D01*
X143346623Y-59479260D01*
X143239957Y-59221746D01*
X143085103Y-58989990D01*
X142888010Y-58792897D01*
X142656254Y-58638043D01*
X142620475Y-58623223D01*
X142715655Y-58572349D01*
X142784816Y-58330421D01*
X141986000Y-57531605D01*
X141187184Y-58330421D01*
X141256345Y-58572349D01*
X141358279Y-58620425D01*
X141315746Y-58638043D01*
X141083990Y-58792897D01*
X140886897Y-58989990D01*
X140732043Y-59221746D01*
X140625377Y-59479260D01*
X140571000Y-59752635D01*
X140571000Y-60031365D01*
X140625377Y-60304740D01*
X140732043Y-60562254D01*
X140886897Y-60794010D01*
X141083990Y-60991103D01*
X141315746Y-61145957D01*
X141354477Y-61162000D01*
X141315746Y-61178043D01*
X141083990Y-61332897D01*
X140886897Y-61529990D01*
X140732043Y-61761746D01*
X140625377Y-62019260D01*
X140571000Y-62292635D01*
X140571000Y-62571365D01*
X140625377Y-62844740D01*
X140732043Y-63102254D01*
X140886897Y-63334010D01*
X141083990Y-63531103D01*
X141315746Y-63685957D01*
X141354477Y-63702000D01*
X141315746Y-63718043D01*
X141083990Y-63872897D01*
X140886897Y-64069990D01*
X140732043Y-64301746D01*
X140625377Y-64559260D01*
X140571000Y-64832635D01*
X140571000Y-65111365D01*
X140625377Y-65384740D01*
X140732043Y-65642254D01*
X140886897Y-65874010D01*
X141083990Y-66071103D01*
X141315746Y-66225957D01*
X141354477Y-66242000D01*
X141315746Y-66258043D01*
X141083990Y-66412897D01*
X140886897Y-66609990D01*
X140732043Y-66841746D01*
X140625377Y-67099260D01*
X140571000Y-67372635D01*
X140571000Y-67651365D01*
X140611903Y-67857001D01*
X126335803Y-67857001D01*
X126003000Y-67524199D01*
X126003000Y-67462061D01*
X125963226Y-67262102D01*
X125885205Y-67073744D01*
X125872013Y-67054000D01*
X129344289Y-67054000D01*
X129388226Y-67097937D01*
X129557744Y-67211205D01*
X129746102Y-67289226D01*
X129946061Y-67329000D01*
X130149939Y-67329000D01*
X130349898Y-67289226D01*
X130538256Y-67211205D01*
X130707774Y-67097937D01*
X130851937Y-66953774D01*
X130965205Y-66784256D01*
X131043226Y-66595898D01*
X131083000Y-66395939D01*
X131083000Y-66192061D01*
X131043226Y-65992102D01*
X130965205Y-65803744D01*
X130851937Y-65634226D01*
X130707774Y-65490063D01*
X130538256Y-65376795D01*
X130349898Y-65298774D01*
X130149939Y-65259000D01*
X129946061Y-65259000D01*
X129746102Y-65298774D01*
X129557744Y-65376795D01*
X129388226Y-65490063D01*
X129344289Y-65534000D01*
X121726803Y-65534000D01*
X120923000Y-64730198D01*
X120923000Y-64668061D01*
X120883226Y-64468102D01*
X120805205Y-64279744D01*
X120691937Y-64110226D01*
X120547774Y-63966063D01*
X120378256Y-63852795D01*
X120189898Y-63774774D01*
X119989939Y-63735000D01*
X119786061Y-63735000D01*
X119586102Y-63774774D01*
X119397744Y-63852795D01*
X119228226Y-63966063D01*
X119084063Y-64110226D01*
X118970795Y-64279744D01*
X118892774Y-64468102D01*
X118853000Y-64668061D01*
X118853000Y-64871939D01*
X118892774Y-65071898D01*
X118970795Y-65260256D01*
X119084063Y-65429774D01*
X119228226Y-65573937D01*
X119397744Y-65687205D01*
X119586102Y-65765226D01*
X119786061Y-65805000D01*
X119848198Y-65805000D01*
X120848205Y-66805008D01*
X120871999Y-66834001D01*
X120900992Y-66857795D01*
X120900996Y-66857799D01*
X120971685Y-66915811D01*
X120987724Y-66928974D01*
X121119753Y-66999546D01*
X121263014Y-67043003D01*
X121374667Y-67054000D01*
X121374676Y-67054000D01*
X121411999Y-67057676D01*
X121449322Y-67054000D01*
X124063987Y-67054000D01*
X124050795Y-67073744D01*
X123972774Y-67262102D01*
X123933000Y-67462061D01*
X123933000Y-67665939D01*
X123972774Y-67865898D01*
X124050795Y-68054256D01*
X124164063Y-68223774D01*
X124268289Y-68328000D01*
X113545595Y-68328000D01*
X113508706Y-68258986D01*
X113323134Y-68032866D01*
X113097014Y-67847294D01*
X113032477Y-67812799D01*
X113149355Y-67743178D01*
X113365588Y-67548269D01*
X113539641Y-67314920D01*
X113664825Y-67052099D01*
X113709476Y-66904890D01*
X113588155Y-66675000D01*
X112395000Y-66675000D01*
X112395000Y-66695000D01*
X112141000Y-66695000D01*
X112141000Y-66675000D01*
X110947845Y-66675000D01*
X110826524Y-66904890D01*
X110871175Y-67052099D01*
X110996359Y-67314920D01*
X111170412Y-67548269D01*
X111386645Y-67743178D01*
X111503523Y-67812799D01*
X111438986Y-67847294D01*
X111212866Y-68032866D01*
X111027294Y-68258986D01*
X110889401Y-68516966D01*
X110804487Y-68796889D01*
X110775815Y-69088000D01*
X107340000Y-69088000D01*
X107340000Y-64008000D01*
X110775815Y-64008000D01*
X110804487Y-64299111D01*
X110889401Y-64579034D01*
X111027294Y-64837014D01*
X111212866Y-65063134D01*
X111438986Y-65248706D01*
X111503523Y-65283201D01*
X111386645Y-65352822D01*
X111170412Y-65547731D01*
X110996359Y-65781080D01*
X110871175Y-66043901D01*
X110826524Y-66191110D01*
X110947845Y-66421000D01*
X112141000Y-66421000D01*
X112141000Y-66401000D01*
X112395000Y-66401000D01*
X112395000Y-66421000D01*
X113588155Y-66421000D01*
X113709476Y-66191110D01*
X113664825Y-66043901D01*
X113539641Y-65781080D01*
X113365588Y-65547731D01*
X113149355Y-65352822D01*
X113032477Y-65283201D01*
X113097014Y-65248706D01*
X113323134Y-65063134D01*
X113508706Y-64837014D01*
X113646599Y-64579034D01*
X113731513Y-64299111D01*
X113760185Y-64008000D01*
X113731513Y-63716889D01*
X113646599Y-63436966D01*
X113508706Y-63178986D01*
X113323134Y-62952866D01*
X113097014Y-62767294D01*
X112839034Y-62629401D01*
X112559111Y-62544487D01*
X112340950Y-62523000D01*
X112195050Y-62523000D01*
X111976889Y-62544487D01*
X111696966Y-62629401D01*
X111438986Y-62767294D01*
X111212866Y-62952866D01*
X111027294Y-63178986D01*
X110889401Y-63436966D01*
X110804487Y-63716889D01*
X110775815Y-64008000D01*
X107340000Y-64008000D01*
X107340000Y-57423303D01*
X140565943Y-57423303D01*
X140607140Y-57698972D01*
X140701325Y-57961308D01*
X140765651Y-58081655D01*
X141007579Y-58150816D01*
X141806395Y-57352000D01*
X142165605Y-57352000D01*
X142964421Y-58150816D01*
X143206349Y-58081655D01*
X143325248Y-57829557D01*
X143392681Y-57559106D01*
X143406057Y-57280697D01*
X143364860Y-57005028D01*
X143270675Y-56742692D01*
X143206349Y-56622345D01*
X142964421Y-56553184D01*
X142165605Y-57352000D01*
X141806395Y-57352000D01*
X141007579Y-56553184D01*
X140765651Y-56622345D01*
X140646752Y-56874443D01*
X140579319Y-57144894D01*
X140565943Y-57423303D01*
X107340000Y-57423303D01*
X107340000Y-56373579D01*
X141187184Y-56373579D01*
X141986000Y-57172395D01*
X142784816Y-56373579D01*
X142715655Y-56131651D01*
X142463557Y-56012752D01*
X142193106Y-55945319D01*
X141914697Y-55931943D01*
X141639028Y-55973140D01*
X141376692Y-56067325D01*
X141256345Y-56131651D01*
X141187184Y-56373579D01*
X107340000Y-56373579D01*
X107340000Y-52998000D01*
X124749928Y-52998000D01*
X124749928Y-54698000D01*
X124762188Y-54822482D01*
X124798498Y-54942180D01*
X124857463Y-55052494D01*
X124936815Y-55149185D01*
X125033506Y-55228537D01*
X125143820Y-55287502D01*
X125263518Y-55323812D01*
X125388000Y-55336072D01*
X127088000Y-55336072D01*
X127212482Y-55323812D01*
X127332180Y-55287502D01*
X127442494Y-55228537D01*
X127539185Y-55149185D01*
X127618537Y-55052494D01*
X127677502Y-54942180D01*
X127701966Y-54861534D01*
X127777731Y-54945588D01*
X128011080Y-55119641D01*
X128273901Y-55244825D01*
X128421110Y-55289476D01*
X128651000Y-55168155D01*
X128651000Y-53975000D01*
X128631000Y-53975000D01*
X128631000Y-53721000D01*
X128651000Y-53721000D01*
X128651000Y-52527845D01*
X128905000Y-52527845D01*
X128905000Y-53721000D01*
X128925000Y-53721000D01*
X128925000Y-53975000D01*
X128905000Y-53975000D01*
X128905000Y-55168155D01*
X129134890Y-55289476D01*
X129282099Y-55244825D01*
X129544920Y-55119641D01*
X129778269Y-54945588D01*
X129973178Y-54729355D01*
X130042799Y-54612477D01*
X130077294Y-54677014D01*
X130262866Y-54903134D01*
X130488986Y-55088706D01*
X130746966Y-55226599D01*
X131026889Y-55311513D01*
X131245050Y-55333000D01*
X131390950Y-55333000D01*
X131609111Y-55311513D01*
X131889034Y-55226599D01*
X132147014Y-55088706D01*
X132373134Y-54903134D01*
X132558706Y-54677014D01*
X132588000Y-54622209D01*
X132617294Y-54677014D01*
X132802866Y-54903134D01*
X133028986Y-55088706D01*
X133286966Y-55226599D01*
X133566889Y-55311513D01*
X133785050Y-55333000D01*
X133930950Y-55333000D01*
X134149111Y-55311513D01*
X134429034Y-55226599D01*
X134687014Y-55088706D01*
X134913134Y-54903134D01*
X135098706Y-54677014D01*
X135236599Y-54419034D01*
X135321513Y-54139111D01*
X135350185Y-53848000D01*
X135321513Y-53556889D01*
X135236599Y-53276966D01*
X135098706Y-53018986D01*
X134913134Y-52792866D01*
X134687014Y-52607294D01*
X134429034Y-52469401D01*
X134149111Y-52384487D01*
X133930950Y-52363000D01*
X133785050Y-52363000D01*
X133566889Y-52384487D01*
X133286966Y-52469401D01*
X133028986Y-52607294D01*
X132802866Y-52792866D01*
X132617294Y-53018986D01*
X132588000Y-53073791D01*
X132558706Y-53018986D01*
X132373134Y-52792866D01*
X132147014Y-52607294D01*
X131889034Y-52469401D01*
X131609111Y-52384487D01*
X131390950Y-52363000D01*
X131245050Y-52363000D01*
X131026889Y-52384487D01*
X130746966Y-52469401D01*
X130488986Y-52607294D01*
X130262866Y-52792866D01*
X130077294Y-53018986D01*
X130042799Y-53083523D01*
X129973178Y-52966645D01*
X129778269Y-52750412D01*
X129544920Y-52576359D01*
X129282099Y-52451175D01*
X129134890Y-52406524D01*
X128905000Y-52527845D01*
X128651000Y-52527845D01*
X128421110Y-52406524D01*
X128273901Y-52451175D01*
X128011080Y-52576359D01*
X127777731Y-52750412D01*
X127701966Y-52834466D01*
X127677502Y-52753820D01*
X127618537Y-52643506D01*
X127539185Y-52546815D01*
X127442494Y-52467463D01*
X127332180Y-52408498D01*
X127212482Y-52372188D01*
X127088000Y-52359928D01*
X125388000Y-52359928D01*
X125263518Y-52372188D01*
X125143820Y-52408498D01*
X125033506Y-52467463D01*
X124936815Y-52546815D01*
X124857463Y-52643506D01*
X124798498Y-52753820D01*
X124762188Y-52873518D01*
X124749928Y-52998000D01*
X107340000Y-52998000D01*
X107340000Y-49554000D01*
X186075928Y-49554000D01*
X186075928Y-52554000D01*
X186088188Y-52678482D01*
X186124498Y-52798180D01*
X186183463Y-52908494D01*
X186262815Y-53005185D01*
X186359506Y-53084537D01*
X186469820Y-53143502D01*
X186589518Y-53179812D01*
X186714000Y-53192072D01*
X189714000Y-53192072D01*
X189838482Y-53179812D01*
X189958180Y-53143502D01*
X190068494Y-53084537D01*
X190165185Y-53005185D01*
X190244537Y-52908494D01*
X190303502Y-52798180D01*
X190339812Y-52678482D01*
X190352072Y-52554000D01*
X190352072Y-50843721D01*
X191159000Y-50843721D01*
X191159000Y-51264279D01*
X191241047Y-51676756D01*
X191401988Y-52065302D01*
X191635637Y-52414983D01*
X191933017Y-52712363D01*
X192282698Y-52946012D01*
X192671244Y-53106953D01*
X193083721Y-53189000D01*
X193504279Y-53189000D01*
X193916756Y-53106953D01*
X194305302Y-52946012D01*
X194654983Y-52712363D01*
X194952363Y-52414983D01*
X195186012Y-52065302D01*
X195346953Y-51676756D01*
X195429000Y-51264279D01*
X195429000Y-50843721D01*
X195346953Y-50431244D01*
X195186012Y-50042698D01*
X194952363Y-49693017D01*
X194654983Y-49395637D01*
X194305302Y-49161988D01*
X193916756Y-49001047D01*
X193504279Y-48919000D01*
X193083721Y-48919000D01*
X192671244Y-49001047D01*
X192282698Y-49161988D01*
X191933017Y-49395637D01*
X191635637Y-49693017D01*
X191401988Y-50042698D01*
X191241047Y-50431244D01*
X191159000Y-50843721D01*
X190352072Y-50843721D01*
X190352072Y-49554000D01*
X190339812Y-49429518D01*
X190303502Y-49309820D01*
X190244537Y-49199506D01*
X190165185Y-49102815D01*
X190068494Y-49023463D01*
X189958180Y-48964498D01*
X189838482Y-48928188D01*
X189714000Y-48915928D01*
X186714000Y-48915928D01*
X186589518Y-48928188D01*
X186469820Y-48964498D01*
X186359506Y-49023463D01*
X186262815Y-49102815D01*
X186183463Y-49199506D01*
X186124498Y-49309820D01*
X186088188Y-49429518D01*
X186075928Y-49554000D01*
X107340000Y-49554000D01*
X107340000Y-46380000D01*
X202540000Y-46380000D01*
X202540001Y-108560000D01*
X202540001Y-108560000D01*
G37*
X202540001Y-108560000D02*
X107340000Y-108560000D01*
X107340000Y-69088000D01*
X110775815Y-69088000D01*
X110804487Y-69379111D01*
X110889401Y-69659034D01*
X111027294Y-69917014D01*
X111212866Y-70143134D01*
X111438986Y-70328706D01*
X111493791Y-70358000D01*
X111438986Y-70387294D01*
X111212866Y-70572866D01*
X111027294Y-70798986D01*
X110889401Y-71056966D01*
X110804487Y-71336889D01*
X110775815Y-71628000D01*
X110804487Y-71919111D01*
X110889401Y-72199034D01*
X111027294Y-72457014D01*
X111212866Y-72683134D01*
X111438986Y-72868706D01*
X111493791Y-72898000D01*
X111438986Y-72927294D01*
X111212866Y-73112866D01*
X111027294Y-73338986D01*
X110889401Y-73596966D01*
X110804487Y-73876889D01*
X110775815Y-74168000D01*
X110804487Y-74459111D01*
X110889401Y-74739034D01*
X111027294Y-74997014D01*
X111212866Y-75223134D01*
X111438986Y-75408706D01*
X111493791Y-75438000D01*
X111438986Y-75467294D01*
X111212866Y-75652866D01*
X111027294Y-75878986D01*
X110889401Y-76136966D01*
X110804487Y-76416889D01*
X110775815Y-76708000D01*
X110804487Y-76999111D01*
X110889401Y-77279034D01*
X111027294Y-77537014D01*
X111212866Y-77763134D01*
X111438986Y-77948706D01*
X111493791Y-77978000D01*
X111438986Y-78007294D01*
X111212866Y-78192866D01*
X111027294Y-78418986D01*
X110889401Y-78676966D01*
X110804487Y-78956889D01*
X110775815Y-79248000D01*
X110804487Y-79539111D01*
X110889401Y-79819034D01*
X111027294Y-80077014D01*
X111212866Y-80303134D01*
X111438986Y-80488706D01*
X111493791Y-80518000D01*
X111438986Y-80547294D01*
X111212866Y-80732866D01*
X111027294Y-80958986D01*
X110889401Y-81216966D01*
X110804487Y-81496889D01*
X110775815Y-81788000D01*
X110804487Y-82079111D01*
X110889401Y-82359034D01*
X111027294Y-82617014D01*
X111212866Y-82843134D01*
X111438986Y-83028706D01*
X111493791Y-83058000D01*
X111438986Y-83087294D01*
X111212866Y-83272866D01*
X111027294Y-83498986D01*
X110889401Y-83756966D01*
X110804487Y-84036889D01*
X110775815Y-84328000D01*
X110804487Y-84619111D01*
X110889401Y-84899034D01*
X111027294Y-85157014D01*
X111212866Y-85383134D01*
X111438986Y-85568706D01*
X111493791Y-85598000D01*
X111438986Y-85627294D01*
X111212866Y-85812866D01*
X111027294Y-86038986D01*
X110889401Y-86296966D01*
X110804487Y-86576889D01*
X110775815Y-86868000D01*
X110804487Y-87159111D01*
X110889401Y-87439034D01*
X111027294Y-87697014D01*
X111212866Y-87923134D01*
X111438986Y-88108706D01*
X111493791Y-88138000D01*
X111438986Y-88167294D01*
X111212866Y-88352866D01*
X111027294Y-88578986D01*
X110889401Y-88836966D01*
X110804487Y-89116889D01*
X110775815Y-89408000D01*
X110804487Y-89699111D01*
X110889401Y-89979034D01*
X111027294Y-90237014D01*
X111212866Y-90463134D01*
X111438986Y-90648706D01*
X111493791Y-90678000D01*
X111438986Y-90707294D01*
X111212866Y-90892866D01*
X111027294Y-91118986D01*
X110889401Y-91376966D01*
X110804487Y-91656889D01*
X110775815Y-91948000D01*
X110804487Y-92239111D01*
X110889401Y-92519034D01*
X111027294Y-92777014D01*
X111212866Y-93003134D01*
X111438986Y-93188706D01*
X111493791Y-93218000D01*
X111438986Y-93247294D01*
X111212866Y-93432866D01*
X111027294Y-93658986D01*
X110889401Y-93916966D01*
X110804487Y-94196889D01*
X110775815Y-94488000D01*
X110804487Y-94779111D01*
X110889401Y-95059034D01*
X111027294Y-95317014D01*
X111212866Y-95543134D01*
X111242687Y-95567607D01*
X111173820Y-95588498D01*
X111063506Y-95647463D01*
X110966815Y-95726815D01*
X110887463Y-95823506D01*
X110828498Y-95933820D01*
X110792188Y-96053518D01*
X110779928Y-96178000D01*
X110779928Y-97878000D01*
X110792188Y-98002482D01*
X110828498Y-98122180D01*
X110887463Y-98232494D01*
X110966815Y-98329185D01*
X111063506Y-98408537D01*
X111173820Y-98467502D01*
X111293518Y-98503812D01*
X111418000Y-98516072D01*
X113118000Y-98516072D01*
X113242482Y-98503812D01*
X113362180Y-98467502D01*
X113472494Y-98408537D01*
X113569185Y-98329185D01*
X113648537Y-98232494D01*
X113707502Y-98122180D01*
X113743812Y-98002482D01*
X113756072Y-97878000D01*
X113756072Y-96178000D01*
X113743812Y-96053518D01*
X113707502Y-95933820D01*
X113648537Y-95823506D01*
X113569185Y-95726815D01*
X113472494Y-95647463D01*
X113362180Y-95588498D01*
X113293313Y-95567607D01*
X113323134Y-95543134D01*
X113508706Y-95317014D01*
X113646599Y-95059034D01*
X113731513Y-94779111D01*
X113760185Y-94488000D01*
X113731513Y-94196889D01*
X113646599Y-93916966D01*
X113508706Y-93658986D01*
X113323134Y-93432866D01*
X113097014Y-93247294D01*
X113042209Y-93218000D01*
X113097014Y-93188706D01*
X113323134Y-93003134D01*
X113508706Y-92777014D01*
X113547716Y-92704031D01*
X113619067Y-92697003D01*
X113762328Y-92653546D01*
X113894357Y-92582974D01*
X114010082Y-92488001D01*
X114033885Y-92458997D01*
X116465884Y-90026999D01*
X140611903Y-90026999D01*
X140571000Y-90232635D01*
X140571000Y-90511365D01*
X140625377Y-90784740D01*
X140732043Y-91042254D01*
X140886897Y-91274010D01*
X141083990Y-91471103D01*
X141315746Y-91625957D01*
X141354477Y-91642000D01*
X141315746Y-91658043D01*
X141083990Y-91812897D01*
X140886897Y-92009990D01*
X140732043Y-92241746D01*
X140625377Y-92499260D01*
X140571000Y-92772635D01*
X140571000Y-93051365D01*
X140625377Y-93324740D01*
X140732043Y-93582254D01*
X140886897Y-93814010D01*
X141083990Y-94011103D01*
X141315746Y-94165957D01*
X141354477Y-94182000D01*
X141315746Y-94198043D01*
X141083990Y-94352897D01*
X140886897Y-94549990D01*
X140732043Y-94781746D01*
X140625377Y-95039260D01*
X140571000Y-95312635D01*
X140571000Y-95591365D01*
X140625377Y-95864740D01*
X140732043Y-96122254D01*
X140886897Y-96354010D01*
X141083990Y-96551103D01*
X141315746Y-96705957D01*
X141354477Y-96722000D01*
X141315746Y-96738043D01*
X141083990Y-96892897D01*
X140886897Y-97089990D01*
X140732043Y-97321746D01*
X140625377Y-97579260D01*
X140571000Y-97852635D01*
X140571000Y-98131365D01*
X140625377Y-98404740D01*
X140732043Y-98662254D01*
X140886897Y-98894010D01*
X141083990Y-99091103D01*
X141315746Y-99245957D01*
X141354477Y-99262000D01*
X141315746Y-99278043D01*
X141083990Y-99432897D01*
X140886897Y-99629990D01*
X140732043Y-99861746D01*
X140625377Y-100119260D01*
X140571000Y-100392635D01*
X140571000Y-100671365D01*
X140625377Y-100944740D01*
X140732043Y-101202254D01*
X140886897Y-101434010D01*
X141083990Y-101631103D01*
X141315746Y-101785957D01*
X141354477Y-101802000D01*
X141315746Y-101818043D01*
X141083990Y-101972897D01*
X140886897Y-102169990D01*
X140732043Y-102401746D01*
X140625377Y-102659260D01*
X140571000Y-102932635D01*
X140571000Y-103211365D01*
X140625377Y-103484740D01*
X140732043Y-103742254D01*
X140886897Y-103974010D01*
X141083990Y-104171103D01*
X141315746Y-104325957D01*
X141573260Y-104432623D01*
X141846635Y-104487000D01*
X142125365Y-104487000D01*
X142398740Y-104432623D01*
X142656254Y-104325957D01*
X142888010Y-104171103D01*
X143085103Y-103974010D01*
X143239957Y-103742254D01*
X143346623Y-103484740D01*
X143401000Y-103211365D01*
X143401000Y-102932635D01*
X143346623Y-102659260D01*
X143239957Y-102401746D01*
X143085103Y-102169990D01*
X142888010Y-101972897D01*
X142656254Y-101818043D01*
X142617523Y-101802000D01*
X142656254Y-101785957D01*
X142888010Y-101631103D01*
X143085103Y-101434010D01*
X143239957Y-101202254D01*
X143346623Y-100944740D01*
X143401000Y-100671365D01*
X143401000Y-100392635D01*
X143346623Y-100119260D01*
X143239957Y-99861746D01*
X143085103Y-99629990D01*
X142888010Y-99432897D01*
X142656254Y-99278043D01*
X142617523Y-99262000D01*
X142656254Y-99245957D01*
X142888010Y-99091103D01*
X143085103Y-98894010D01*
X143239957Y-98662254D01*
X143346623Y-98404740D01*
X143401000Y-98131365D01*
X143401000Y-97852635D01*
X143346623Y-97579260D01*
X143239957Y-97321746D01*
X143085103Y-97089990D01*
X142888010Y-96892897D01*
X142656254Y-96738043D01*
X142617523Y-96722000D01*
X142656254Y-96705957D01*
X142888010Y-96551103D01*
X143085103Y-96354010D01*
X143239957Y-96122254D01*
X143346623Y-95864740D01*
X143401000Y-95591365D01*
X143401000Y-95312635D01*
X143346623Y-95039260D01*
X143239957Y-94781746D01*
X143085103Y-94549990D01*
X142888010Y-94352897D01*
X142656254Y-94198043D01*
X142617523Y-94182000D01*
X142656254Y-94165957D01*
X142888010Y-94011103D01*
X143085103Y-93814010D01*
X143239957Y-93582254D01*
X143346623Y-93324740D01*
X143401000Y-93051365D01*
X143401000Y-92772635D01*
X143346623Y-92499260D01*
X143239957Y-92241746D01*
X143085103Y-92009990D01*
X142888010Y-91812897D01*
X142656254Y-91658043D01*
X142617523Y-91642000D01*
X142656254Y-91625957D01*
X142888010Y-91471103D01*
X143085103Y-91274010D01*
X143239957Y-91042254D01*
X143346623Y-90784740D01*
X143401000Y-90511365D01*
X143401000Y-90232635D01*
X143360097Y-90026999D01*
X165913679Y-90026999D01*
X165951001Y-90030675D01*
X165988323Y-90026999D01*
X165988334Y-90026999D01*
X166012374Y-90024631D01*
X165971000Y-90232635D01*
X165971000Y-90511365D01*
X166025377Y-90784740D01*
X166132043Y-91042254D01*
X166286897Y-91274010D01*
X166483990Y-91471103D01*
X166715746Y-91625957D01*
X166754477Y-91642000D01*
X166715746Y-91658043D01*
X166483990Y-91812897D01*
X166286897Y-92009990D01*
X166132043Y-92241746D01*
X166025377Y-92499260D01*
X165971000Y-92772635D01*
X165971000Y-93051365D01*
X166025377Y-93324740D01*
X166132043Y-93582254D01*
X166286897Y-93814010D01*
X166483990Y-94011103D01*
X166715746Y-94165957D01*
X166754477Y-94182000D01*
X166715746Y-94198043D01*
X166483990Y-94352897D01*
X166286897Y-94549990D01*
X166132043Y-94781746D01*
X166025377Y-95039260D01*
X165971000Y-95312635D01*
X165971000Y-95591365D01*
X166025377Y-95864740D01*
X166132043Y-96122254D01*
X166286897Y-96354010D01*
X166483990Y-96551103D01*
X166715746Y-96705957D01*
X166754477Y-96722000D01*
X166715746Y-96738043D01*
X166483990Y-96892897D01*
X166286897Y-97089990D01*
X166132043Y-97321746D01*
X166025377Y-97579260D01*
X165971000Y-97852635D01*
X165971000Y-98131365D01*
X166025377Y-98404740D01*
X166132043Y-98662254D01*
X166286897Y-98894010D01*
X166483990Y-99091103D01*
X166715746Y-99245957D01*
X166754477Y-99262000D01*
X166715746Y-99278043D01*
X166483990Y-99432897D01*
X166286897Y-99629990D01*
X166132043Y-99861746D01*
X166025377Y-100119260D01*
X165971000Y-100392635D01*
X165971000Y-100671365D01*
X166025377Y-100944740D01*
X166132043Y-101202254D01*
X166286897Y-101434010D01*
X166483990Y-101631103D01*
X166529436Y-101661469D01*
X166481518Y-101666188D01*
X166361820Y-101702498D01*
X166251506Y-101761463D01*
X166154815Y-101840815D01*
X166075463Y-101937506D01*
X166016498Y-102047820D01*
X165980188Y-102167518D01*
X165967928Y-102292000D01*
X165967928Y-103852000D01*
X165980188Y-103976482D01*
X166016498Y-104096180D01*
X166075463Y-104206494D01*
X166154815Y-104303185D01*
X166251506Y-104382537D01*
X166361820Y-104441502D01*
X166481518Y-104477812D01*
X166606000Y-104490072D01*
X168166000Y-104490072D01*
X168290482Y-104477812D01*
X168410180Y-104441502D01*
X168520494Y-104382537D01*
X168617185Y-104303185D01*
X168696537Y-104206494D01*
X168755502Y-104096180D01*
X168791812Y-103976482D01*
X168804072Y-103852000D01*
X168804072Y-102292000D01*
X168791812Y-102167518D01*
X168755502Y-102047820D01*
X168696537Y-101937506D01*
X168617185Y-101840815D01*
X168520494Y-101761463D01*
X168410180Y-101702498D01*
X168290482Y-101666188D01*
X168242564Y-101661469D01*
X168288010Y-101631103D01*
X168485103Y-101434010D01*
X168639957Y-101202254D01*
X168746623Y-100944740D01*
X168801000Y-100671365D01*
X168801000Y-100392635D01*
X168746623Y-100119260D01*
X168639957Y-99861746D01*
X168485103Y-99629990D01*
X168301113Y-99446000D01*
X171581928Y-99446000D01*
X171581928Y-100954000D01*
X171594188Y-101078482D01*
X171630498Y-101198180D01*
X171689463Y-101308494D01*
X171768815Y-101405185D01*
X171865506Y-101484537D01*
X171975820Y-101543502D01*
X172095518Y-101579812D01*
X172220000Y-101592072D01*
X173728000Y-101592072D01*
X173852482Y-101579812D01*
X173972180Y-101543502D01*
X174082494Y-101484537D01*
X174179185Y-101405185D01*
X174258537Y-101308494D01*
X174317502Y-101198180D01*
X174353812Y-101078482D01*
X174366072Y-100954000D01*
X174366072Y-100063195D01*
X179205000Y-100063195D01*
X179205000Y-100336805D01*
X179258378Y-100605156D01*
X179363084Y-100857938D01*
X179515093Y-101085436D01*
X179708564Y-101278907D01*
X179936062Y-101430916D01*
X180188844Y-101535622D01*
X180457195Y-101589000D01*
X180730805Y-101589000D01*
X180999156Y-101535622D01*
X181251938Y-101430916D01*
X181479436Y-101278907D01*
X181672907Y-101085436D01*
X181824916Y-100857938D01*
X181929622Y-100605156D01*
X181983000Y-100336805D01*
X181983000Y-100063195D01*
X189365000Y-100063195D01*
X189365000Y-100336805D01*
X189418378Y-100605156D01*
X189523084Y-100857938D01*
X189675093Y-101085436D01*
X189868564Y-101278907D01*
X190096062Y-101430916D01*
X190348844Y-101535622D01*
X190617195Y-101589000D01*
X190890805Y-101589000D01*
X191159156Y-101535622D01*
X191411938Y-101430916D01*
X191639436Y-101278907D01*
X191758492Y-101159851D01*
X192513754Y-101159851D01*
X192579765Y-101399127D01*
X192827426Y-101515426D01*
X193093018Y-101581174D01*
X193366334Y-101593845D01*
X193636870Y-101552951D01*
X193894229Y-101460063D01*
X194008235Y-101399127D01*
X194074246Y-101159851D01*
X193294000Y-100379605D01*
X192513754Y-101159851D01*
X191758492Y-101159851D01*
X191832907Y-101085436D01*
X191984916Y-100857938D01*
X192022242Y-100767826D01*
X192033937Y-100800229D01*
X192094873Y-100914235D01*
X192334149Y-100980246D01*
X193114395Y-100200000D01*
X193473605Y-100200000D01*
X194253851Y-100980246D01*
X194493127Y-100914235D01*
X194609426Y-100666574D01*
X194675174Y-100400982D01*
X194687845Y-100127666D01*
X194646951Y-99857130D01*
X194554063Y-99599771D01*
X194493127Y-99485765D01*
X194253851Y-99419754D01*
X193473605Y-100200000D01*
X193114395Y-100200000D01*
X192334149Y-99419754D01*
X192094873Y-99485765D01*
X192024060Y-99636563D01*
X191984916Y-99542062D01*
X191832907Y-99314564D01*
X191758492Y-99240149D01*
X192513754Y-99240149D01*
X193294000Y-100020395D01*
X194074246Y-99240149D01*
X194008235Y-99000873D01*
X193760574Y-98884574D01*
X193494982Y-98818826D01*
X193221666Y-98806155D01*
X192951130Y-98847049D01*
X192693771Y-98939937D01*
X192579765Y-99000873D01*
X192513754Y-99240149D01*
X191758492Y-99240149D01*
X191639436Y-99121093D01*
X191411938Y-98969084D01*
X191159156Y-98864378D01*
X190890805Y-98811000D01*
X190617195Y-98811000D01*
X190348844Y-98864378D01*
X190096062Y-98969084D01*
X189868564Y-99121093D01*
X189675093Y-99314564D01*
X189523084Y-99542062D01*
X189418378Y-99794844D01*
X189365000Y-100063195D01*
X181983000Y-100063195D01*
X181929622Y-99794844D01*
X181824916Y-99542062D01*
X181672907Y-99314564D01*
X181479436Y-99121093D01*
X181251938Y-98969084D01*
X180999156Y-98864378D01*
X180730805Y-98811000D01*
X180457195Y-98811000D01*
X180188844Y-98864378D01*
X179936062Y-98969084D01*
X179708564Y-99121093D01*
X179515093Y-99314564D01*
X179363084Y-99542062D01*
X179258378Y-99794844D01*
X179205000Y-100063195D01*
X174366072Y-100063195D01*
X174366072Y-99446000D01*
X174353812Y-99321518D01*
X174317502Y-99201820D01*
X174258537Y-99091506D01*
X174179185Y-98994815D01*
X174082494Y-98915463D01*
X173972180Y-98856498D01*
X173852482Y-98820188D01*
X173728000Y-98807928D01*
X172220000Y-98807928D01*
X172095518Y-98820188D01*
X171975820Y-98856498D01*
X171865506Y-98915463D01*
X171768815Y-98994815D01*
X171689463Y-99091506D01*
X171630498Y-99201820D01*
X171594188Y-99321518D01*
X171581928Y-99446000D01*
X168301113Y-99446000D01*
X168288010Y-99432897D01*
X168056254Y-99278043D01*
X168017523Y-99262000D01*
X168056254Y-99245957D01*
X168288010Y-99091103D01*
X168485103Y-98894010D01*
X168639957Y-98662254D01*
X168746623Y-98404740D01*
X168801000Y-98131365D01*
X168801000Y-97852635D01*
X168746623Y-97579260D01*
X168639957Y-97321746D01*
X168485103Y-97089990D01*
X168288010Y-96892897D01*
X168056254Y-96738043D01*
X168017523Y-96722000D01*
X168056254Y-96705957D01*
X168288010Y-96551103D01*
X168485103Y-96354010D01*
X168639957Y-96122254D01*
X168746623Y-95864740D01*
X168801000Y-95591365D01*
X168801000Y-95312635D01*
X168746623Y-95039260D01*
X168639957Y-94781746D01*
X168485103Y-94549990D01*
X168288010Y-94352897D01*
X168056254Y-94198043D01*
X168017523Y-94182000D01*
X168056254Y-94165957D01*
X168288010Y-94011103D01*
X168485103Y-93814010D01*
X168639957Y-93582254D01*
X168746623Y-93324740D01*
X168801000Y-93051365D01*
X168801000Y-92772635D01*
X168746623Y-92499260D01*
X168639957Y-92241746D01*
X168485103Y-92009990D01*
X168288010Y-91812897D01*
X168056254Y-91658043D01*
X168017523Y-91642000D01*
X168056254Y-91625957D01*
X168288010Y-91471103D01*
X168485103Y-91274010D01*
X168639957Y-91042254D01*
X168746623Y-90784740D01*
X168801000Y-90511365D01*
X168801000Y-90232635D01*
X168746623Y-89959260D01*
X168639957Y-89701746D01*
X168485103Y-89469990D01*
X168288010Y-89272897D01*
X168056254Y-89118043D01*
X168017523Y-89102000D01*
X168056254Y-89085957D01*
X168288010Y-88931103D01*
X168485103Y-88734010D01*
X168639957Y-88502254D01*
X168746623Y-88244740D01*
X168801000Y-87971365D01*
X168801000Y-87692635D01*
X168746623Y-87419260D01*
X168639957Y-87161746D01*
X168485103Y-86929990D01*
X168288010Y-86732897D01*
X168056254Y-86578043D01*
X168017523Y-86562000D01*
X168056254Y-86545957D01*
X168288010Y-86391103D01*
X168485103Y-86194010D01*
X168639957Y-85962254D01*
X168746623Y-85704740D01*
X168801000Y-85431365D01*
X168801000Y-85152635D01*
X168746623Y-84879260D01*
X168639957Y-84621746D01*
X168485103Y-84389990D01*
X168288010Y-84192897D01*
X168056254Y-84038043D01*
X168017523Y-84022000D01*
X168056254Y-84005957D01*
X168288010Y-83851103D01*
X168485103Y-83654010D01*
X168639957Y-83422254D01*
X168746623Y-83164740D01*
X168801000Y-82891365D01*
X168801000Y-82612635D01*
X168746623Y-82339260D01*
X168639957Y-82081746D01*
X168485103Y-81849990D01*
X168288010Y-81652897D01*
X168056254Y-81498043D01*
X168017523Y-81482000D01*
X168056254Y-81465957D01*
X168288010Y-81311103D01*
X168485103Y-81114010D01*
X168639957Y-80882254D01*
X168746623Y-80624740D01*
X168801000Y-80351365D01*
X168801000Y-80072635D01*
X168746623Y-79799260D01*
X168639957Y-79541746D01*
X168485103Y-79309990D01*
X168288010Y-79112897D01*
X168056254Y-78958043D01*
X168017523Y-78942000D01*
X168056254Y-78925957D01*
X168288010Y-78771103D01*
X168485103Y-78574010D01*
X168639957Y-78342254D01*
X168746623Y-78084740D01*
X168801000Y-77811365D01*
X168801000Y-77532635D01*
X168746623Y-77259260D01*
X168639957Y-77001746D01*
X168485103Y-76769990D01*
X168423113Y-76708000D01*
X192055815Y-76708000D01*
X192084487Y-76999111D01*
X192169401Y-77279034D01*
X192307294Y-77537014D01*
X192492866Y-77763134D01*
X192718986Y-77948706D01*
X192773791Y-77978000D01*
X192718986Y-78007294D01*
X192492866Y-78192866D01*
X192307294Y-78418986D01*
X192169401Y-78676966D01*
X192084487Y-78956889D01*
X192055815Y-79248000D01*
X192084487Y-79539111D01*
X192169401Y-79819034D01*
X192307294Y-80077014D01*
X192492866Y-80303134D01*
X192718986Y-80488706D01*
X192773791Y-80518000D01*
X192718986Y-80547294D01*
X192492866Y-80732866D01*
X192307294Y-80958986D01*
X192169401Y-81216966D01*
X192084487Y-81496889D01*
X192055815Y-81788000D01*
X192084487Y-82079111D01*
X192169401Y-82359034D01*
X192307294Y-82617014D01*
X192492866Y-82843134D01*
X192522687Y-82867607D01*
X192453820Y-82888498D01*
X192343506Y-82947463D01*
X192246815Y-83026815D01*
X192167463Y-83123506D01*
X192108498Y-83233820D01*
X192072188Y-83353518D01*
X192059928Y-83478000D01*
X192059928Y-85178000D01*
X192072188Y-85302482D01*
X192108498Y-85422180D01*
X192167463Y-85532494D01*
X192246815Y-85629185D01*
X192343506Y-85708537D01*
X192453820Y-85767502D01*
X192573518Y-85803812D01*
X192698000Y-85816072D01*
X194398000Y-85816072D01*
X194522482Y-85803812D01*
X194642180Y-85767502D01*
X194752494Y-85708537D01*
X194849185Y-85629185D01*
X194928537Y-85532494D01*
X194987502Y-85422180D01*
X195023812Y-85302482D01*
X195036072Y-85178000D01*
X195036072Y-83478000D01*
X195023812Y-83353518D01*
X194987502Y-83233820D01*
X194928537Y-83123506D01*
X194849185Y-83026815D01*
X194752494Y-82947463D01*
X194642180Y-82888498D01*
X194573313Y-82867607D01*
X194603134Y-82843134D01*
X194788706Y-82617014D01*
X194926599Y-82359034D01*
X195011513Y-82079111D01*
X195040185Y-81788000D01*
X195011513Y-81496889D01*
X194926599Y-81216966D01*
X194788706Y-80958986D01*
X194603134Y-80732866D01*
X194377014Y-80547294D01*
X194322209Y-80518000D01*
X194377014Y-80488706D01*
X194448547Y-80430000D01*
X197393928Y-80430000D01*
X197393928Y-82130000D01*
X197406188Y-82254482D01*
X197442498Y-82374180D01*
X197501463Y-82484494D01*
X197580815Y-82581185D01*
X197677506Y-82660537D01*
X197787820Y-82719502D01*
X197907518Y-82755812D01*
X198032000Y-82768072D01*
X199732000Y-82768072D01*
X199856482Y-82755812D01*
X199976180Y-82719502D01*
X200086494Y-82660537D01*
X200183185Y-82581185D01*
X200262537Y-82484494D01*
X200321502Y-82374180D01*
X200357812Y-82254482D01*
X200370072Y-82130000D01*
X200370072Y-80430000D01*
X200357812Y-80305518D01*
X200321502Y-80185820D01*
X200262537Y-80075506D01*
X200183185Y-79978815D01*
X200086494Y-79899463D01*
X199976180Y-79840498D01*
X199895534Y-79816034D01*
X199979588Y-79740269D01*
X200153641Y-79506920D01*
X200278825Y-79244099D01*
X200323476Y-79096890D01*
X200202155Y-78867000D01*
X199009000Y-78867000D01*
X199009000Y-78887000D01*
X198755000Y-78887000D01*
X198755000Y-78867000D01*
X197561845Y-78867000D01*
X197440524Y-79096890D01*
X197485175Y-79244099D01*
X197610359Y-79506920D01*
X197784412Y-79740269D01*
X197868466Y-79816034D01*
X197787820Y-79840498D01*
X197677506Y-79899463D01*
X197580815Y-79978815D01*
X197501463Y-80075506D01*
X197442498Y-80185820D01*
X197406188Y-80305518D01*
X197393928Y-80430000D01*
X194448547Y-80430000D01*
X194603134Y-80303134D01*
X194788706Y-80077014D01*
X194926599Y-79819034D01*
X195011513Y-79539111D01*
X195040185Y-79248000D01*
X195011513Y-78956889D01*
X194926599Y-78676966D01*
X194788706Y-78418986D01*
X194759264Y-78383110D01*
X197440524Y-78383110D01*
X197561845Y-78613000D01*
X198755000Y-78613000D01*
X198755000Y-77419186D01*
X199009000Y-77419186D01*
X199009000Y-78613000D01*
X200202155Y-78613000D01*
X200323476Y-78383110D01*
X200278825Y-78235901D01*
X200153641Y-77973080D01*
X199979588Y-77739731D01*
X199763355Y-77544822D01*
X199513252Y-77395843D01*
X199238891Y-77298519D01*
X199009000Y-77419186D01*
X198755000Y-77419186D01*
X198525109Y-77298519D01*
X198250748Y-77395843D01*
X198000645Y-77544822D01*
X197784412Y-77739731D01*
X197610359Y-77973080D01*
X197485175Y-78235901D01*
X197440524Y-78383110D01*
X194759264Y-78383110D01*
X194603134Y-78192866D01*
X194377014Y-78007294D01*
X194322209Y-77978000D01*
X194377014Y-77948706D01*
X194603134Y-77763134D01*
X194788706Y-77537014D01*
X194926599Y-77279034D01*
X195011513Y-76999111D01*
X195040185Y-76708000D01*
X195011513Y-76416889D01*
X194926599Y-76136966D01*
X194788706Y-75878986D01*
X194603134Y-75652866D01*
X194377014Y-75467294D01*
X194119034Y-75329401D01*
X193839111Y-75244487D01*
X193620950Y-75223000D01*
X193475050Y-75223000D01*
X193256889Y-75244487D01*
X192976966Y-75329401D01*
X192718986Y-75467294D01*
X192492866Y-75652866D01*
X192307294Y-75878986D01*
X192169401Y-76136966D01*
X192084487Y-76416889D01*
X192055815Y-76708000D01*
X168423113Y-76708000D01*
X168288010Y-76572897D01*
X168056254Y-76418043D01*
X168017523Y-76402000D01*
X168056254Y-76385957D01*
X168288010Y-76231103D01*
X168485103Y-76034010D01*
X168639957Y-75802254D01*
X168746623Y-75544740D01*
X168801000Y-75271365D01*
X168801000Y-74992635D01*
X168746623Y-74719260D01*
X168639957Y-74461746D01*
X168485103Y-74229990D01*
X168288010Y-74032897D01*
X168056254Y-73878043D01*
X168017523Y-73862000D01*
X168056254Y-73845957D01*
X168288010Y-73691103D01*
X168485103Y-73494010D01*
X168639957Y-73262254D01*
X168746623Y-73004740D01*
X168801000Y-72731365D01*
X168801000Y-72452635D01*
X168746623Y-72179260D01*
X168639957Y-71921746D01*
X168485103Y-71689990D01*
X168288010Y-71492897D01*
X168056254Y-71338043D01*
X168020475Y-71323223D01*
X168115655Y-71272349D01*
X168184816Y-71030421D01*
X167386000Y-70231605D01*
X166587184Y-71030421D01*
X166656345Y-71272349D01*
X166758279Y-71320425D01*
X166715746Y-71338043D01*
X166483990Y-71492897D01*
X166286897Y-71689990D01*
X166132043Y-71921746D01*
X166025377Y-72179260D01*
X165971000Y-72452635D01*
X165971000Y-72731365D01*
X166025377Y-73004740D01*
X166132043Y-73262254D01*
X166286897Y-73494010D01*
X166483990Y-73691103D01*
X166715746Y-73845957D01*
X166754477Y-73862000D01*
X166715746Y-73878043D01*
X166483990Y-74032897D01*
X166286897Y-74229990D01*
X166132043Y-74461746D01*
X166025377Y-74719260D01*
X165971000Y-74992635D01*
X165971000Y-75271365D01*
X166004320Y-75438878D01*
X160886198Y-80557001D01*
X143360097Y-80557001D01*
X143401000Y-80351365D01*
X143401000Y-80072635D01*
X143346623Y-79799260D01*
X143239957Y-79541746D01*
X143085103Y-79309990D01*
X142888010Y-79112897D01*
X142656254Y-78958043D01*
X142617523Y-78942000D01*
X142656254Y-78925957D01*
X142888010Y-78771103D01*
X143085103Y-78574010D01*
X143239957Y-78342254D01*
X143346623Y-78084740D01*
X143401000Y-77811365D01*
X143401000Y-77532635D01*
X143346623Y-77259260D01*
X143239957Y-77001746D01*
X143085103Y-76769990D01*
X142888010Y-76572897D01*
X142656254Y-76418043D01*
X142617523Y-76402000D01*
X142656254Y-76385957D01*
X142888010Y-76231103D01*
X143085103Y-76034010D01*
X143239957Y-75802254D01*
X143346623Y-75544740D01*
X143401000Y-75271365D01*
X143401000Y-74992635D01*
X143346623Y-74719260D01*
X143239957Y-74461746D01*
X143085103Y-74229990D01*
X142888010Y-74032897D01*
X142656254Y-73878043D01*
X142620475Y-73863223D01*
X142715655Y-73812349D01*
X142784816Y-73570421D01*
X141986000Y-72771605D01*
X141187184Y-73570421D01*
X141256345Y-73812349D01*
X141358279Y-73860425D01*
X141315746Y-73878043D01*
X141083990Y-74032897D01*
X140886897Y-74229990D01*
X140732043Y-74461746D01*
X140625377Y-74719260D01*
X140571000Y-74992635D01*
X140571000Y-75271365D01*
X140625377Y-75544740D01*
X140732043Y-75802254D01*
X140886897Y-76034010D01*
X141083990Y-76231103D01*
X141315746Y-76385957D01*
X141354477Y-76402000D01*
X141315746Y-76418043D01*
X141083990Y-76572897D01*
X140886897Y-76769990D01*
X140732043Y-77001746D01*
X140625377Y-77259260D01*
X140571000Y-77532635D01*
X140571000Y-77722198D01*
X135512105Y-72663303D01*
X140565943Y-72663303D01*
X140607140Y-72938972D01*
X140701325Y-73201308D01*
X140765651Y-73321655D01*
X141007579Y-73390816D01*
X141806395Y-72592000D01*
X142165605Y-72592000D01*
X142964421Y-73390816D01*
X143206349Y-73321655D01*
X143325248Y-73069557D01*
X143392681Y-72799106D01*
X143406057Y-72520697D01*
X143364860Y-72245028D01*
X143270675Y-71982692D01*
X143206349Y-71862345D01*
X142964421Y-71793184D01*
X142165605Y-72592000D01*
X141806395Y-72592000D01*
X141007579Y-71793184D01*
X140765651Y-71862345D01*
X140646752Y-72114443D01*
X140579319Y-72384894D01*
X140565943Y-72663303D01*
X135512105Y-72663303D01*
X132225802Y-69377001D01*
X140735213Y-69377001D01*
X140732043Y-69381746D01*
X140625377Y-69639260D01*
X140571000Y-69912635D01*
X140571000Y-70191365D01*
X140625377Y-70464740D01*
X140732043Y-70722254D01*
X140886897Y-70954010D01*
X141083990Y-71151103D01*
X141315746Y-71305957D01*
X141351525Y-71320777D01*
X141256345Y-71371651D01*
X141187184Y-71613579D01*
X141986000Y-72412395D01*
X142784816Y-71613579D01*
X142715655Y-71371651D01*
X142613721Y-71323575D01*
X142656254Y-71305957D01*
X142888010Y-71151103D01*
X143085103Y-70954010D01*
X143239957Y-70722254D01*
X143346623Y-70464740D01*
X143401000Y-70191365D01*
X143401000Y-69912635D01*
X143346623Y-69639260D01*
X143239957Y-69381746D01*
X143236787Y-69377001D01*
X166139873Y-69377001D01*
X166046752Y-69574443D01*
X165979319Y-69844894D01*
X165965943Y-70123303D01*
X166007140Y-70398972D01*
X166101325Y-70661308D01*
X166165651Y-70781655D01*
X166407579Y-70850816D01*
X167206395Y-70052000D01*
X167565605Y-70052000D01*
X168364421Y-70850816D01*
X168606349Y-70781655D01*
X168725248Y-70529557D01*
X168792681Y-70259106D01*
X168806057Y-69980697D01*
X168764860Y-69705028D01*
X168670675Y-69442692D01*
X168606349Y-69322345D01*
X168364421Y-69253184D01*
X167565605Y-70052000D01*
X167206395Y-70052000D01*
X167192253Y-70037858D01*
X167371858Y-69858253D01*
X167386000Y-69872395D01*
X168184816Y-69073579D01*
X168115655Y-68831651D01*
X168013721Y-68783575D01*
X168056254Y-68765957D01*
X168288010Y-68611103D01*
X168485103Y-68414010D01*
X168639957Y-68182254D01*
X168746623Y-67924740D01*
X168801000Y-67651365D01*
X168801000Y-67372635D01*
X168746623Y-67099260D01*
X168639957Y-66841746D01*
X168485103Y-66609990D01*
X168288010Y-66412897D01*
X168056254Y-66258043D01*
X168017523Y-66242000D01*
X168056254Y-66225957D01*
X168288010Y-66071103D01*
X168485103Y-65874010D01*
X168639957Y-65642254D01*
X168746623Y-65384740D01*
X168801000Y-65111365D01*
X168801000Y-64832635D01*
X168746623Y-64559260D01*
X168639957Y-64301746D01*
X168485103Y-64069990D01*
X168288010Y-63872897D01*
X168056254Y-63718043D01*
X168017523Y-63702000D01*
X168056254Y-63685957D01*
X168288010Y-63531103D01*
X168485103Y-63334010D01*
X168639957Y-63102254D01*
X168746623Y-62844740D01*
X168801000Y-62571365D01*
X168801000Y-62292635D01*
X168746623Y-62019260D01*
X168639957Y-61761746D01*
X168485103Y-61529990D01*
X168288010Y-61332897D01*
X168056254Y-61178043D01*
X168017523Y-61162000D01*
X168056254Y-61145957D01*
X168288010Y-60991103D01*
X168485103Y-60794010D01*
X168639957Y-60562254D01*
X168746623Y-60304740D01*
X168801000Y-60031365D01*
X168801000Y-59752635D01*
X168746623Y-59479260D01*
X168639957Y-59221746D01*
X168485103Y-58989990D01*
X168288010Y-58792897D01*
X168056254Y-58638043D01*
X168017523Y-58622000D01*
X168056254Y-58605957D01*
X168288010Y-58451103D01*
X168485103Y-58254010D01*
X168639957Y-58022254D01*
X168746623Y-57764740D01*
X168801000Y-57491365D01*
X168801000Y-57212635D01*
X168746623Y-56939260D01*
X168639957Y-56681746D01*
X168485103Y-56449990D01*
X168288010Y-56252897D01*
X168056254Y-56098043D01*
X167798740Y-55991377D01*
X167525365Y-55937000D01*
X167246635Y-55937000D01*
X166973260Y-55991377D01*
X166715746Y-56098043D01*
X166483990Y-56252897D01*
X166286897Y-56449990D01*
X166132043Y-56681746D01*
X166025377Y-56939260D01*
X165971000Y-57212635D01*
X165971000Y-57491365D01*
X166025377Y-57764740D01*
X166132043Y-58022254D01*
X166286897Y-58254010D01*
X166483990Y-58451103D01*
X166715746Y-58605957D01*
X166754477Y-58622000D01*
X166715746Y-58638043D01*
X166483990Y-58792897D01*
X166286897Y-58989990D01*
X166132043Y-59221746D01*
X166025377Y-59479260D01*
X165971000Y-59752635D01*
X165971000Y-60031365D01*
X166025377Y-60304740D01*
X166132043Y-60562254D01*
X166286897Y-60794010D01*
X166483990Y-60991103D01*
X166715746Y-61145957D01*
X166754477Y-61162000D01*
X166715746Y-61178043D01*
X166483990Y-61332897D01*
X166286897Y-61529990D01*
X166132043Y-61761746D01*
X166025377Y-62019260D01*
X165971000Y-62292635D01*
X165971000Y-62571365D01*
X166025377Y-62844740D01*
X166132043Y-63102254D01*
X166286897Y-63334010D01*
X166483990Y-63531103D01*
X166715746Y-63685957D01*
X166754477Y-63702000D01*
X166715746Y-63718043D01*
X166483990Y-63872897D01*
X166286897Y-64069990D01*
X166132043Y-64301746D01*
X166025377Y-64559260D01*
X165971000Y-64832635D01*
X165971000Y-65111365D01*
X166025377Y-65384740D01*
X166132043Y-65642254D01*
X166286897Y-65874010D01*
X166483990Y-66071103D01*
X166715746Y-66225957D01*
X166754477Y-66242000D01*
X166715746Y-66258043D01*
X166483990Y-66412897D01*
X166286897Y-66609990D01*
X166132043Y-66841746D01*
X166025377Y-67099260D01*
X165971000Y-67372635D01*
X165971000Y-67651365D01*
X166004320Y-67818879D01*
X165966198Y-67857001D01*
X143360097Y-67857001D01*
X143401000Y-67651365D01*
X143401000Y-67372635D01*
X143346623Y-67099260D01*
X143239957Y-66841746D01*
X143085103Y-66609990D01*
X142888010Y-66412897D01*
X142656254Y-66258043D01*
X142617523Y-66242000D01*
X142656254Y-66225957D01*
X142888010Y-66071103D01*
X143085103Y-65874010D01*
X143239957Y-65642254D01*
X143346623Y-65384740D01*
X143401000Y-65111365D01*
X143401000Y-64832635D01*
X143346623Y-64559260D01*
X143239957Y-64301746D01*
X143085103Y-64069990D01*
X142888010Y-63872897D01*
X142656254Y-63718043D01*
X142617523Y-63702000D01*
X142656254Y-63685957D01*
X142888010Y-63531103D01*
X143085103Y-63334010D01*
X143239957Y-63102254D01*
X143346623Y-62844740D01*
X143401000Y-62571365D01*
X143401000Y-62292635D01*
X143346623Y-62019260D01*
X143239957Y-61761746D01*
X143085103Y-61529990D01*
X142888010Y-61332897D01*
X142656254Y-61178043D01*
X142617523Y-61162000D01*
X142656254Y-61145957D01*
X142888010Y-60991103D01*
X143085103Y-60794010D01*
X143239957Y-60562254D01*
X143346623Y-60304740D01*
X143401000Y-60031365D01*
X143401000Y-59752635D01*
X143346623Y-59479260D01*
X143239957Y-59221746D01*
X143085103Y-58989990D01*
X142888010Y-58792897D01*
X142656254Y-58638043D01*
X142620475Y-58623223D01*
X142715655Y-58572349D01*
X142784816Y-58330421D01*
X141986000Y-57531605D01*
X141187184Y-58330421D01*
X141256345Y-58572349D01*
X141358279Y-58620425D01*
X141315746Y-58638043D01*
X141083990Y-58792897D01*
X140886897Y-58989990D01*
X140732043Y-59221746D01*
X140625377Y-59479260D01*
X140571000Y-59752635D01*
X140571000Y-60031365D01*
X140625377Y-60304740D01*
X140732043Y-60562254D01*
X140886897Y-60794010D01*
X141083990Y-60991103D01*
X141315746Y-61145957D01*
X141354477Y-61162000D01*
X141315746Y-61178043D01*
X141083990Y-61332897D01*
X140886897Y-61529990D01*
X140732043Y-61761746D01*
X140625377Y-62019260D01*
X140571000Y-62292635D01*
X140571000Y-62571365D01*
X140625377Y-62844740D01*
X140732043Y-63102254D01*
X140886897Y-63334010D01*
X141083990Y-63531103D01*
X141315746Y-63685957D01*
X141354477Y-63702000D01*
X141315746Y-63718043D01*
X141083990Y-63872897D01*
X140886897Y-64069990D01*
X140732043Y-64301746D01*
X140625377Y-64559260D01*
X140571000Y-64832635D01*
X140571000Y-65111365D01*
X140625377Y-65384740D01*
X140732043Y-65642254D01*
X140886897Y-65874010D01*
X141083990Y-66071103D01*
X141315746Y-66225957D01*
X141354477Y-66242000D01*
X141315746Y-66258043D01*
X141083990Y-66412897D01*
X140886897Y-66609990D01*
X140732043Y-66841746D01*
X140625377Y-67099260D01*
X140571000Y-67372635D01*
X140571000Y-67651365D01*
X140611903Y-67857001D01*
X126335803Y-67857001D01*
X126003000Y-67524199D01*
X126003000Y-67462061D01*
X125963226Y-67262102D01*
X125885205Y-67073744D01*
X125872013Y-67054000D01*
X129344289Y-67054000D01*
X129388226Y-67097937D01*
X129557744Y-67211205D01*
X129746102Y-67289226D01*
X129946061Y-67329000D01*
X130149939Y-67329000D01*
X130349898Y-67289226D01*
X130538256Y-67211205D01*
X130707774Y-67097937D01*
X130851937Y-66953774D01*
X130965205Y-66784256D01*
X131043226Y-66595898D01*
X131083000Y-66395939D01*
X131083000Y-66192061D01*
X131043226Y-65992102D01*
X130965205Y-65803744D01*
X130851937Y-65634226D01*
X130707774Y-65490063D01*
X130538256Y-65376795D01*
X130349898Y-65298774D01*
X130149939Y-65259000D01*
X129946061Y-65259000D01*
X129746102Y-65298774D01*
X129557744Y-65376795D01*
X129388226Y-65490063D01*
X129344289Y-65534000D01*
X121726803Y-65534000D01*
X120923000Y-64730198D01*
X120923000Y-64668061D01*
X120883226Y-64468102D01*
X120805205Y-64279744D01*
X120691937Y-64110226D01*
X120547774Y-63966063D01*
X120378256Y-63852795D01*
X120189898Y-63774774D01*
X119989939Y-63735000D01*
X119786061Y-63735000D01*
X119586102Y-63774774D01*
X119397744Y-63852795D01*
X119228226Y-63966063D01*
X119084063Y-64110226D01*
X118970795Y-64279744D01*
X118892774Y-64468102D01*
X118853000Y-64668061D01*
X118853000Y-64871939D01*
X118892774Y-65071898D01*
X118970795Y-65260256D01*
X119084063Y-65429774D01*
X119228226Y-65573937D01*
X119397744Y-65687205D01*
X119586102Y-65765226D01*
X119786061Y-65805000D01*
X119848198Y-65805000D01*
X120848205Y-66805008D01*
X120871999Y-66834001D01*
X120900992Y-66857795D01*
X120900996Y-66857799D01*
X120971685Y-66915811D01*
X120987724Y-66928974D01*
X121119753Y-66999546D01*
X121263014Y-67043003D01*
X121374667Y-67054000D01*
X121374676Y-67054000D01*
X121411999Y-67057676D01*
X121449322Y-67054000D01*
X124063987Y-67054000D01*
X124050795Y-67073744D01*
X123972774Y-67262102D01*
X123933000Y-67462061D01*
X123933000Y-67665939D01*
X123972774Y-67865898D01*
X124050795Y-68054256D01*
X124164063Y-68223774D01*
X124268289Y-68328000D01*
X113545595Y-68328000D01*
X113508706Y-68258986D01*
X113323134Y-68032866D01*
X113097014Y-67847294D01*
X113032477Y-67812799D01*
X113149355Y-67743178D01*
X113365588Y-67548269D01*
X113539641Y-67314920D01*
X113664825Y-67052099D01*
X113709476Y-66904890D01*
X113588155Y-66675000D01*
X112395000Y-66675000D01*
X112395000Y-66695000D01*
X112141000Y-66695000D01*
X112141000Y-66675000D01*
X110947845Y-66675000D01*
X110826524Y-66904890D01*
X110871175Y-67052099D01*
X110996359Y-67314920D01*
X111170412Y-67548269D01*
X111386645Y-67743178D01*
X111503523Y-67812799D01*
X111438986Y-67847294D01*
X111212866Y-68032866D01*
X111027294Y-68258986D01*
X110889401Y-68516966D01*
X110804487Y-68796889D01*
X110775815Y-69088000D01*
X107340000Y-69088000D01*
X107340000Y-64008000D01*
X110775815Y-64008000D01*
X110804487Y-64299111D01*
X110889401Y-64579034D01*
X111027294Y-64837014D01*
X111212866Y-65063134D01*
X111438986Y-65248706D01*
X111503523Y-65283201D01*
X111386645Y-65352822D01*
X111170412Y-65547731D01*
X110996359Y-65781080D01*
X110871175Y-66043901D01*
X110826524Y-66191110D01*
X110947845Y-66421000D01*
X112141000Y-66421000D01*
X112141000Y-66401000D01*
X112395000Y-66401000D01*
X112395000Y-66421000D01*
X113588155Y-66421000D01*
X113709476Y-66191110D01*
X113664825Y-66043901D01*
X113539641Y-65781080D01*
X113365588Y-65547731D01*
X113149355Y-65352822D01*
X113032477Y-65283201D01*
X113097014Y-65248706D01*
X113323134Y-65063134D01*
X113508706Y-64837014D01*
X113646599Y-64579034D01*
X113731513Y-64299111D01*
X113760185Y-64008000D01*
X113731513Y-63716889D01*
X113646599Y-63436966D01*
X113508706Y-63178986D01*
X113323134Y-62952866D01*
X113097014Y-62767294D01*
X112839034Y-62629401D01*
X112559111Y-62544487D01*
X112340950Y-62523000D01*
X112195050Y-62523000D01*
X111976889Y-62544487D01*
X111696966Y-62629401D01*
X111438986Y-62767294D01*
X111212866Y-62952866D01*
X111027294Y-63178986D01*
X110889401Y-63436966D01*
X110804487Y-63716889D01*
X110775815Y-64008000D01*
X107340000Y-64008000D01*
X107340000Y-57423303D01*
X140565943Y-57423303D01*
X140607140Y-57698972D01*
X140701325Y-57961308D01*
X140765651Y-58081655D01*
X141007579Y-58150816D01*
X141806395Y-57352000D01*
X142165605Y-57352000D01*
X142964421Y-58150816D01*
X143206349Y-58081655D01*
X143325248Y-57829557D01*
X143392681Y-57559106D01*
X143406057Y-57280697D01*
X143364860Y-57005028D01*
X143270675Y-56742692D01*
X143206349Y-56622345D01*
X142964421Y-56553184D01*
X142165605Y-57352000D01*
X141806395Y-57352000D01*
X141007579Y-56553184D01*
X140765651Y-56622345D01*
X140646752Y-56874443D01*
X140579319Y-57144894D01*
X140565943Y-57423303D01*
X107340000Y-57423303D01*
X107340000Y-56373579D01*
X141187184Y-56373579D01*
X141986000Y-57172395D01*
X142784816Y-56373579D01*
X142715655Y-56131651D01*
X142463557Y-56012752D01*
X142193106Y-55945319D01*
X141914697Y-55931943D01*
X141639028Y-55973140D01*
X141376692Y-56067325D01*
X141256345Y-56131651D01*
X141187184Y-56373579D01*
X107340000Y-56373579D01*
X107340000Y-52998000D01*
X124749928Y-52998000D01*
X124749928Y-54698000D01*
X124762188Y-54822482D01*
X124798498Y-54942180D01*
X124857463Y-55052494D01*
X124936815Y-55149185D01*
X125033506Y-55228537D01*
X125143820Y-55287502D01*
X125263518Y-55323812D01*
X125388000Y-55336072D01*
X127088000Y-55336072D01*
X127212482Y-55323812D01*
X127332180Y-55287502D01*
X127442494Y-55228537D01*
X127539185Y-55149185D01*
X127618537Y-55052494D01*
X127677502Y-54942180D01*
X127701966Y-54861534D01*
X127777731Y-54945588D01*
X128011080Y-55119641D01*
X128273901Y-55244825D01*
X128421110Y-55289476D01*
X128651000Y-55168155D01*
X128651000Y-53975000D01*
X128631000Y-53975000D01*
X128631000Y-53721000D01*
X128651000Y-53721000D01*
X128651000Y-52527845D01*
X128905000Y-52527845D01*
X128905000Y-53721000D01*
X128925000Y-53721000D01*
X128925000Y-53975000D01*
X128905000Y-53975000D01*
X128905000Y-55168155D01*
X129134890Y-55289476D01*
X129282099Y-55244825D01*
X129544920Y-55119641D01*
X129778269Y-54945588D01*
X129973178Y-54729355D01*
X130042799Y-54612477D01*
X130077294Y-54677014D01*
X130262866Y-54903134D01*
X130488986Y-55088706D01*
X130746966Y-55226599D01*
X131026889Y-55311513D01*
X131245050Y-55333000D01*
X131390950Y-55333000D01*
X131609111Y-55311513D01*
X131889034Y-55226599D01*
X132147014Y-55088706D01*
X132373134Y-54903134D01*
X132558706Y-54677014D01*
X132588000Y-54622209D01*
X132617294Y-54677014D01*
X132802866Y-54903134D01*
X133028986Y-55088706D01*
X133286966Y-55226599D01*
X133566889Y-55311513D01*
X133785050Y-55333000D01*
X133930950Y-55333000D01*
X134149111Y-55311513D01*
X134429034Y-55226599D01*
X134687014Y-55088706D01*
X134913134Y-54903134D01*
X135098706Y-54677014D01*
X135236599Y-54419034D01*
X135321513Y-54139111D01*
X135350185Y-53848000D01*
X135321513Y-53556889D01*
X135236599Y-53276966D01*
X135098706Y-53018986D01*
X134913134Y-52792866D01*
X134687014Y-52607294D01*
X134429034Y-52469401D01*
X134149111Y-52384487D01*
X133930950Y-52363000D01*
X133785050Y-52363000D01*
X133566889Y-52384487D01*
X133286966Y-52469401D01*
X133028986Y-52607294D01*
X132802866Y-52792866D01*
X132617294Y-53018986D01*
X132588000Y-53073791D01*
X132558706Y-53018986D01*
X132373134Y-52792866D01*
X132147014Y-52607294D01*
X131889034Y-52469401D01*
X131609111Y-52384487D01*
X131390950Y-52363000D01*
X131245050Y-52363000D01*
X131026889Y-52384487D01*
X130746966Y-52469401D01*
X130488986Y-52607294D01*
X130262866Y-52792866D01*
X130077294Y-53018986D01*
X130042799Y-53083523D01*
X129973178Y-52966645D01*
X129778269Y-52750412D01*
X129544920Y-52576359D01*
X129282099Y-52451175D01*
X129134890Y-52406524D01*
X128905000Y-52527845D01*
X128651000Y-52527845D01*
X128421110Y-52406524D01*
X128273901Y-52451175D01*
X128011080Y-52576359D01*
X127777731Y-52750412D01*
X127701966Y-52834466D01*
X127677502Y-52753820D01*
X127618537Y-52643506D01*
X127539185Y-52546815D01*
X127442494Y-52467463D01*
X127332180Y-52408498D01*
X127212482Y-52372188D01*
X127088000Y-52359928D01*
X125388000Y-52359928D01*
X125263518Y-52372188D01*
X125143820Y-52408498D01*
X125033506Y-52467463D01*
X124936815Y-52546815D01*
X124857463Y-52643506D01*
X124798498Y-52753820D01*
X124762188Y-52873518D01*
X124749928Y-52998000D01*
X107340000Y-52998000D01*
X107340000Y-49554000D01*
X186075928Y-49554000D01*
X186075928Y-52554000D01*
X186088188Y-52678482D01*
X186124498Y-52798180D01*
X186183463Y-52908494D01*
X186262815Y-53005185D01*
X186359506Y-53084537D01*
X186469820Y-53143502D01*
X186589518Y-53179812D01*
X186714000Y-53192072D01*
X189714000Y-53192072D01*
X189838482Y-53179812D01*
X189958180Y-53143502D01*
X190068494Y-53084537D01*
X190165185Y-53005185D01*
X190244537Y-52908494D01*
X190303502Y-52798180D01*
X190339812Y-52678482D01*
X190352072Y-52554000D01*
X190352072Y-50843721D01*
X191159000Y-50843721D01*
X191159000Y-51264279D01*
X191241047Y-51676756D01*
X191401988Y-52065302D01*
X191635637Y-52414983D01*
X191933017Y-52712363D01*
X192282698Y-52946012D01*
X192671244Y-53106953D01*
X193083721Y-53189000D01*
X193504279Y-53189000D01*
X193916756Y-53106953D01*
X194305302Y-52946012D01*
X194654983Y-52712363D01*
X194952363Y-52414983D01*
X195186012Y-52065302D01*
X195346953Y-51676756D01*
X195429000Y-51264279D01*
X195429000Y-50843721D01*
X195346953Y-50431244D01*
X195186012Y-50042698D01*
X194952363Y-49693017D01*
X194654983Y-49395637D01*
X194305302Y-49161988D01*
X193916756Y-49001047D01*
X193504279Y-48919000D01*
X193083721Y-48919000D01*
X192671244Y-49001047D01*
X192282698Y-49161988D01*
X191933017Y-49395637D01*
X191635637Y-49693017D01*
X191401988Y-50042698D01*
X191241047Y-50431244D01*
X191159000Y-50843721D01*
X190352072Y-50843721D01*
X190352072Y-49554000D01*
X190339812Y-49429518D01*
X190303502Y-49309820D01*
X190244537Y-49199506D01*
X190165185Y-49102815D01*
X190068494Y-49023463D01*
X189958180Y-48964498D01*
X189838482Y-48928188D01*
X189714000Y-48915928D01*
X186714000Y-48915928D01*
X186589518Y-48928188D01*
X186469820Y-48964498D01*
X186359506Y-49023463D01*
X186262815Y-49102815D01*
X186183463Y-49199506D01*
X186124498Y-49309820D01*
X186088188Y-49429518D01*
X186075928Y-49554000D01*
X107340000Y-49554000D01*
X107340000Y-46380000D01*
X202540000Y-46380000D01*
X202540001Y-108560000D01*
M02*
